%TF.GenerationSoftware,KiCad,Pcbnew,8.0.8*%
%TF.CreationDate,2025-07-11T15:40:09+09:00*%
%TF.ProjectId,20250711-7seg-panel-display,32303235-3037-4313-912d-377365672d70,rev?*%
%TF.SameCoordinates,Original*%
%TF.FileFunction,Legend,Top*%
%TF.FilePolarity,Positive*%
%FSLAX46Y46*%
G04 Gerber Fmt 4.6, Leading zero omitted, Abs format (unit mm)*
G04 Created by KiCad (PCBNEW 8.0.8) date 2025-07-11 15:40:09*
%MOMM*%
%LPD*%
G01*
G04 APERTURE LIST*
%ADD10C,0.100000*%
%ADD11C,0.150000*%
%ADD12R,1.500000X1.500000*%
%ADD13C,1.500000*%
%ADD14C,3.200000*%
%ADD15R,1.700000X1.700000*%
%ADD16O,1.700000X1.700000*%
G04 APERTURE END LIST*
D10*
X63500000Y-114975000D02*
X68500000Y-114975000D01*
X68500000Y-119975000D01*
X63500000Y-119975000D01*
X63500000Y-114975000D01*
G36*
X63500000Y-114975000D02*
G01*
X68500000Y-114975000D01*
X68500000Y-119975000D01*
X63500000Y-119975000D01*
X63500000Y-114975000D01*
G37*
D11*
X87820714Y-97879819D02*
X87820714Y-98689342D01*
X87820714Y-98689342D02*
X87868333Y-98784580D01*
X87868333Y-98784580D02*
X87915952Y-98832200D01*
X87915952Y-98832200D02*
X88011190Y-98879819D01*
X88011190Y-98879819D02*
X88201666Y-98879819D01*
X88201666Y-98879819D02*
X88296904Y-98832200D01*
X88296904Y-98832200D02*
X88344523Y-98784580D01*
X88344523Y-98784580D02*
X88392142Y-98689342D01*
X88392142Y-98689342D02*
X88392142Y-97879819D01*
X88820714Y-97975057D02*
X88868333Y-97927438D01*
X88868333Y-97927438D02*
X88963571Y-97879819D01*
X88963571Y-97879819D02*
X89201666Y-97879819D01*
X89201666Y-97879819D02*
X89296904Y-97927438D01*
X89296904Y-97927438D02*
X89344523Y-97975057D01*
X89344523Y-97975057D02*
X89392142Y-98070295D01*
X89392142Y-98070295D02*
X89392142Y-98165533D01*
X89392142Y-98165533D02*
X89344523Y-98308390D01*
X89344523Y-98308390D02*
X88773095Y-98879819D01*
X88773095Y-98879819D02*
X89392142Y-98879819D01*
X90011190Y-97879819D02*
X90106428Y-97879819D01*
X90106428Y-97879819D02*
X90201666Y-97927438D01*
X90201666Y-97927438D02*
X90249285Y-97975057D01*
X90249285Y-97975057D02*
X90296904Y-98070295D01*
X90296904Y-98070295D02*
X90344523Y-98260771D01*
X90344523Y-98260771D02*
X90344523Y-98498866D01*
X90344523Y-98498866D02*
X90296904Y-98689342D01*
X90296904Y-98689342D02*
X90249285Y-98784580D01*
X90249285Y-98784580D02*
X90201666Y-98832200D01*
X90201666Y-98832200D02*
X90106428Y-98879819D01*
X90106428Y-98879819D02*
X90011190Y-98879819D01*
X90011190Y-98879819D02*
X89915952Y-98832200D01*
X89915952Y-98832200D02*
X89868333Y-98784580D01*
X89868333Y-98784580D02*
X89820714Y-98689342D01*
X89820714Y-98689342D02*
X89773095Y-98498866D01*
X89773095Y-98498866D02*
X89773095Y-98260771D01*
X89773095Y-98260771D02*
X89820714Y-98070295D01*
X89820714Y-98070295D02*
X89868333Y-97975057D01*
X89868333Y-97975057D02*
X89915952Y-97927438D01*
X89915952Y-97927438D02*
X90011190Y-97879819D01*
X91201666Y-97879819D02*
X91011190Y-97879819D01*
X91011190Y-97879819D02*
X90915952Y-97927438D01*
X90915952Y-97927438D02*
X90868333Y-97975057D01*
X90868333Y-97975057D02*
X90773095Y-98117914D01*
X90773095Y-98117914D02*
X90725476Y-98308390D01*
X90725476Y-98308390D02*
X90725476Y-98689342D01*
X90725476Y-98689342D02*
X90773095Y-98784580D01*
X90773095Y-98784580D02*
X90820714Y-98832200D01*
X90820714Y-98832200D02*
X90915952Y-98879819D01*
X90915952Y-98879819D02*
X91106428Y-98879819D01*
X91106428Y-98879819D02*
X91201666Y-98832200D01*
X91201666Y-98832200D02*
X91249285Y-98784580D01*
X91249285Y-98784580D02*
X91296904Y-98689342D01*
X91296904Y-98689342D02*
X91296904Y-98451247D01*
X91296904Y-98451247D02*
X91249285Y-98356009D01*
X91249285Y-98356009D02*
X91201666Y-98308390D01*
X91201666Y-98308390D02*
X91106428Y-98260771D01*
X91106428Y-98260771D02*
X90915952Y-98260771D01*
X90915952Y-98260771D02*
X90820714Y-98308390D01*
X90820714Y-98308390D02*
X90773095Y-98356009D01*
X90773095Y-98356009D02*
X90725476Y-98451247D01*
X87820714Y-59779819D02*
X87820714Y-60589342D01*
X87820714Y-60589342D02*
X87868333Y-60684580D01*
X87868333Y-60684580D02*
X87915952Y-60732200D01*
X87915952Y-60732200D02*
X88011190Y-60779819D01*
X88011190Y-60779819D02*
X88201666Y-60779819D01*
X88201666Y-60779819D02*
X88296904Y-60732200D01*
X88296904Y-60732200D02*
X88344523Y-60684580D01*
X88344523Y-60684580D02*
X88392142Y-60589342D01*
X88392142Y-60589342D02*
X88392142Y-59779819D01*
X88820714Y-59875057D02*
X88868333Y-59827438D01*
X88868333Y-59827438D02*
X88963571Y-59779819D01*
X88963571Y-59779819D02*
X89201666Y-59779819D01*
X89201666Y-59779819D02*
X89296904Y-59827438D01*
X89296904Y-59827438D02*
X89344523Y-59875057D01*
X89344523Y-59875057D02*
X89392142Y-59970295D01*
X89392142Y-59970295D02*
X89392142Y-60065533D01*
X89392142Y-60065533D02*
X89344523Y-60208390D01*
X89344523Y-60208390D02*
X88773095Y-60779819D01*
X88773095Y-60779819D02*
X89392142Y-60779819D01*
X90011190Y-59779819D02*
X90106428Y-59779819D01*
X90106428Y-59779819D02*
X90201666Y-59827438D01*
X90201666Y-59827438D02*
X90249285Y-59875057D01*
X90249285Y-59875057D02*
X90296904Y-59970295D01*
X90296904Y-59970295D02*
X90344523Y-60160771D01*
X90344523Y-60160771D02*
X90344523Y-60398866D01*
X90344523Y-60398866D02*
X90296904Y-60589342D01*
X90296904Y-60589342D02*
X90249285Y-60684580D01*
X90249285Y-60684580D02*
X90201666Y-60732200D01*
X90201666Y-60732200D02*
X90106428Y-60779819D01*
X90106428Y-60779819D02*
X90011190Y-60779819D01*
X90011190Y-60779819D02*
X89915952Y-60732200D01*
X89915952Y-60732200D02*
X89868333Y-60684580D01*
X89868333Y-60684580D02*
X89820714Y-60589342D01*
X89820714Y-60589342D02*
X89773095Y-60398866D01*
X89773095Y-60398866D02*
X89773095Y-60160771D01*
X89773095Y-60160771D02*
X89820714Y-59970295D01*
X89820714Y-59970295D02*
X89868333Y-59875057D01*
X89868333Y-59875057D02*
X89915952Y-59827438D01*
X89915952Y-59827438D02*
X90011190Y-59779819D01*
X90725476Y-59875057D02*
X90773095Y-59827438D01*
X90773095Y-59827438D02*
X90868333Y-59779819D01*
X90868333Y-59779819D02*
X91106428Y-59779819D01*
X91106428Y-59779819D02*
X91201666Y-59827438D01*
X91201666Y-59827438D02*
X91249285Y-59875057D01*
X91249285Y-59875057D02*
X91296904Y-59970295D01*
X91296904Y-59970295D02*
X91296904Y-60065533D01*
X91296904Y-60065533D02*
X91249285Y-60208390D01*
X91249285Y-60208390D02*
X90677857Y-60779819D01*
X90677857Y-60779819D02*
X91296904Y-60779819D01*
X94231714Y-54909819D02*
X94231714Y-53909819D01*
X94231714Y-54386009D02*
X94803142Y-54386009D01*
X94803142Y-54909819D02*
X94803142Y-53909819D01*
X95231714Y-54005057D02*
X95279333Y-53957438D01*
X95279333Y-53957438D02*
X95374571Y-53909819D01*
X95374571Y-53909819D02*
X95612666Y-53909819D01*
X95612666Y-53909819D02*
X95707904Y-53957438D01*
X95707904Y-53957438D02*
X95755523Y-54005057D01*
X95755523Y-54005057D02*
X95803142Y-54100295D01*
X95803142Y-54100295D02*
X95803142Y-54195533D01*
X95803142Y-54195533D02*
X95755523Y-54338390D01*
X95755523Y-54338390D02*
X95184095Y-54909819D01*
X95184095Y-54909819D02*
X95803142Y-54909819D01*
X96422190Y-53909819D02*
X96517428Y-53909819D01*
X96517428Y-53909819D02*
X96612666Y-53957438D01*
X96612666Y-53957438D02*
X96660285Y-54005057D01*
X96660285Y-54005057D02*
X96707904Y-54100295D01*
X96707904Y-54100295D02*
X96755523Y-54290771D01*
X96755523Y-54290771D02*
X96755523Y-54528866D01*
X96755523Y-54528866D02*
X96707904Y-54719342D01*
X96707904Y-54719342D02*
X96660285Y-54814580D01*
X96660285Y-54814580D02*
X96612666Y-54862200D01*
X96612666Y-54862200D02*
X96517428Y-54909819D01*
X96517428Y-54909819D02*
X96422190Y-54909819D01*
X96422190Y-54909819D02*
X96326952Y-54862200D01*
X96326952Y-54862200D02*
X96279333Y-54814580D01*
X96279333Y-54814580D02*
X96231714Y-54719342D01*
X96231714Y-54719342D02*
X96184095Y-54528866D01*
X96184095Y-54528866D02*
X96184095Y-54290771D01*
X96184095Y-54290771D02*
X96231714Y-54100295D01*
X96231714Y-54100295D02*
X96279333Y-54005057D01*
X96279333Y-54005057D02*
X96326952Y-53957438D01*
X96326952Y-53957438D02*
X96422190Y-53909819D01*
X97136476Y-54005057D02*
X97184095Y-53957438D01*
X97184095Y-53957438D02*
X97279333Y-53909819D01*
X97279333Y-53909819D02*
X97517428Y-53909819D01*
X97517428Y-53909819D02*
X97612666Y-53957438D01*
X97612666Y-53957438D02*
X97660285Y-54005057D01*
X97660285Y-54005057D02*
X97707904Y-54100295D01*
X97707904Y-54100295D02*
X97707904Y-54195533D01*
X97707904Y-54195533D02*
X97660285Y-54338390D01*
X97660285Y-54338390D02*
X97088857Y-54909819D01*
X97088857Y-54909819D02*
X97707904Y-54909819D01*
X62420714Y-97879819D02*
X62420714Y-98689342D01*
X62420714Y-98689342D02*
X62468333Y-98784580D01*
X62468333Y-98784580D02*
X62515952Y-98832200D01*
X62515952Y-98832200D02*
X62611190Y-98879819D01*
X62611190Y-98879819D02*
X62801666Y-98879819D01*
X62801666Y-98879819D02*
X62896904Y-98832200D01*
X62896904Y-98832200D02*
X62944523Y-98784580D01*
X62944523Y-98784580D02*
X62992142Y-98689342D01*
X62992142Y-98689342D02*
X62992142Y-97879819D01*
X63420714Y-97975057D02*
X63468333Y-97927438D01*
X63468333Y-97927438D02*
X63563571Y-97879819D01*
X63563571Y-97879819D02*
X63801666Y-97879819D01*
X63801666Y-97879819D02*
X63896904Y-97927438D01*
X63896904Y-97927438D02*
X63944523Y-97975057D01*
X63944523Y-97975057D02*
X63992142Y-98070295D01*
X63992142Y-98070295D02*
X63992142Y-98165533D01*
X63992142Y-98165533D02*
X63944523Y-98308390D01*
X63944523Y-98308390D02*
X63373095Y-98879819D01*
X63373095Y-98879819D02*
X63992142Y-98879819D01*
X64611190Y-97879819D02*
X64706428Y-97879819D01*
X64706428Y-97879819D02*
X64801666Y-97927438D01*
X64801666Y-97927438D02*
X64849285Y-97975057D01*
X64849285Y-97975057D02*
X64896904Y-98070295D01*
X64896904Y-98070295D02*
X64944523Y-98260771D01*
X64944523Y-98260771D02*
X64944523Y-98498866D01*
X64944523Y-98498866D02*
X64896904Y-98689342D01*
X64896904Y-98689342D02*
X64849285Y-98784580D01*
X64849285Y-98784580D02*
X64801666Y-98832200D01*
X64801666Y-98832200D02*
X64706428Y-98879819D01*
X64706428Y-98879819D02*
X64611190Y-98879819D01*
X64611190Y-98879819D02*
X64515952Y-98832200D01*
X64515952Y-98832200D02*
X64468333Y-98784580D01*
X64468333Y-98784580D02*
X64420714Y-98689342D01*
X64420714Y-98689342D02*
X64373095Y-98498866D01*
X64373095Y-98498866D02*
X64373095Y-98260771D01*
X64373095Y-98260771D02*
X64420714Y-98070295D01*
X64420714Y-98070295D02*
X64468333Y-97975057D01*
X64468333Y-97975057D02*
X64515952Y-97927438D01*
X64515952Y-97927438D02*
X64611190Y-97879819D01*
X65849285Y-97879819D02*
X65373095Y-97879819D01*
X65373095Y-97879819D02*
X65325476Y-98356009D01*
X65325476Y-98356009D02*
X65373095Y-98308390D01*
X65373095Y-98308390D02*
X65468333Y-98260771D01*
X65468333Y-98260771D02*
X65706428Y-98260771D01*
X65706428Y-98260771D02*
X65801666Y-98308390D01*
X65801666Y-98308390D02*
X65849285Y-98356009D01*
X65849285Y-98356009D02*
X65896904Y-98451247D01*
X65896904Y-98451247D02*
X65896904Y-98689342D01*
X65896904Y-98689342D02*
X65849285Y-98784580D01*
X65849285Y-98784580D02*
X65801666Y-98832200D01*
X65801666Y-98832200D02*
X65706428Y-98879819D01*
X65706428Y-98879819D02*
X65468333Y-98879819D01*
X65468333Y-98879819D02*
X65373095Y-98832200D01*
X65373095Y-98832200D02*
X65325476Y-98784580D01*
X69085714Y-59354819D02*
X69085714Y-60164342D01*
X69085714Y-60164342D02*
X69133333Y-60259580D01*
X69133333Y-60259580D02*
X69180952Y-60307200D01*
X69180952Y-60307200D02*
X69276190Y-60354819D01*
X69276190Y-60354819D02*
X69466666Y-60354819D01*
X69466666Y-60354819D02*
X69561904Y-60307200D01*
X69561904Y-60307200D02*
X69609523Y-60259580D01*
X69609523Y-60259580D02*
X69657142Y-60164342D01*
X69657142Y-60164342D02*
X69657142Y-59354819D01*
X70085714Y-59450057D02*
X70133333Y-59402438D01*
X70133333Y-59402438D02*
X70228571Y-59354819D01*
X70228571Y-59354819D02*
X70466666Y-59354819D01*
X70466666Y-59354819D02*
X70561904Y-59402438D01*
X70561904Y-59402438D02*
X70609523Y-59450057D01*
X70609523Y-59450057D02*
X70657142Y-59545295D01*
X70657142Y-59545295D02*
X70657142Y-59640533D01*
X70657142Y-59640533D02*
X70609523Y-59783390D01*
X70609523Y-59783390D02*
X70038095Y-60354819D01*
X70038095Y-60354819D02*
X70657142Y-60354819D01*
X71276190Y-59354819D02*
X71371428Y-59354819D01*
X71371428Y-59354819D02*
X71466666Y-59402438D01*
X71466666Y-59402438D02*
X71514285Y-59450057D01*
X71514285Y-59450057D02*
X71561904Y-59545295D01*
X71561904Y-59545295D02*
X71609523Y-59735771D01*
X71609523Y-59735771D02*
X71609523Y-59973866D01*
X71609523Y-59973866D02*
X71561904Y-60164342D01*
X71561904Y-60164342D02*
X71514285Y-60259580D01*
X71514285Y-60259580D02*
X71466666Y-60307200D01*
X71466666Y-60307200D02*
X71371428Y-60354819D01*
X71371428Y-60354819D02*
X71276190Y-60354819D01*
X71276190Y-60354819D02*
X71180952Y-60307200D01*
X71180952Y-60307200D02*
X71133333Y-60259580D01*
X71133333Y-60259580D02*
X71085714Y-60164342D01*
X71085714Y-60164342D02*
X71038095Y-59973866D01*
X71038095Y-59973866D02*
X71038095Y-59735771D01*
X71038095Y-59735771D02*
X71085714Y-59545295D01*
X71085714Y-59545295D02*
X71133333Y-59450057D01*
X71133333Y-59450057D02*
X71180952Y-59402438D01*
X71180952Y-59402438D02*
X71276190Y-59354819D01*
X72561904Y-60354819D02*
X71990476Y-60354819D01*
X72276190Y-60354819D02*
X72276190Y-59354819D01*
X72276190Y-59354819D02*
X72180952Y-59497676D01*
X72180952Y-59497676D02*
X72085714Y-59592914D01*
X72085714Y-59592914D02*
X71990476Y-59640533D01*
X87820714Y-116929819D02*
X87820714Y-117739342D01*
X87820714Y-117739342D02*
X87868333Y-117834580D01*
X87868333Y-117834580D02*
X87915952Y-117882200D01*
X87915952Y-117882200D02*
X88011190Y-117929819D01*
X88011190Y-117929819D02*
X88201666Y-117929819D01*
X88201666Y-117929819D02*
X88296904Y-117882200D01*
X88296904Y-117882200D02*
X88344523Y-117834580D01*
X88344523Y-117834580D02*
X88392142Y-117739342D01*
X88392142Y-117739342D02*
X88392142Y-116929819D01*
X88820714Y-117025057D02*
X88868333Y-116977438D01*
X88868333Y-116977438D02*
X88963571Y-116929819D01*
X88963571Y-116929819D02*
X89201666Y-116929819D01*
X89201666Y-116929819D02*
X89296904Y-116977438D01*
X89296904Y-116977438D02*
X89344523Y-117025057D01*
X89344523Y-117025057D02*
X89392142Y-117120295D01*
X89392142Y-117120295D02*
X89392142Y-117215533D01*
X89392142Y-117215533D02*
X89344523Y-117358390D01*
X89344523Y-117358390D02*
X88773095Y-117929819D01*
X88773095Y-117929819D02*
X89392142Y-117929819D01*
X90011190Y-116929819D02*
X90106428Y-116929819D01*
X90106428Y-116929819D02*
X90201666Y-116977438D01*
X90201666Y-116977438D02*
X90249285Y-117025057D01*
X90249285Y-117025057D02*
X90296904Y-117120295D01*
X90296904Y-117120295D02*
X90344523Y-117310771D01*
X90344523Y-117310771D02*
X90344523Y-117548866D01*
X90344523Y-117548866D02*
X90296904Y-117739342D01*
X90296904Y-117739342D02*
X90249285Y-117834580D01*
X90249285Y-117834580D02*
X90201666Y-117882200D01*
X90201666Y-117882200D02*
X90106428Y-117929819D01*
X90106428Y-117929819D02*
X90011190Y-117929819D01*
X90011190Y-117929819D02*
X89915952Y-117882200D01*
X89915952Y-117882200D02*
X89868333Y-117834580D01*
X89868333Y-117834580D02*
X89820714Y-117739342D01*
X89820714Y-117739342D02*
X89773095Y-117548866D01*
X89773095Y-117548866D02*
X89773095Y-117310771D01*
X89773095Y-117310771D02*
X89820714Y-117120295D01*
X89820714Y-117120295D02*
X89868333Y-117025057D01*
X89868333Y-117025057D02*
X89915952Y-116977438D01*
X89915952Y-116977438D02*
X90011190Y-116929819D01*
X90915952Y-117358390D02*
X90820714Y-117310771D01*
X90820714Y-117310771D02*
X90773095Y-117263152D01*
X90773095Y-117263152D02*
X90725476Y-117167914D01*
X90725476Y-117167914D02*
X90725476Y-117120295D01*
X90725476Y-117120295D02*
X90773095Y-117025057D01*
X90773095Y-117025057D02*
X90820714Y-116977438D01*
X90820714Y-116977438D02*
X90915952Y-116929819D01*
X90915952Y-116929819D02*
X91106428Y-116929819D01*
X91106428Y-116929819D02*
X91201666Y-116977438D01*
X91201666Y-116977438D02*
X91249285Y-117025057D01*
X91249285Y-117025057D02*
X91296904Y-117120295D01*
X91296904Y-117120295D02*
X91296904Y-117167914D01*
X91296904Y-117167914D02*
X91249285Y-117263152D01*
X91249285Y-117263152D02*
X91201666Y-117310771D01*
X91201666Y-117310771D02*
X91106428Y-117358390D01*
X91106428Y-117358390D02*
X90915952Y-117358390D01*
X90915952Y-117358390D02*
X90820714Y-117406009D01*
X90820714Y-117406009D02*
X90773095Y-117453628D01*
X90773095Y-117453628D02*
X90725476Y-117548866D01*
X90725476Y-117548866D02*
X90725476Y-117739342D01*
X90725476Y-117739342D02*
X90773095Y-117834580D01*
X90773095Y-117834580D02*
X90820714Y-117882200D01*
X90820714Y-117882200D02*
X90915952Y-117929819D01*
X90915952Y-117929819D02*
X91106428Y-117929819D01*
X91106428Y-117929819D02*
X91201666Y-117882200D01*
X91201666Y-117882200D02*
X91249285Y-117834580D01*
X91249285Y-117834580D02*
X91296904Y-117739342D01*
X91296904Y-117739342D02*
X91296904Y-117548866D01*
X91296904Y-117548866D02*
X91249285Y-117453628D01*
X91249285Y-117453628D02*
X91201666Y-117406009D01*
X91201666Y-117406009D02*
X91106428Y-117358390D01*
X57335714Y-115154819D02*
X57335714Y-114154819D01*
X57335714Y-114631009D02*
X57907142Y-114631009D01*
X57907142Y-115154819D02*
X57907142Y-114154819D01*
X58907142Y-115154819D02*
X58335714Y-115154819D01*
X58621428Y-115154819D02*
X58621428Y-114154819D01*
X58621428Y-114154819D02*
X58526190Y-114297676D01*
X58526190Y-114297676D02*
X58430952Y-114392914D01*
X58430952Y-114392914D02*
X58335714Y-114440533D01*
X59526190Y-114154819D02*
X59621428Y-114154819D01*
X59621428Y-114154819D02*
X59716666Y-114202438D01*
X59716666Y-114202438D02*
X59764285Y-114250057D01*
X59764285Y-114250057D02*
X59811904Y-114345295D01*
X59811904Y-114345295D02*
X59859523Y-114535771D01*
X59859523Y-114535771D02*
X59859523Y-114773866D01*
X59859523Y-114773866D02*
X59811904Y-114964342D01*
X59811904Y-114964342D02*
X59764285Y-115059580D01*
X59764285Y-115059580D02*
X59716666Y-115107200D01*
X59716666Y-115107200D02*
X59621428Y-115154819D01*
X59621428Y-115154819D02*
X59526190Y-115154819D01*
X59526190Y-115154819D02*
X59430952Y-115107200D01*
X59430952Y-115107200D02*
X59383333Y-115059580D01*
X59383333Y-115059580D02*
X59335714Y-114964342D01*
X59335714Y-114964342D02*
X59288095Y-114773866D01*
X59288095Y-114773866D02*
X59288095Y-114535771D01*
X59288095Y-114535771D02*
X59335714Y-114345295D01*
X59335714Y-114345295D02*
X59383333Y-114250057D01*
X59383333Y-114250057D02*
X59430952Y-114202438D01*
X59430952Y-114202438D02*
X59526190Y-114154819D01*
X60811904Y-115154819D02*
X60240476Y-115154819D01*
X60526190Y-115154819D02*
X60526190Y-114154819D01*
X60526190Y-114154819D02*
X60430952Y-114297676D01*
X60430952Y-114297676D02*
X60335714Y-114392914D01*
X60335714Y-114392914D02*
X60240476Y-114440533D01*
X87820714Y-78829819D02*
X87820714Y-79639342D01*
X87820714Y-79639342D02*
X87868333Y-79734580D01*
X87868333Y-79734580D02*
X87915952Y-79782200D01*
X87915952Y-79782200D02*
X88011190Y-79829819D01*
X88011190Y-79829819D02*
X88201666Y-79829819D01*
X88201666Y-79829819D02*
X88296904Y-79782200D01*
X88296904Y-79782200D02*
X88344523Y-79734580D01*
X88344523Y-79734580D02*
X88392142Y-79639342D01*
X88392142Y-79639342D02*
X88392142Y-78829819D01*
X88820714Y-78925057D02*
X88868333Y-78877438D01*
X88868333Y-78877438D02*
X88963571Y-78829819D01*
X88963571Y-78829819D02*
X89201666Y-78829819D01*
X89201666Y-78829819D02*
X89296904Y-78877438D01*
X89296904Y-78877438D02*
X89344523Y-78925057D01*
X89344523Y-78925057D02*
X89392142Y-79020295D01*
X89392142Y-79020295D02*
X89392142Y-79115533D01*
X89392142Y-79115533D02*
X89344523Y-79258390D01*
X89344523Y-79258390D02*
X88773095Y-79829819D01*
X88773095Y-79829819D02*
X89392142Y-79829819D01*
X90011190Y-78829819D02*
X90106428Y-78829819D01*
X90106428Y-78829819D02*
X90201666Y-78877438D01*
X90201666Y-78877438D02*
X90249285Y-78925057D01*
X90249285Y-78925057D02*
X90296904Y-79020295D01*
X90296904Y-79020295D02*
X90344523Y-79210771D01*
X90344523Y-79210771D02*
X90344523Y-79448866D01*
X90344523Y-79448866D02*
X90296904Y-79639342D01*
X90296904Y-79639342D02*
X90249285Y-79734580D01*
X90249285Y-79734580D02*
X90201666Y-79782200D01*
X90201666Y-79782200D02*
X90106428Y-79829819D01*
X90106428Y-79829819D02*
X90011190Y-79829819D01*
X90011190Y-79829819D02*
X89915952Y-79782200D01*
X89915952Y-79782200D02*
X89868333Y-79734580D01*
X89868333Y-79734580D02*
X89820714Y-79639342D01*
X89820714Y-79639342D02*
X89773095Y-79448866D01*
X89773095Y-79448866D02*
X89773095Y-79210771D01*
X89773095Y-79210771D02*
X89820714Y-79020295D01*
X89820714Y-79020295D02*
X89868333Y-78925057D01*
X89868333Y-78925057D02*
X89915952Y-78877438D01*
X89915952Y-78877438D02*
X90011190Y-78829819D01*
X91201666Y-79163152D02*
X91201666Y-79829819D01*
X90963571Y-78782200D02*
X90725476Y-79496485D01*
X90725476Y-79496485D02*
X91344523Y-79496485D01*
X60085714Y-81354819D02*
X60085714Y-82164342D01*
X60085714Y-82164342D02*
X60133333Y-82259580D01*
X60133333Y-82259580D02*
X60180952Y-82307200D01*
X60180952Y-82307200D02*
X60276190Y-82354819D01*
X60276190Y-82354819D02*
X60466666Y-82354819D01*
X60466666Y-82354819D02*
X60561904Y-82307200D01*
X60561904Y-82307200D02*
X60609523Y-82259580D01*
X60609523Y-82259580D02*
X60657142Y-82164342D01*
X60657142Y-82164342D02*
X60657142Y-81354819D01*
X61085714Y-81450057D02*
X61133333Y-81402438D01*
X61133333Y-81402438D02*
X61228571Y-81354819D01*
X61228571Y-81354819D02*
X61466666Y-81354819D01*
X61466666Y-81354819D02*
X61561904Y-81402438D01*
X61561904Y-81402438D02*
X61609523Y-81450057D01*
X61609523Y-81450057D02*
X61657142Y-81545295D01*
X61657142Y-81545295D02*
X61657142Y-81640533D01*
X61657142Y-81640533D02*
X61609523Y-81783390D01*
X61609523Y-81783390D02*
X61038095Y-82354819D01*
X61038095Y-82354819D02*
X61657142Y-82354819D01*
X62276190Y-81354819D02*
X62371428Y-81354819D01*
X62371428Y-81354819D02*
X62466666Y-81402438D01*
X62466666Y-81402438D02*
X62514285Y-81450057D01*
X62514285Y-81450057D02*
X62561904Y-81545295D01*
X62561904Y-81545295D02*
X62609523Y-81735771D01*
X62609523Y-81735771D02*
X62609523Y-81973866D01*
X62609523Y-81973866D02*
X62561904Y-82164342D01*
X62561904Y-82164342D02*
X62514285Y-82259580D01*
X62514285Y-82259580D02*
X62466666Y-82307200D01*
X62466666Y-82307200D02*
X62371428Y-82354819D01*
X62371428Y-82354819D02*
X62276190Y-82354819D01*
X62276190Y-82354819D02*
X62180952Y-82307200D01*
X62180952Y-82307200D02*
X62133333Y-82259580D01*
X62133333Y-82259580D02*
X62085714Y-82164342D01*
X62085714Y-82164342D02*
X62038095Y-81973866D01*
X62038095Y-81973866D02*
X62038095Y-81735771D01*
X62038095Y-81735771D02*
X62085714Y-81545295D01*
X62085714Y-81545295D02*
X62133333Y-81450057D01*
X62133333Y-81450057D02*
X62180952Y-81402438D01*
X62180952Y-81402438D02*
X62276190Y-81354819D01*
X62942857Y-81354819D02*
X63561904Y-81354819D01*
X63561904Y-81354819D02*
X63228571Y-81735771D01*
X63228571Y-81735771D02*
X63371428Y-81735771D01*
X63371428Y-81735771D02*
X63466666Y-81783390D01*
X63466666Y-81783390D02*
X63514285Y-81831009D01*
X63514285Y-81831009D02*
X63561904Y-81926247D01*
X63561904Y-81926247D02*
X63561904Y-82164342D01*
X63561904Y-82164342D02*
X63514285Y-82259580D01*
X63514285Y-82259580D02*
X63466666Y-82307200D01*
X63466666Y-82307200D02*
X63371428Y-82354819D01*
X63371428Y-82354819D02*
X63085714Y-82354819D01*
X63085714Y-82354819D02*
X62990476Y-82307200D01*
X62990476Y-82307200D02*
X62942857Y-82259580D01*
X57085714Y-121354819D02*
X57085714Y-122164342D01*
X57085714Y-122164342D02*
X57133333Y-122259580D01*
X57133333Y-122259580D02*
X57180952Y-122307200D01*
X57180952Y-122307200D02*
X57276190Y-122354819D01*
X57276190Y-122354819D02*
X57466666Y-122354819D01*
X57466666Y-122354819D02*
X57561904Y-122307200D01*
X57561904Y-122307200D02*
X57609523Y-122259580D01*
X57609523Y-122259580D02*
X57657142Y-122164342D01*
X57657142Y-122164342D02*
X57657142Y-121354819D01*
X58085714Y-121450057D02*
X58133333Y-121402438D01*
X58133333Y-121402438D02*
X58228571Y-121354819D01*
X58228571Y-121354819D02*
X58466666Y-121354819D01*
X58466666Y-121354819D02*
X58561904Y-121402438D01*
X58561904Y-121402438D02*
X58609523Y-121450057D01*
X58609523Y-121450057D02*
X58657142Y-121545295D01*
X58657142Y-121545295D02*
X58657142Y-121640533D01*
X58657142Y-121640533D02*
X58609523Y-121783390D01*
X58609523Y-121783390D02*
X58038095Y-122354819D01*
X58038095Y-122354819D02*
X58657142Y-122354819D01*
X59276190Y-121354819D02*
X59371428Y-121354819D01*
X59371428Y-121354819D02*
X59466666Y-121402438D01*
X59466666Y-121402438D02*
X59514285Y-121450057D01*
X59514285Y-121450057D02*
X59561904Y-121545295D01*
X59561904Y-121545295D02*
X59609523Y-121735771D01*
X59609523Y-121735771D02*
X59609523Y-121973866D01*
X59609523Y-121973866D02*
X59561904Y-122164342D01*
X59561904Y-122164342D02*
X59514285Y-122259580D01*
X59514285Y-122259580D02*
X59466666Y-122307200D01*
X59466666Y-122307200D02*
X59371428Y-122354819D01*
X59371428Y-122354819D02*
X59276190Y-122354819D01*
X59276190Y-122354819D02*
X59180952Y-122307200D01*
X59180952Y-122307200D02*
X59133333Y-122259580D01*
X59133333Y-122259580D02*
X59085714Y-122164342D01*
X59085714Y-122164342D02*
X59038095Y-121973866D01*
X59038095Y-121973866D02*
X59038095Y-121735771D01*
X59038095Y-121735771D02*
X59085714Y-121545295D01*
X59085714Y-121545295D02*
X59133333Y-121450057D01*
X59133333Y-121450057D02*
X59180952Y-121402438D01*
X59180952Y-121402438D02*
X59276190Y-121354819D01*
X59942857Y-121354819D02*
X60609523Y-121354819D01*
X60609523Y-121354819D02*
X60180952Y-122354819D01*
X94485714Y-115154819D02*
X94485714Y-114154819D01*
X94485714Y-114631009D02*
X95057142Y-114631009D01*
X95057142Y-115154819D02*
X95057142Y-114154819D01*
X95485714Y-114250057D02*
X95533333Y-114202438D01*
X95533333Y-114202438D02*
X95628571Y-114154819D01*
X95628571Y-114154819D02*
X95866666Y-114154819D01*
X95866666Y-114154819D02*
X95961904Y-114202438D01*
X95961904Y-114202438D02*
X96009523Y-114250057D01*
X96009523Y-114250057D02*
X96057142Y-114345295D01*
X96057142Y-114345295D02*
X96057142Y-114440533D01*
X96057142Y-114440533D02*
X96009523Y-114583390D01*
X96009523Y-114583390D02*
X95438095Y-115154819D01*
X95438095Y-115154819D02*
X96057142Y-115154819D01*
X96676190Y-114154819D02*
X96771428Y-114154819D01*
X96771428Y-114154819D02*
X96866666Y-114202438D01*
X96866666Y-114202438D02*
X96914285Y-114250057D01*
X96914285Y-114250057D02*
X96961904Y-114345295D01*
X96961904Y-114345295D02*
X97009523Y-114535771D01*
X97009523Y-114535771D02*
X97009523Y-114773866D01*
X97009523Y-114773866D02*
X96961904Y-114964342D01*
X96961904Y-114964342D02*
X96914285Y-115059580D01*
X96914285Y-115059580D02*
X96866666Y-115107200D01*
X96866666Y-115107200D02*
X96771428Y-115154819D01*
X96771428Y-115154819D02*
X96676190Y-115154819D01*
X96676190Y-115154819D02*
X96580952Y-115107200D01*
X96580952Y-115107200D02*
X96533333Y-115059580D01*
X96533333Y-115059580D02*
X96485714Y-114964342D01*
X96485714Y-114964342D02*
X96438095Y-114773866D01*
X96438095Y-114773866D02*
X96438095Y-114535771D01*
X96438095Y-114535771D02*
X96485714Y-114345295D01*
X96485714Y-114345295D02*
X96533333Y-114250057D01*
X96533333Y-114250057D02*
X96580952Y-114202438D01*
X96580952Y-114202438D02*
X96676190Y-114154819D01*
X97961904Y-115154819D02*
X97390476Y-115154819D01*
X97676190Y-115154819D02*
X97676190Y-114154819D01*
X97676190Y-114154819D02*
X97580952Y-114297676D01*
X97580952Y-114297676D02*
X97485714Y-114392914D01*
X97485714Y-114392914D02*
X97390476Y-114440533D01*
D10*
%TO.C,U206*%
X88230000Y-103505000D02*
G75*
G02*
X87030000Y-103505000I-600000J0D01*
G01*
X87030000Y-103505000D02*
G75*
G02*
X88230000Y-103505000I600000J0D01*
G01*
X100295000Y-103505000D02*
G75*
G02*
X99095000Y-103505000I-600000J0D01*
G01*
X99095000Y-103505000D02*
G75*
G02*
X100295000Y-103505000I600000J0D01*
G01*
%TO.C,U202*%
X88230000Y-65405000D02*
G75*
G02*
X87030000Y-65405000I-600000J0D01*
G01*
X87030000Y-65405000D02*
G75*
G02*
X88230000Y-65405000I600000J0D01*
G01*
X100295000Y-65405000D02*
G75*
G02*
X99095000Y-65405000I-600000J0D01*
G01*
X99095000Y-65405000D02*
G75*
G02*
X100295000Y-65405000I600000J0D01*
G01*
%TO.C,U205*%
X62830000Y-103505000D02*
G75*
G02*
X61630000Y-103505000I-600000J0D01*
G01*
X61630000Y-103505000D02*
G75*
G02*
X62830000Y-103505000I600000J0D01*
G01*
X74895000Y-103505000D02*
G75*
G02*
X73695000Y-103505000I-600000J0D01*
G01*
X73695000Y-103505000D02*
G75*
G02*
X74895000Y-103505000I600000J0D01*
G01*
%TO.C,U201*%
X62830000Y-65405000D02*
G75*
G02*
X61630000Y-65405000I-600000J0D01*
G01*
X61630000Y-65405000D02*
G75*
G02*
X62830000Y-65405000I600000J0D01*
G01*
X74895000Y-65405000D02*
G75*
G02*
X73695000Y-65405000I-600000J0D01*
G01*
X73695000Y-65405000D02*
G75*
G02*
X74895000Y-65405000I600000J0D01*
G01*
%TO.C,U208*%
X88230000Y-122555000D02*
G75*
G02*
X87030000Y-122555000I-600000J0D01*
G01*
X87030000Y-122555000D02*
G75*
G02*
X88230000Y-122555000I600000J0D01*
G01*
X100295000Y-122555000D02*
G75*
G02*
X99095000Y-122555000I-600000J0D01*
G01*
X99095000Y-122555000D02*
G75*
G02*
X100295000Y-122555000I600000J0D01*
G01*
%TO.C,U204*%
X88230000Y-84455000D02*
G75*
G02*
X87030000Y-84455000I-600000J0D01*
G01*
X87030000Y-84455000D02*
G75*
G02*
X88230000Y-84455000I600000J0D01*
G01*
X100295000Y-84455000D02*
G75*
G02*
X99095000Y-84455000I-600000J0D01*
G01*
X99095000Y-84455000D02*
G75*
G02*
X100295000Y-84455000I600000J0D01*
G01*
%TO.C,U203*%
X62830000Y-84455000D02*
G75*
G02*
X61630000Y-84455000I-600000J0D01*
G01*
X61630000Y-84455000D02*
G75*
G02*
X62830000Y-84455000I600000J0D01*
G01*
X74895000Y-84455000D02*
G75*
G02*
X73695000Y-84455000I-600000J0D01*
G01*
X73695000Y-84455000D02*
G75*
G02*
X74895000Y-84455000I600000J0D01*
G01*
%TO.C,U207*%
X62830000Y-122555000D02*
G75*
G02*
X61630000Y-122555000I-600000J0D01*
G01*
X61630000Y-122555000D02*
G75*
G02*
X62830000Y-122555000I600000J0D01*
G01*
X74895000Y-122555000D02*
G75*
G02*
X73695000Y-122555000I-600000J0D01*
G01*
X73695000Y-122555000D02*
G75*
G02*
X74895000Y-122555000I600000J0D01*
G01*
%TD*%
%LPC*%
D12*
%TO.C,U206*%
X78740000Y-106045000D03*
D13*
X81280000Y-106045000D03*
X83820000Y-106045000D03*
X86360000Y-106045000D03*
X88900000Y-106045000D03*
X91440000Y-106045000D03*
X93980000Y-106045000D03*
X96520000Y-106045000D03*
X99060000Y-106045000D03*
X99060000Y-90805000D03*
X96520000Y-90805000D03*
X93980000Y-90805000D03*
X91440000Y-90805000D03*
X88900000Y-90805000D03*
X86360000Y-90805000D03*
X83820000Y-90805000D03*
X81280000Y-90805000D03*
X78740000Y-90805000D03*
%TD*%
D12*
%TO.C,U202*%
X78740000Y-67945000D03*
D13*
X81280000Y-67945000D03*
X83820000Y-67945000D03*
X86360000Y-67945000D03*
X88900000Y-67945000D03*
X91440000Y-67945000D03*
X93980000Y-67945000D03*
X96520000Y-67945000D03*
X99060000Y-67945000D03*
X99060000Y-52705000D03*
X96520000Y-52705000D03*
X93980000Y-52705000D03*
X91440000Y-52705000D03*
X88900000Y-52705000D03*
X86360000Y-52705000D03*
X83820000Y-52705000D03*
X81280000Y-52705000D03*
X78740000Y-52705000D03*
%TD*%
D14*
%TO.C,H202*%
X96200000Y-58900000D03*
%TD*%
D12*
%TO.C,U205*%
X53340000Y-106045000D03*
D13*
X55880000Y-106045000D03*
X58420000Y-106045000D03*
X60960000Y-106045000D03*
X63500000Y-106045000D03*
X66040000Y-106045000D03*
X68580000Y-106045000D03*
X71120000Y-106045000D03*
X73660000Y-106045000D03*
X73660000Y-90805000D03*
X71120000Y-90805000D03*
X68580000Y-90805000D03*
X66040000Y-90805000D03*
X63500000Y-90805000D03*
X60960000Y-90805000D03*
X58420000Y-90805000D03*
X55880000Y-90805000D03*
X53340000Y-90805000D03*
%TD*%
D12*
%TO.C,U201*%
X53340000Y-67945000D03*
D13*
X55880000Y-67945000D03*
X58420000Y-67945000D03*
X60960000Y-67945000D03*
X63500000Y-67945000D03*
X66040000Y-67945000D03*
X68580000Y-67945000D03*
X71120000Y-67945000D03*
X73660000Y-67945000D03*
X73660000Y-52705000D03*
X71120000Y-52705000D03*
X68580000Y-52705000D03*
X66040000Y-52705000D03*
X63500000Y-52705000D03*
X60960000Y-52705000D03*
X58420000Y-52705000D03*
X55880000Y-52705000D03*
X53340000Y-52705000D03*
%TD*%
D12*
%TO.C,U208*%
X78740000Y-125095000D03*
D13*
X81280000Y-125095000D03*
X83820000Y-125095000D03*
X86360000Y-125095000D03*
X88900000Y-125095000D03*
X91440000Y-125095000D03*
X93980000Y-125095000D03*
X96520000Y-125095000D03*
X99060000Y-125095000D03*
X99060000Y-109855000D03*
X96520000Y-109855000D03*
X93980000Y-109855000D03*
X91440000Y-109855000D03*
X88900000Y-109855000D03*
X86360000Y-109855000D03*
X83820000Y-109855000D03*
X81280000Y-109855000D03*
X78740000Y-109855000D03*
%TD*%
D14*
%TO.C,H101*%
X59050000Y-118900000D03*
%TD*%
D12*
%TO.C,U204*%
X78740000Y-86995000D03*
D13*
X81280000Y-86995000D03*
X83820000Y-86995000D03*
X86360000Y-86995000D03*
X88900000Y-86995000D03*
X91440000Y-86995000D03*
X93980000Y-86995000D03*
X96520000Y-86995000D03*
X99060000Y-86995000D03*
X99060000Y-71755000D03*
X96520000Y-71755000D03*
X93980000Y-71755000D03*
X91440000Y-71755000D03*
X88900000Y-71755000D03*
X86360000Y-71755000D03*
X83820000Y-71755000D03*
X81280000Y-71755000D03*
X78740000Y-71755000D03*
%TD*%
D12*
%TO.C,U203*%
X53340000Y-86995000D03*
D13*
X55880000Y-86995000D03*
X58420000Y-86995000D03*
X60960000Y-86995000D03*
X63500000Y-86995000D03*
X66040000Y-86995000D03*
X68580000Y-86995000D03*
X71120000Y-86995000D03*
X73660000Y-86995000D03*
X73660000Y-71755000D03*
X71120000Y-71755000D03*
X68580000Y-71755000D03*
X66040000Y-71755000D03*
X63500000Y-71755000D03*
X60960000Y-71755000D03*
X58420000Y-71755000D03*
X55880000Y-71755000D03*
X53340000Y-71755000D03*
%TD*%
D12*
%TO.C,U207*%
X53340000Y-125095000D03*
D13*
X55880000Y-125095000D03*
X58420000Y-125095000D03*
X60960000Y-125095000D03*
X63500000Y-125095000D03*
X66040000Y-125095000D03*
X68580000Y-125095000D03*
X71120000Y-125095000D03*
X73660000Y-125095000D03*
X73660000Y-109855000D03*
X71120000Y-109855000D03*
X68580000Y-109855000D03*
X66040000Y-109855000D03*
X63500000Y-109855000D03*
X60960000Y-109855000D03*
X58420000Y-109855000D03*
X55880000Y-109855000D03*
X53340000Y-109855000D03*
%TD*%
D14*
%TO.C,H201*%
X96200000Y-118900000D03*
%TD*%
D15*
%TO.C,J203*%
X73660000Y-116400000D03*
D16*
X73660000Y-118940000D03*
X76200000Y-116400000D03*
X76200000Y-118940000D03*
X78740000Y-116400000D03*
X78740000Y-118940000D03*
X81280000Y-116400000D03*
X81280000Y-118940000D03*
%TD*%
D15*
%TO.C,J202*%
X58970000Y-76400000D03*
D16*
X58970000Y-78940000D03*
X61510000Y-76400000D03*
X61510000Y-78940000D03*
X64050000Y-76400000D03*
X64050000Y-78940000D03*
X66590000Y-76400000D03*
X66590000Y-78940000D03*
%TD*%
D15*
%TO.C,J201*%
X59050000Y-58900000D03*
D16*
X59050000Y-61440000D03*
X61590000Y-58900000D03*
X61590000Y-61440000D03*
X64130000Y-58900000D03*
X64130000Y-61440000D03*
X66670000Y-58900000D03*
X66670000Y-61440000D03*
%TD*%
%LPD*%
M02*
