%TF.GenerationSoftware,KiCad,Pcbnew,8.0.8*%
%TF.CreationDate,2025-07-11T15:40:09+09:00*%
%TF.ProjectId,20250711-7seg-panel-display,32303235-3037-4313-912d-377365672d70,rev?*%
%TF.SameCoordinates,Original*%
%TF.FileFunction,Copper,L2,Bot*%
%TF.FilePolarity,Positive*%
%FSLAX46Y46*%
G04 Gerber Fmt 4.6, Leading zero omitted, Abs format (unit mm)*
G04 Created by KiCad (PCBNEW 8.0.8) date 2025-07-11 15:40:09*
%MOMM*%
%LPD*%
G01*
G04 APERTURE LIST*
%TA.AperFunction,ComponentPad*%
%ADD10R,1.500000X1.500000*%
%TD*%
%TA.AperFunction,ComponentPad*%
%ADD11C,1.500000*%
%TD*%
%TA.AperFunction,ComponentPad*%
%ADD12R,1.700000X1.700000*%
%TD*%
%TA.AperFunction,ComponentPad*%
%ADD13O,1.700000X1.700000*%
%TD*%
%TA.AperFunction,ViaPad*%
%ADD14C,0.600000*%
%TD*%
%TA.AperFunction,Conductor*%
%ADD15C,0.200000*%
%TD*%
G04 APERTURE END LIST*
D10*
%TO.P,U206,1,DIG1_E*%
%TO.N,COM4*%
X78740000Y-106045000D03*
D11*
%TO.P,U206,2,DIG1_D*%
%TO.N,COM3*%
X81280000Y-106045000D03*
%TO.P,U206,3,DIG1_C*%
%TO.N,COM2*%
X83820000Y-106045000D03*
%TO.P,U206,4,DP1*%
%TO.N,COM7*%
X86360000Y-106045000D03*
%TO.P,U206,5,DIG2_E*%
%TO.N,COM4*%
X88900000Y-106045000D03*
%TO.P,U206,6,DIG2_D*%
%TO.N,COM3*%
X91440000Y-106045000D03*
%TO.P,U206,7,DIG2_G*%
%TO.N,COM6*%
X93980000Y-106045000D03*
%TO.P,U206,8,DIG2_C*%
%TO.N,COM2*%
X96520000Y-106045000D03*
%TO.P,U206,9,DP2*%
%TO.N,COM7*%
X99060000Y-106045000D03*
%TO.P,U206,10,DIG2_B*%
%TO.N,COM1*%
X99060000Y-90805000D03*
%TO.P,U206,11,DIG2_A*%
%TO.N,COM0*%
X96520000Y-90805000D03*
%TO.P,U206,12,DIG2_F*%
%TO.N,COM5*%
X93980000Y-90805000D03*
%TO.P,U206,13,DIG2_CA*%
%TO.N,ROW11*%
X91440000Y-90805000D03*
%TO.P,U206,14,DIG1_CA*%
%TO.N,ROW10*%
X88900000Y-90805000D03*
%TO.P,U206,15,DIG1_B*%
%TO.N,COM1*%
X86360000Y-90805000D03*
%TO.P,U206,16,DIG1_A*%
%TO.N,COM0*%
X83820000Y-90805000D03*
%TO.P,U206,17,DIG1_G*%
%TO.N,COM6*%
X81280000Y-90805000D03*
%TO.P,U206,18,DIG1_F*%
%TO.N,COM5*%
X78740000Y-90805000D03*
%TD*%
D10*
%TO.P,U202,1,DIG1_E*%
%TO.N,COM4*%
X78740000Y-67945000D03*
D11*
%TO.P,U202,2,DIG1_D*%
%TO.N,COM3*%
X81280000Y-67945000D03*
%TO.P,U202,3,DIG1_C*%
%TO.N,COM2*%
X83820000Y-67945000D03*
%TO.P,U202,4,DP1*%
%TO.N,COM7*%
X86360000Y-67945000D03*
%TO.P,U202,5,DIG2_E*%
%TO.N,COM4*%
X88900000Y-67945000D03*
%TO.P,U202,6,DIG2_D*%
%TO.N,COM3*%
X91440000Y-67945000D03*
%TO.P,U202,7,DIG2_G*%
%TO.N,COM6*%
X93980000Y-67945000D03*
%TO.P,U202,8,DIG2_C*%
%TO.N,COM2*%
X96520000Y-67945000D03*
%TO.P,U202,9,DP2*%
%TO.N,COM7*%
X99060000Y-67945000D03*
%TO.P,U202,10,DIG2_B*%
%TO.N,COM1*%
X99060000Y-52705000D03*
%TO.P,U202,11,DIG2_A*%
%TO.N,COM0*%
X96520000Y-52705000D03*
%TO.P,U202,12,DIG2_F*%
%TO.N,COM5*%
X93980000Y-52705000D03*
%TO.P,U202,13,DIG2_CA*%
%TO.N,ROW3*%
X91440000Y-52705000D03*
%TO.P,U202,14,DIG1_CA*%
%TO.N,ROW2*%
X88900000Y-52705000D03*
%TO.P,U202,15,DIG1_B*%
%TO.N,COM1*%
X86360000Y-52705000D03*
%TO.P,U202,16,DIG1_A*%
%TO.N,COM0*%
X83820000Y-52705000D03*
%TO.P,U202,17,DIG1_G*%
%TO.N,COM6*%
X81280000Y-52705000D03*
%TO.P,U202,18,DIG1_F*%
%TO.N,COM5*%
X78740000Y-52705000D03*
%TD*%
D10*
%TO.P,U205,1,DIG1_E*%
%TO.N,COM4*%
X53340000Y-106045000D03*
D11*
%TO.P,U205,2,DIG1_D*%
%TO.N,COM3*%
X55880000Y-106045000D03*
%TO.P,U205,3,DIG1_C*%
%TO.N,COM2*%
X58420000Y-106045000D03*
%TO.P,U205,4,DP1*%
%TO.N,COM7*%
X60960000Y-106045000D03*
%TO.P,U205,5,DIG2_E*%
%TO.N,COM4*%
X63500000Y-106045000D03*
%TO.P,U205,6,DIG2_D*%
%TO.N,COM3*%
X66040000Y-106045000D03*
%TO.P,U205,7,DIG2_G*%
%TO.N,COM6*%
X68580000Y-106045000D03*
%TO.P,U205,8,DIG2_C*%
%TO.N,COM2*%
X71120000Y-106045000D03*
%TO.P,U205,9,DP2*%
%TO.N,COM7*%
X73660000Y-106045000D03*
%TO.P,U205,10,DIG2_B*%
%TO.N,COM1*%
X73660000Y-90805000D03*
%TO.P,U205,11,DIG2_A*%
%TO.N,COM0*%
X71120000Y-90805000D03*
%TO.P,U205,12,DIG2_F*%
%TO.N,COM5*%
X68580000Y-90805000D03*
%TO.P,U205,13,DIG2_CA*%
%TO.N,ROW9*%
X66040000Y-90805000D03*
%TO.P,U205,14,DIG1_CA*%
%TO.N,ROW8*%
X63500000Y-90805000D03*
%TO.P,U205,15,DIG1_B*%
%TO.N,COM1*%
X60960000Y-90805000D03*
%TO.P,U205,16,DIG1_A*%
%TO.N,COM0*%
X58420000Y-90805000D03*
%TO.P,U205,17,DIG1_G*%
%TO.N,COM6*%
X55880000Y-90805000D03*
%TO.P,U205,18,DIG1_F*%
%TO.N,COM5*%
X53340000Y-90805000D03*
%TD*%
D10*
%TO.P,U201,1,DIG1_E*%
%TO.N,COM4*%
X53340000Y-67945000D03*
D11*
%TO.P,U201,2,DIG1_D*%
%TO.N,COM3*%
X55880000Y-67945000D03*
%TO.P,U201,3,DIG1_C*%
%TO.N,COM2*%
X58420000Y-67945000D03*
%TO.P,U201,4,DP1*%
%TO.N,COM7*%
X60960000Y-67945000D03*
%TO.P,U201,5,DIG2_E*%
%TO.N,COM4*%
X63500000Y-67945000D03*
%TO.P,U201,6,DIG2_D*%
%TO.N,COM3*%
X66040000Y-67945000D03*
%TO.P,U201,7,DIG2_G*%
%TO.N,COM6*%
X68580000Y-67945000D03*
%TO.P,U201,8,DIG2_C*%
%TO.N,COM2*%
X71120000Y-67945000D03*
%TO.P,U201,9,DP2*%
%TO.N,COM7*%
X73660000Y-67945000D03*
%TO.P,U201,10,DIG2_B*%
%TO.N,COM1*%
X73660000Y-52705000D03*
%TO.P,U201,11,DIG2_A*%
%TO.N,COM0*%
X71120000Y-52705000D03*
%TO.P,U201,12,DIG2_F*%
%TO.N,COM5*%
X68580000Y-52705000D03*
%TO.P,U201,13,DIG2_CA*%
%TO.N,ROW1*%
X66040000Y-52705000D03*
%TO.P,U201,14,DIG1_CA*%
%TO.N,ROW0*%
X63500000Y-52705000D03*
%TO.P,U201,15,DIG1_B*%
%TO.N,COM1*%
X60960000Y-52705000D03*
%TO.P,U201,16,DIG1_A*%
%TO.N,COM0*%
X58420000Y-52705000D03*
%TO.P,U201,17,DIG1_G*%
%TO.N,COM6*%
X55880000Y-52705000D03*
%TO.P,U201,18,DIG1_F*%
%TO.N,COM5*%
X53340000Y-52705000D03*
%TD*%
D10*
%TO.P,U208,1,DIG1_E*%
%TO.N,COM4*%
X78740000Y-125095000D03*
D11*
%TO.P,U208,2,DIG1_D*%
%TO.N,COM3*%
X81280000Y-125095000D03*
%TO.P,U208,3,DIG1_C*%
%TO.N,COM2*%
X83820000Y-125095000D03*
%TO.P,U208,4,DP1*%
%TO.N,COM7*%
X86360000Y-125095000D03*
%TO.P,U208,5,DIG2_E*%
%TO.N,COM4*%
X88900000Y-125095000D03*
%TO.P,U208,6,DIG2_D*%
%TO.N,COM3*%
X91440000Y-125095000D03*
%TO.P,U208,7,DIG2_G*%
%TO.N,COM6*%
X93980000Y-125095000D03*
%TO.P,U208,8,DIG2_C*%
%TO.N,COM2*%
X96520000Y-125095000D03*
%TO.P,U208,9,DP2*%
%TO.N,COM7*%
X99060000Y-125095000D03*
%TO.P,U208,10,DIG2_B*%
%TO.N,COM1*%
X99060000Y-109855000D03*
%TO.P,U208,11,DIG2_A*%
%TO.N,COM0*%
X96520000Y-109855000D03*
%TO.P,U208,12,DIG2_F*%
%TO.N,COM5*%
X93980000Y-109855000D03*
%TO.P,U208,13,DIG2_CA*%
%TO.N,ROW15*%
X91440000Y-109855000D03*
%TO.P,U208,14,DIG1_CA*%
%TO.N,ROW14*%
X88900000Y-109855000D03*
%TO.P,U208,15,DIG1_B*%
%TO.N,COM1*%
X86360000Y-109855000D03*
%TO.P,U208,16,DIG1_A*%
%TO.N,COM0*%
X83820000Y-109855000D03*
%TO.P,U208,17,DIG1_G*%
%TO.N,COM6*%
X81280000Y-109855000D03*
%TO.P,U208,18,DIG1_F*%
%TO.N,COM5*%
X78740000Y-109855000D03*
%TD*%
D10*
%TO.P,U204,1,DIG1_E*%
%TO.N,COM4*%
X78740000Y-86995000D03*
D11*
%TO.P,U204,2,DIG1_D*%
%TO.N,COM3*%
X81280000Y-86995000D03*
%TO.P,U204,3,DIG1_C*%
%TO.N,COM2*%
X83820000Y-86995000D03*
%TO.P,U204,4,DP1*%
%TO.N,COM7*%
X86360000Y-86995000D03*
%TO.P,U204,5,DIG2_E*%
%TO.N,COM4*%
X88900000Y-86995000D03*
%TO.P,U204,6,DIG2_D*%
%TO.N,COM3*%
X91440000Y-86995000D03*
%TO.P,U204,7,DIG2_G*%
%TO.N,COM6*%
X93980000Y-86995000D03*
%TO.P,U204,8,DIG2_C*%
%TO.N,COM2*%
X96520000Y-86995000D03*
%TO.P,U204,9,DP2*%
%TO.N,COM7*%
X99060000Y-86995000D03*
%TO.P,U204,10,DIG2_B*%
%TO.N,COM1*%
X99060000Y-71755000D03*
%TO.P,U204,11,DIG2_A*%
%TO.N,COM0*%
X96520000Y-71755000D03*
%TO.P,U204,12,DIG2_F*%
%TO.N,COM5*%
X93980000Y-71755000D03*
%TO.P,U204,13,DIG2_CA*%
%TO.N,ROW7*%
X91440000Y-71755000D03*
%TO.P,U204,14,DIG1_CA*%
%TO.N,ROW6*%
X88900000Y-71755000D03*
%TO.P,U204,15,DIG1_B*%
%TO.N,COM1*%
X86360000Y-71755000D03*
%TO.P,U204,16,DIG1_A*%
%TO.N,COM0*%
X83820000Y-71755000D03*
%TO.P,U204,17,DIG1_G*%
%TO.N,COM6*%
X81280000Y-71755000D03*
%TO.P,U204,18,DIG1_F*%
%TO.N,COM5*%
X78740000Y-71755000D03*
%TD*%
D10*
%TO.P,U203,1,DIG1_E*%
%TO.N,COM4*%
X53340000Y-86995000D03*
D11*
%TO.P,U203,2,DIG1_D*%
%TO.N,COM3*%
X55880000Y-86995000D03*
%TO.P,U203,3,DIG1_C*%
%TO.N,COM2*%
X58420000Y-86995000D03*
%TO.P,U203,4,DP1*%
%TO.N,COM7*%
X60960000Y-86995000D03*
%TO.P,U203,5,DIG2_E*%
%TO.N,COM4*%
X63500000Y-86995000D03*
%TO.P,U203,6,DIG2_D*%
%TO.N,COM3*%
X66040000Y-86995000D03*
%TO.P,U203,7,DIG2_G*%
%TO.N,COM6*%
X68580000Y-86995000D03*
%TO.P,U203,8,DIG2_C*%
%TO.N,COM2*%
X71120000Y-86995000D03*
%TO.P,U203,9,DP2*%
%TO.N,COM7*%
X73660000Y-86995000D03*
%TO.P,U203,10,DIG2_B*%
%TO.N,COM1*%
X73660000Y-71755000D03*
%TO.P,U203,11,DIG2_A*%
%TO.N,COM0*%
X71120000Y-71755000D03*
%TO.P,U203,12,DIG2_F*%
%TO.N,COM5*%
X68580000Y-71755000D03*
%TO.P,U203,13,DIG2_CA*%
%TO.N,ROW5*%
X66040000Y-71755000D03*
%TO.P,U203,14,DIG1_CA*%
%TO.N,ROW4*%
X63500000Y-71755000D03*
%TO.P,U203,15,DIG1_B*%
%TO.N,COM1*%
X60960000Y-71755000D03*
%TO.P,U203,16,DIG1_A*%
%TO.N,COM0*%
X58420000Y-71755000D03*
%TO.P,U203,17,DIG1_G*%
%TO.N,COM6*%
X55880000Y-71755000D03*
%TO.P,U203,18,DIG1_F*%
%TO.N,COM5*%
X53340000Y-71755000D03*
%TD*%
D10*
%TO.P,U207,1,DIG1_E*%
%TO.N,COM4*%
X53340000Y-125095000D03*
D11*
%TO.P,U207,2,DIG1_D*%
%TO.N,COM3*%
X55880000Y-125095000D03*
%TO.P,U207,3,DIG1_C*%
%TO.N,COM2*%
X58420000Y-125095000D03*
%TO.P,U207,4,DP1*%
%TO.N,COM7*%
X60960000Y-125095000D03*
%TO.P,U207,5,DIG2_E*%
%TO.N,COM4*%
X63500000Y-125095000D03*
%TO.P,U207,6,DIG2_D*%
%TO.N,COM3*%
X66040000Y-125095000D03*
%TO.P,U207,7,DIG2_G*%
%TO.N,COM6*%
X68580000Y-125095000D03*
%TO.P,U207,8,DIG2_C*%
%TO.N,COM2*%
X71120000Y-125095000D03*
%TO.P,U207,9,DP2*%
%TO.N,COM7*%
X73660000Y-125095000D03*
%TO.P,U207,10,DIG2_B*%
%TO.N,COM1*%
X73660000Y-109855000D03*
%TO.P,U207,11,DIG2_A*%
%TO.N,COM0*%
X71120000Y-109855000D03*
%TO.P,U207,12,DIG2_F*%
%TO.N,COM5*%
X68580000Y-109855000D03*
%TO.P,U207,13,DIG2_CA*%
%TO.N,ROW13*%
X66040000Y-109855000D03*
%TO.P,U207,14,DIG1_CA*%
%TO.N,ROW12*%
X63500000Y-109855000D03*
%TO.P,U207,15,DIG1_B*%
%TO.N,COM1*%
X60960000Y-109855000D03*
%TO.P,U207,16,DIG1_A*%
%TO.N,COM0*%
X58420000Y-109855000D03*
%TO.P,U207,17,DIG1_G*%
%TO.N,COM6*%
X55880000Y-109855000D03*
%TO.P,U207,18,DIG1_F*%
%TO.N,COM5*%
X53340000Y-109855000D03*
%TD*%
D12*
%TO.P,J203,1,Pin_1*%
%TO.N,ROW8*%
X73660000Y-116400000D03*
D13*
%TO.P,J203,2,Pin_2*%
%TO.N,ROW9*%
X73660000Y-118940000D03*
%TO.P,J203,3,Pin_3*%
%TO.N,ROW10*%
X76200000Y-116400000D03*
%TO.P,J203,4,Pin_4*%
%TO.N,ROW11*%
X76200000Y-118940000D03*
%TO.P,J203,5,Pin_5*%
%TO.N,ROW12*%
X78740000Y-116400000D03*
%TO.P,J203,6,Pin_6*%
%TO.N,ROW13*%
X78740000Y-118940000D03*
%TO.P,J203,7,Pin_7*%
%TO.N,ROW14*%
X81280000Y-116400000D03*
%TO.P,J203,8,Pin_8*%
%TO.N,ROW15*%
X81280000Y-118940000D03*
%TD*%
D12*
%TO.P,J202,1,Pin_1*%
%TO.N,ROW0*%
X58970000Y-76400000D03*
D13*
%TO.P,J202,2,Pin_2*%
%TO.N,ROW1*%
X58970000Y-78940000D03*
%TO.P,J202,3,Pin_3*%
%TO.N,ROW2*%
X61510000Y-76400000D03*
%TO.P,J202,4,Pin_4*%
%TO.N,ROW3*%
X61510000Y-78940000D03*
%TO.P,J202,5,Pin_5*%
%TO.N,ROW4*%
X64050000Y-76400000D03*
%TO.P,J202,6,Pin_6*%
%TO.N,ROW5*%
X64050000Y-78940000D03*
%TO.P,J202,7,Pin_7*%
%TO.N,ROW6*%
X66590000Y-76400000D03*
%TO.P,J202,8,Pin_8*%
%TO.N,ROW7*%
X66590000Y-78940000D03*
%TD*%
D12*
%TO.P,J201,1,Pin_1*%
%TO.N,COM0*%
X59050000Y-58900000D03*
D13*
%TO.P,J201,2,Pin_2*%
%TO.N,COM1*%
X59050000Y-61440000D03*
%TO.P,J201,3,Pin_3*%
%TO.N,COM2*%
X61590000Y-58900000D03*
%TO.P,J201,4,Pin_4*%
%TO.N,COM3*%
X61590000Y-61440000D03*
%TO.P,J201,5,Pin_5*%
%TO.N,COM4*%
X64130000Y-58900000D03*
%TO.P,J201,6,Pin_6*%
%TO.N,COM5*%
X64130000Y-61440000D03*
%TO.P,J201,7,Pin_7*%
%TO.N,COM6*%
X66670000Y-58900000D03*
%TO.P,J201,8,Pin_8*%
%TO.N,COM7*%
X66670000Y-61440000D03*
%TD*%
D14*
%TO.N,COM5*%
X65280000Y-55900000D03*
%TO.N,COM7*%
X97050000Y-104400000D03*
X61550000Y-63150000D03*
X73550000Y-63900000D03*
X86050000Y-82900000D03*
X60800000Y-83150000D03*
X73550000Y-82900000D03*
%TO.N,COM6*%
X69630000Y-111900000D03*
X56450000Y-56650000D03*
X58550000Y-104400000D03*
X80400000Y-107444429D03*
X66925000Y-103775000D03*
%TO.N,COM3*%
X92330000Y-99650000D03*
X81300000Y-99900000D03*
X56050000Y-63150000D03*
%TO.N,COM2*%
X96300000Y-84400000D03*
X96300000Y-102650000D03*
X58300000Y-64150000D03*
X71050000Y-84150000D03*
X83800000Y-102400000D03*
X58050000Y-60400000D03*
X71300000Y-64150000D03*
X71300000Y-102400000D03*
X83800000Y-84400000D03*
%TO.N,ROW0*%
X61550000Y-54655000D03*
X57530000Y-55330000D03*
%TO.N,ROW2*%
X88800000Y-64150000D03*
X62300000Y-64900000D03*
%TO.N,ROW3*%
X70050000Y-57400000D03*
X91440000Y-56260000D03*
%TO.N,ROW13*%
X77550000Y-121400000D03*
X66050000Y-121400000D03*
%TO.N,ROW10*%
X88300000Y-95400000D03*
X76300000Y-95900000D03*
%TO.N,ROW15*%
X91300000Y-118900000D03*
%TO.N,ROW9*%
X68550000Y-118940000D03*
%TO.N,ROW12*%
X78800000Y-113400000D03*
X63550000Y-113650000D03*
%TO.N,ROW14*%
X88550000Y-116400000D03*
%TO.N,ROW8*%
X62050000Y-116400000D03*
%TO.N,ROW11*%
X90390000Y-119900000D03*
%TD*%
D15*
%TO.N,COM5*%
X72610000Y-91289314D02*
X72610000Y-90340000D01*
X79790000Y-108805000D02*
X92930000Y-108805000D01*
X78740000Y-109855000D02*
X79790000Y-108805000D01*
X78740000Y-90805000D02*
X79790000Y-89755000D01*
X72044314Y-91855000D02*
X72610000Y-91289314D01*
X68580000Y-90805000D02*
X69630000Y-91855000D01*
X65250000Y-55930000D02*
X65280000Y-55900000D01*
X82330000Y-90370075D02*
X82330000Y-90930000D01*
X69630000Y-91855000D02*
X72044314Y-91855000D01*
X92930000Y-108805000D02*
X93980000Y-109855000D01*
X56565000Y-55930000D02*
X65250000Y-55930000D01*
X92930000Y-91855000D02*
X93980000Y-90805000D01*
X83255000Y-91855000D02*
X92930000Y-91855000D01*
X82330000Y-90930000D02*
X83255000Y-91855000D01*
X79790000Y-89755000D02*
X81714925Y-89755000D01*
X72610000Y-90340000D02*
X73195000Y-89755000D01*
X53340000Y-52705000D02*
X56565000Y-55930000D01*
X73195000Y-89755000D02*
X77690000Y-89755000D01*
X81714925Y-89755000D02*
X82330000Y-90370075D01*
X77690000Y-89755000D02*
X78740000Y-90805000D01*
%TO.N,COM7*%
X73660000Y-67945000D02*
X74710000Y-66895000D01*
X87410000Y-66895000D02*
X98010000Y-66895000D01*
X73550000Y-82900000D02*
X86050000Y-82900000D01*
X64960000Y-63150000D02*
X63201471Y-63150000D01*
X86360000Y-106045000D02*
X85310000Y-104995000D01*
X73550000Y-82900000D02*
X61050000Y-82900000D01*
X88005000Y-104400000D02*
X97050000Y-104400000D01*
X64960000Y-63150000D02*
X66670000Y-61440000D01*
X85310000Y-66895000D02*
X86360000Y-67945000D01*
X72605000Y-107095000D02*
X62010000Y-107095000D01*
X72800000Y-63150000D02*
X73550000Y-63900000D01*
X85310000Y-104995000D02*
X74710000Y-104995000D01*
X61550000Y-63150000D02*
X64960000Y-63150000D01*
X97050000Y-104400000D02*
X97415000Y-104400000D01*
X73655000Y-106045000D02*
X72605000Y-107095000D01*
X98010000Y-66895000D02*
X99060000Y-67945000D01*
X62010000Y-107095000D02*
X60960000Y-106045000D01*
X61050000Y-82900000D02*
X60800000Y-83150000D01*
X97415000Y-104400000D02*
X99060000Y-106045000D01*
X86360000Y-106045000D02*
X88005000Y-104400000D01*
X73660000Y-106045000D02*
X73655000Y-106045000D01*
X74710000Y-104995000D02*
X73660000Y-106045000D01*
X86360000Y-67945000D02*
X87410000Y-66895000D01*
X74710000Y-66895000D02*
X85310000Y-66895000D01*
X63201471Y-63150000D02*
X72800000Y-63150000D01*
%TO.N,COM6*%
X66300000Y-104400000D02*
X66925000Y-103775000D01*
X66925000Y-104390000D02*
X68580000Y-106045000D01*
X64420000Y-56650000D02*
X56450000Y-56650000D01*
X70940000Y-70305000D02*
X68580000Y-67945000D01*
X58550000Y-104400000D02*
X66300000Y-104400000D01*
X93980000Y-67945000D02*
X91220000Y-70705000D01*
X79830000Y-70305000D02*
X70940000Y-70305000D01*
X93980000Y-106045000D02*
X92580571Y-107444429D01*
X66220000Y-70305000D02*
X57330000Y-70305000D01*
X66925000Y-103775000D02*
X66925000Y-104390000D01*
X66670000Y-58900000D02*
X64420000Y-56650000D01*
X57330000Y-70305000D02*
X55880000Y-71755000D01*
X79235000Y-111900000D02*
X69630000Y-111900000D01*
X81280000Y-71755000D02*
X79830000Y-70305000D01*
X68580000Y-67945000D02*
X66220000Y-70305000D01*
X91220000Y-70705000D02*
X82330000Y-70705000D01*
X81280000Y-109855000D02*
X79235000Y-111900000D01*
X92580571Y-107444429D02*
X80400000Y-107444429D01*
X82330000Y-70705000D02*
X81280000Y-71755000D01*
%TO.N,COM3*%
X90390000Y-85945000D02*
X91440000Y-86995000D01*
X82330000Y-85945000D02*
X90390000Y-85945000D01*
X56050000Y-63150000D02*
X59880000Y-63150000D01*
X64990000Y-68995000D02*
X56930000Y-68995000D01*
X66040000Y-67945000D02*
X64990000Y-68995000D01*
X81550000Y-99650000D02*
X92330000Y-99650000D01*
X81280000Y-86995000D02*
X82330000Y-85945000D01*
X81300000Y-99900000D02*
X81550000Y-99650000D01*
X67090000Y-85945000D02*
X80230000Y-85945000D01*
X59880000Y-63150000D02*
X61590000Y-61440000D01*
X80230000Y-85945000D02*
X81280000Y-86995000D01*
X66040000Y-86995000D02*
X67090000Y-85945000D01*
X56930000Y-68995000D02*
X55880000Y-67945000D01*
%TO.N,COM0*%
X71120000Y-71755000D02*
X72170000Y-70705000D01*
X72170000Y-53755000D02*
X82770000Y-53755000D01*
X70070000Y-89755000D02*
X71120000Y-90805000D01*
X95470000Y-110905000D02*
X84870000Y-110905000D01*
X72170000Y-70705000D02*
X76205075Y-70705000D01*
X70070000Y-110905000D02*
X71120000Y-109855000D01*
X70070000Y-53755000D02*
X71120000Y-52705000D01*
X58420000Y-90805000D02*
X59470000Y-89755000D01*
X59470000Y-89755000D02*
X70070000Y-89755000D01*
X78400075Y-72900000D02*
X82675000Y-72900000D01*
X71120000Y-52705000D02*
X72170000Y-53755000D01*
X59470000Y-70705000D02*
X70070000Y-70705000D01*
X96520000Y-109855000D02*
X95470000Y-110905000D01*
X76205075Y-70705000D02*
X78400075Y-72900000D01*
X70070000Y-70705000D02*
X71120000Y-71755000D01*
X58420000Y-71755000D02*
X59470000Y-70705000D01*
X58420000Y-52705000D02*
X59470000Y-53755000D01*
X82675000Y-72900000D02*
X83820000Y-71755000D01*
X59470000Y-53755000D02*
X70070000Y-53755000D01*
X82770000Y-53755000D02*
X83820000Y-52705000D01*
X58420000Y-58270000D02*
X59050000Y-58900000D01*
X59470000Y-110905000D02*
X70070000Y-110905000D01*
X84870000Y-110905000D02*
X83820000Y-109855000D01*
X58420000Y-109855000D02*
X59470000Y-110905000D01*
%TO.N,COM4*%
X63500000Y-125095000D02*
X62450000Y-126145000D01*
X54390000Y-88045000D02*
X53340000Y-86995000D01*
X87850000Y-88045000D02*
X88900000Y-86995000D01*
X77435000Y-126400000D02*
X78740000Y-125095000D01*
X54390000Y-66895000D02*
X62450000Y-66895000D01*
X62450000Y-88045000D02*
X54390000Y-88045000D01*
X63500000Y-125095000D02*
X64805000Y-126400000D01*
X62450000Y-126145000D02*
X54390000Y-126145000D01*
X79790000Y-88045000D02*
X87850000Y-88045000D01*
X87850000Y-126145000D02*
X88900000Y-125095000D01*
X64805000Y-126400000D02*
X77435000Y-126400000D01*
X77690000Y-88045000D02*
X64550000Y-88045000D01*
X78740000Y-86995000D02*
X79790000Y-88045000D01*
X79790000Y-126145000D02*
X87850000Y-126145000D01*
X54390000Y-126145000D02*
X53340000Y-125095000D01*
X63500000Y-86995000D02*
X62450000Y-88045000D01*
X78740000Y-125095000D02*
X79790000Y-126145000D01*
X78740000Y-86995000D02*
X77690000Y-88045000D01*
X64550000Y-88045000D02*
X63500000Y-86995000D01*
X62450000Y-66895000D02*
X63500000Y-67945000D01*
X53340000Y-67945000D02*
X54390000Y-66895000D01*
%TO.N,COM2*%
X84050000Y-102650000D02*
X83800000Y-102400000D01*
X58300000Y-64150000D02*
X71300000Y-64150000D01*
X58300000Y-60400000D02*
X58410000Y-60290000D01*
X58420000Y-86995000D02*
X61265000Y-84150000D01*
X83800000Y-84400000D02*
X96300000Y-84400000D01*
X60200000Y-60290000D02*
X61590000Y-58900000D01*
X96300000Y-102650000D02*
X84050000Y-102650000D01*
X58050000Y-60400000D02*
X58300000Y-60400000D01*
X82770000Y-68995000D02*
X72170000Y-68995000D01*
X83550000Y-84150000D02*
X83800000Y-84400000D01*
X72170000Y-68995000D02*
X71120000Y-67945000D01*
X83800000Y-102400000D02*
X71300000Y-102400000D01*
X71050000Y-84150000D02*
X83550000Y-84150000D01*
X61265000Y-84150000D02*
X71050000Y-84150000D01*
X58410000Y-60290000D02*
X60200000Y-60290000D01*
X83820000Y-67945000D02*
X82770000Y-68995000D01*
%TO.N,COM1*%
X62010000Y-72805000D02*
X72610000Y-72805000D01*
X72065000Y-92400000D02*
X73660000Y-90805000D01*
X60960000Y-90805000D02*
X62555000Y-92400000D01*
X72610000Y-108805000D02*
X73660000Y-109855000D01*
X72610000Y-72805000D02*
X73660000Y-71755000D01*
X98010000Y-51655000D02*
X99060000Y-52705000D01*
X60960000Y-52705000D02*
X62010000Y-51655000D01*
X87410000Y-51655000D02*
X98010000Y-51655000D01*
X62010000Y-108805000D02*
X72610000Y-108805000D01*
X60960000Y-71755000D02*
X62010000Y-72805000D01*
X62010000Y-51655000D02*
X72610000Y-51655000D01*
X85310000Y-51655000D02*
X86360000Y-52705000D01*
X73660000Y-52705000D02*
X74710000Y-51655000D01*
X74710000Y-51655000D02*
X85310000Y-51655000D01*
X62555000Y-92400000D02*
X72065000Y-92400000D01*
X72610000Y-51655000D02*
X73660000Y-52705000D01*
X60960000Y-109855000D02*
X62010000Y-108805000D01*
X86360000Y-52705000D02*
X87410000Y-51655000D01*
%TO.N,ROW7*%
X84255000Y-78940000D02*
X91440000Y-71755000D01*
X66590000Y-78940000D02*
X84255000Y-78940000D01*
%TO.N,ROW6*%
X84255000Y-76400000D02*
X88900000Y-71755000D01*
X66590000Y-76400000D02*
X84255000Y-76400000D01*
%TO.N,ROW0*%
X61055000Y-55150000D02*
X57710000Y-55150000D01*
X61550000Y-54655000D02*
X61055000Y-55150000D01*
X57710000Y-55150000D02*
X57530000Y-55330000D01*
%TO.N,ROW2*%
X62300000Y-64900000D02*
X88050000Y-64900000D01*
X88050000Y-64900000D02*
X88800000Y-64150000D01*
%TO.N,ROW3*%
X70050000Y-57400000D02*
X90300000Y-57400000D01*
X90300000Y-57400000D02*
X91440000Y-56260000D01*
%TO.N,ROW13*%
X66050000Y-121400000D02*
X77550000Y-121400000D01*
%TO.N,ROW10*%
X76300000Y-95900000D02*
X87800000Y-95900000D01*
X87800000Y-95900000D02*
X88300000Y-95400000D01*
%TO.N,ROW15*%
X81280000Y-118940000D02*
X91260000Y-118940000D01*
X91260000Y-118940000D02*
X91300000Y-118900000D01*
%TO.N,ROW9*%
X73660000Y-118940000D02*
X68550000Y-118940000D01*
%TO.N,ROW12*%
X63800000Y-113400000D02*
X63550000Y-113650000D01*
X78800000Y-113400000D02*
X63800000Y-113400000D01*
%TO.N,ROW14*%
X81280000Y-116400000D02*
X88550000Y-116400000D01*
%TO.N,ROW8*%
X62050000Y-116400000D02*
X73660000Y-116400000D01*
%TO.N,ROW11*%
X90390000Y-119900000D02*
X90200000Y-120090000D01*
X90200000Y-120090000D02*
X77350000Y-120090000D01*
X77350000Y-120090000D02*
X76200000Y-118940000D01*
%TD*%
M02*
