M48
; DRILL file {KiCad 8.0.8} date 2025-07-11T15:40:09+0900
; FORMAT={-:-/ absolute / inch / decimal}
; #@! TF.CreationDate,2025-07-11T15:40:09+09:00
; #@! TF.GenerationSoftware,Kicad,Pcbnew,8.0.8
; #@! TF.FileFunction,Plated,1,2,PTH
FMAT,2
INCH
; #@! TA.AperFunction,Plated,PTH,ViaDrill
T1C0.0118
; #@! TA.AperFunction,Plated,PTH,ComponentDrill
T2C0.0394
%
G90
G05
T1
X2.2067Y-2.4862
X2.2224Y-2.2303
X2.265Y-2.1783
X2.2854Y-2.378
X2.2953Y-2.5256
X2.3051Y-4.1102
X2.3937Y-3.2736
X2.4232Y-2.1518
X2.4232Y-2.4862
X2.4429Y-4.5827
X2.4528Y-2.5551
X2.502Y-4.4744
X2.5701Y-2.2008
X2.6004Y-4.7795
X2.6348Y-4.0856
X2.6988Y-4.6827
X2.7413Y-4.4055
X2.7579Y-2.2598
X2.7972Y-3.313
X2.8071Y-2.5256
X2.8071Y-4.0315
X2.8957Y-2.5157
X2.8957Y-3.2638
X3.0039Y-3.7756
X3.0531Y-4.7795
X3.1024Y-4.4646
X3.1654Y-4.2301
X3.2008Y-3.9331
X3.2992Y-3.3228
X3.2992Y-4.0315
X3.3878Y-3.2638
X3.4764Y-3.7559
X3.4862Y-4.5827
X3.4961Y-2.5256
X3.5587Y-4.7205
X3.5945Y-4.6811
X3.6Y-2.215
X3.635Y-3.9232
X3.7913Y-3.3228
X3.7913Y-4.0413
X3.8209Y-4.1102
T2
X2.1Y-2.075
X2.1Y-2.675
X2.1Y-2.825
X2.1Y-3.425
X2.1Y-3.575
X2.1Y-4.175
X2.1Y-4.325
X2.1Y-4.925
X2.2Y-2.075
X2.2Y-2.675
X2.2Y-2.825
X2.2Y-3.425
X2.2Y-3.575
X2.2Y-4.175
X2.2Y-4.325
X2.2Y-4.925
X2.3Y-2.075
X2.3Y-2.675
X2.3Y-2.825
X2.3Y-3.425
X2.3Y-3.575
X2.3Y-4.175
X2.3Y-4.325
X2.3Y-4.925
X2.3217Y-3.0079
X2.3217Y-3.1079
X2.3248Y-2.3189
X2.3248Y-2.4189
X2.4Y-2.075
X2.4Y-2.675
X2.4Y-2.825
X2.4Y-3.425
X2.4Y-3.575
X2.4Y-4.175
X2.4Y-4.325
X2.4Y-4.925
X2.4217Y-3.0079
X2.4217Y-3.1079
X2.4248Y-2.3189
X2.4248Y-2.4189
X2.5Y-2.075
X2.5Y-2.675
X2.5Y-2.825
X2.5Y-3.425
X2.5Y-3.575
X2.5Y-4.175
X2.5Y-4.325
X2.5Y-4.925
X2.5217Y-3.0079
X2.5217Y-3.1079
X2.5248Y-2.3189
X2.5248Y-2.4189
X2.6Y-2.075
X2.6Y-2.675
X2.6Y-2.825
X2.6Y-3.425
X2.6Y-3.575
X2.6Y-4.175
X2.6Y-4.325
X2.6Y-4.925
X2.6217Y-3.0079
X2.6217Y-3.1079
X2.6248Y-2.3189
X2.6248Y-2.4189
X2.7Y-2.075
X2.7Y-2.675
X2.7Y-2.825
X2.7Y-3.425
X2.7Y-3.575
X2.7Y-4.175
X2.7Y-4.325
X2.7Y-4.925
X2.8Y-2.075
X2.8Y-2.675
X2.8Y-2.825
X2.8Y-3.425
X2.8Y-3.575
X2.8Y-4.175
X2.8Y-4.325
X2.8Y-4.925
X2.9Y-2.075
X2.9Y-2.675
X2.9Y-2.825
X2.9Y-3.425
X2.9Y-3.575
X2.9Y-4.175
X2.9Y-4.325
X2.9Y-4.5827
X2.9Y-4.6827
X2.9Y-4.925
X3.0Y-4.5827
X3.0Y-4.6827
X3.1Y-2.075
X3.1Y-2.675
X3.1Y-2.825
X3.1Y-3.425
X3.1Y-3.575
X3.1Y-4.175
X3.1Y-4.325
X3.1Y-4.5827
X3.1Y-4.6827
X3.1Y-4.925
X3.2Y-2.075
X3.2Y-2.675
X3.2Y-2.825
X3.2Y-3.425
X3.2Y-3.575
X3.2Y-4.175
X3.2Y-4.325
X3.2Y-4.5827
X3.2Y-4.6827
X3.2Y-4.925
X3.3Y-2.075
X3.3Y-2.675
X3.3Y-2.825
X3.3Y-3.425
X3.3Y-3.575
X3.3Y-4.175
X3.3Y-4.325
X3.3Y-4.925
X3.4Y-2.075
X3.4Y-2.675
X3.4Y-2.825
X3.4Y-3.425
X3.4Y-3.575
X3.4Y-4.175
X3.4Y-4.325
X3.4Y-4.925
X3.5Y-2.075
X3.5Y-2.675
X3.5Y-2.825
X3.5Y-3.425
X3.5Y-3.575
X3.5Y-4.175
X3.5Y-4.325
X3.5Y-4.925
X3.6Y-2.075
X3.6Y-2.675
X3.6Y-2.825
X3.6Y-3.425
X3.6Y-3.575
X3.6Y-4.175
X3.6Y-4.325
X3.6Y-4.925
X3.7Y-2.075
X3.7Y-2.675
X3.7Y-2.825
X3.7Y-3.425
X3.7Y-3.575
X3.7Y-4.175
X3.7Y-4.325
X3.7Y-4.925
X3.8Y-2.075
X3.8Y-2.675
X3.8Y-2.825
X3.8Y-3.425
X3.8Y-3.575
X3.8Y-4.175
X3.8Y-4.325
X3.8Y-4.925
X3.9Y-2.075
X3.9Y-2.675
X3.9Y-2.825
X3.9Y-3.425
X3.9Y-3.575
X3.9Y-4.175
X3.9Y-4.325
X3.9Y-4.925
M30
