%TF.GenerationSoftware,KiCad,Pcbnew,8.0.8*%
%TF.CreationDate,2025-08-11T02:01:29+09:00*%
%TF.ProjectId,20250811-7seg-led-panel-power,32303235-3038-4313-912d-377365672d6c,rev?*%
%TF.SameCoordinates,Original*%
%TF.FileFunction,Copper,L2,Bot*%
%TF.FilePolarity,Positive*%
%FSLAX46Y46*%
G04 Gerber Fmt 4.6, Leading zero omitted, Abs format (unit mm)*
G04 Created by KiCad (PCBNEW 8.0.8) date 2025-08-11 02:01:29*
%MOMM*%
%LPD*%
G01*
G04 APERTURE LIST*
G04 Aperture macros list*
%AMRoundRect*
0 Rectangle with rounded corners*
0 $1 Rounding radius*
0 $2 $3 $4 $5 $6 $7 $8 $9 X,Y pos of 4 corners*
0 Add a 4 corners polygon primitive as box body*
4,1,4,$2,$3,$4,$5,$6,$7,$8,$9,$2,$3,0*
0 Add four circle primitives for the rounded corners*
1,1,$1+$1,$2,$3*
1,1,$1+$1,$4,$5*
1,1,$1+$1,$6,$7*
1,1,$1+$1,$8,$9*
0 Add four rect primitives between the rounded corners*
20,1,$1+$1,$2,$3,$4,$5,0*
20,1,$1+$1,$4,$5,$6,$7,0*
20,1,$1+$1,$6,$7,$8,$9,0*
20,1,$1+$1,$8,$9,$2,$3,0*%
%AMFreePoly0*
4,1,6,1.000000,0.000000,0.500000,-0.750000,-0.500000,-0.750000,-0.500000,0.750000,0.500000,0.750000,1.000000,0.000000,1.000000,0.000000,$1*%
%AMFreePoly1*
4,1,6,0.500000,-0.750000,-0.650000,-0.750000,-0.150000,0.000000,-0.650000,0.750000,0.500000,0.750000,0.500000,-0.750000,0.500000,-0.750000,$1*%
G04 Aperture macros list end*
%TA.AperFunction,HeatsinkPad*%
%ADD10O,1.000000X1.700000*%
%TD*%
%TA.AperFunction,SMDPad,CuDef*%
%ADD11RoundRect,0.225000X0.225000X0.575000X-0.225000X0.575000X-0.225000X-0.575000X0.225000X-0.575000X0*%
%TD*%
%TA.AperFunction,SMDPad,CuDef*%
%ADD12RoundRect,0.200000X0.200000X0.600000X-0.200000X0.600000X-0.200000X-0.600000X0.200000X-0.600000X0*%
%TD*%
%TA.AperFunction,SMDPad,CuDef*%
%ADD13RoundRect,0.175000X0.175000X0.625000X-0.175000X0.625000X-0.175000X-0.625000X0.175000X-0.625000X0*%
%TD*%
%TA.AperFunction,SMDPad,CuDef*%
%ADD14RoundRect,0.162500X-0.162500X0.837500X-0.162500X-0.837500X0.162500X-0.837500X0.162500X0.837500X0*%
%TD*%
%TA.AperFunction,SMDPad,CuDef*%
%ADD15RoundRect,0.250000X0.400000X1.075000X-0.400000X1.075000X-0.400000X-1.075000X0.400000X-1.075000X0*%
%TD*%
%TA.AperFunction,SMDPad,CuDef*%
%ADD16RoundRect,0.250000X-0.350000X-0.450000X0.350000X-0.450000X0.350000X0.450000X-0.350000X0.450000X0*%
%TD*%
%TA.AperFunction,SMDPad,CuDef*%
%ADD17RoundRect,0.250001X2.474999X-0.799999X2.474999X0.799999X-2.474999X0.799999X-2.474999X-0.799999X0*%
%TD*%
%TA.AperFunction,SMDPad,CuDef*%
%ADD18RoundRect,0.250000X-0.337500X-0.475000X0.337500X-0.475000X0.337500X0.475000X-0.337500X0.475000X0*%
%TD*%
%TA.AperFunction,ComponentPad*%
%ADD19R,1.905000X2.000000*%
%TD*%
%TA.AperFunction,ComponentPad*%
%ADD20O,1.905000X2.000000*%
%TD*%
%TA.AperFunction,ComponentPad*%
%ADD21C,5.600000*%
%TD*%
%TA.AperFunction,SMDPad,CuDef*%
%ADD22RoundRect,0.250000X0.337500X0.475000X-0.337500X0.475000X-0.337500X-0.475000X0.337500X-0.475000X0*%
%TD*%
%TA.AperFunction,SMDPad,CuDef*%
%ADD23FreePoly0,180.000000*%
%TD*%
%TA.AperFunction,SMDPad,CuDef*%
%ADD24FreePoly1,180.000000*%
%TD*%
%TA.AperFunction,SMDPad,CuDef*%
%ADD25RoundRect,0.250000X-0.412500X-0.925000X0.412500X-0.925000X0.412500X0.925000X-0.412500X0.925000X0*%
%TD*%
%TA.AperFunction,SMDPad,CuDef*%
%ADD26RoundRect,0.250000X0.412500X0.925000X-0.412500X0.925000X-0.412500X-0.925000X0.412500X-0.925000X0*%
%TD*%
%TA.AperFunction,ViaPad*%
%ADD27C,0.800000*%
%TD*%
%TA.AperFunction,ViaPad*%
%ADD28C,2.000000*%
%TD*%
%TA.AperFunction,ViaPad*%
%ADD29C,0.600000*%
%TD*%
%TA.AperFunction,Conductor*%
%ADD30C,0.800000*%
%TD*%
%TA.AperFunction,Conductor*%
%ADD31C,2.000000*%
%TD*%
%TA.AperFunction,Conductor*%
%ADD32C,1.600000*%
%TD*%
%TA.AperFunction,Conductor*%
%ADD33C,1.000000*%
%TD*%
%TA.AperFunction,Conductor*%
%ADD34C,0.200000*%
%TD*%
%TA.AperFunction,Conductor*%
%ADD35C,0.600000*%
%TD*%
G04 APERTURE END LIST*
D10*
%TO.P,J102,S1,SHIELD*%
%TO.N,Net-(J102-SHIELD)*%
X139660000Y-97700000D03*
X139660000Y-93900000D03*
X148300000Y-97700000D03*
X148300000Y-93900000D03*
D11*
%TO.P,J102,B12,GND*%
%TO.N,GND*%
X146730000Y-93720000D03*
D12*
%TO.P,J102,B9,VBUS*%
%TO.N,Net-(F102-Pad1)*%
X145500000Y-93720000D03*
D13*
%TO.P,J102,B5,CC2*%
%TO.N,Net-(J102-CC2)*%
X143480000Y-93720000D03*
D11*
%TO.P,J102,A12,GND*%
%TO.N,GND*%
X141230000Y-93720000D03*
D12*
%TO.P,J102,A9,VBUS*%
%TO.N,Net-(F102-Pad1)*%
X142460000Y-93720000D03*
D13*
%TO.P,J102,A5,CC1*%
%TO.N,Net-(J102-CC1)*%
X144480000Y-93720000D03*
%TD*%
D14*
%TO.P,U103,1,VDD*%
%TO.N,Net-(U103-VDD)*%
X135100000Y-81690000D03*
%TO.P,U103,2,GND*%
%TO.N,GND*%
X136050000Y-81690000D03*
%TO.P,U103,3,PG*%
%TO.N,unconnected-(U103-PG-Pad3)*%
X137000000Y-81690000D03*
%TO.P,U103,4,CC1*%
%TO.N,Net-(J102-CC1)*%
X137000000Y-85110000D03*
%TO.P,U103,5,CC2*%
%TO.N,Net-(J102-CC2)*%
X136050000Y-85110000D03*
%TO.P,U103,6,CFG*%
%TO.N,Net-(U103-CFG)*%
X135100000Y-85110000D03*
%TD*%
D15*
%TO.P,R108,1*%
%TO.N,Net-(U103-VDD)*%
X124650000Y-63900000D03*
%TO.P,R108,2*%
%TO.N,VBUS*%
X121550000Y-63900000D03*
%TD*%
D16*
%TO.P,R107,1*%
%TO.N,Net-(U103-VDD)*%
X134800000Y-89900000D03*
%TO.P,R107,2*%
%TO.N,Net-(U103-CFG)*%
X136800000Y-89900000D03*
%TD*%
%TO.P,R106,1*%
%TO.N,Net-(J102-CC2)*%
X146050000Y-76150000D03*
%TO.P,R106,2*%
%TO.N,GND*%
X148050000Y-76150000D03*
%TD*%
%TO.P,R105,1*%
%TO.N,Net-(J102-CC1)*%
X146050000Y-80150000D03*
%TO.P,R105,2*%
%TO.N,GND*%
X148050000Y-80150000D03*
%TD*%
%TO.P,R104,1*%
%TO.N,Net-(J102-SHIELD)*%
X146050000Y-84400000D03*
%TO.P,R104,2*%
%TO.N,GND*%
X148050000Y-84400000D03*
%TD*%
D17*
%TO.P,F102,1*%
%TO.N,Net-(F102-Pad1)*%
X143300000Y-72125000D03*
%TO.P,F102,2*%
%TO.N,VBUS*%
X143300000Y-65175000D03*
%TD*%
D18*
%TO.P,C108,1*%
%TO.N,Net-(U103-VDD)*%
X134050000Y-75900000D03*
%TO.P,C108,2*%
%TO.N,GND*%
X136125000Y-75900000D03*
%TD*%
%TO.P,C102,1*%
%TO.N,Net-(J102-SHIELD)*%
X146012500Y-87900000D03*
%TO.P,C102,2*%
%TO.N,GND*%
X148087500Y-87900000D03*
%TD*%
D19*
%TO.P,U101,1,VI*%
%TO.N,VBUS*%
X115890000Y-72900000D03*
D20*
%TO.P,U101,2,GND*%
%TO.N,GND*%
X113350000Y-72900000D03*
%TO.P,U101,3,VO*%
%TO.N,+5V*%
X110810000Y-72900000D03*
%TD*%
D21*
%TO.P,H102,1,MP*%
%TO.N,GND*%
X107050000Y-118900000D03*
%TD*%
%TO.P,H105,1,MP*%
%TO.N,+5V*%
X107050000Y-58900000D03*
%TD*%
%TO.P,H101,1,MP*%
%TO.N,VBUS*%
X144050000Y-58900000D03*
%TD*%
D22*
%TO.P,C103,1*%
%TO.N,VBUS*%
X117787500Y-83800000D03*
%TO.P,C103,2*%
%TO.N,GND*%
X115712500Y-83800000D03*
%TD*%
D18*
%TO.P,C104,1*%
%TO.N,+5V*%
X110512500Y-83700000D03*
%TO.P,C104,2*%
%TO.N,GND*%
X112587500Y-83700000D03*
%TD*%
D23*
%TO.P,JP101,1,A*%
%TO.N,VBUS*%
X117375000Y-59600000D03*
D24*
%TO.P,JP101,2,B*%
%TO.N,+5V*%
X115925000Y-59600000D03*
%TD*%
D25*
%TO.P,C105,1*%
%TO.N,+5V*%
X109912500Y-87900000D03*
%TO.P,C105,2*%
%TO.N,GND*%
X112987500Y-87900000D03*
%TD*%
D26*
%TO.P,C101,1*%
%TO.N,VBUS*%
X118525000Y-87900000D03*
%TO.P,C101,2*%
%TO.N,GND*%
X115450000Y-87900000D03*
%TD*%
D27*
%TO.N,GND*%
X148550000Y-91400000D03*
D28*
X140860000Y-80650000D03*
D27*
X148087500Y-86150000D03*
D29*
%TO.N,Net-(J102-CC1)*%
X139050000Y-85110000D03*
X144480000Y-85150000D03*
%TO.N,Net-(J102-SHIELD)*%
X146012500Y-90437500D03*
%TD*%
D30*
%TO.N,GND*%
X140860000Y-78460000D02*
X138300000Y-75900000D01*
X140860000Y-80650000D02*
X141230000Y-81020000D01*
X138300000Y-75900000D02*
X136125000Y-75900000D01*
X141230000Y-81020000D02*
X141230000Y-93720000D01*
X140860000Y-80650000D02*
X140860000Y-78460000D01*
%TO.N,Net-(F102-Pad1)*%
X143300000Y-72125000D02*
X142460000Y-72965000D01*
X142460000Y-72965000D02*
X142460000Y-93720000D01*
D31*
%TO.N,+5V*%
X110910000Y-75045000D02*
X110910000Y-73010000D01*
X110910000Y-73010000D02*
X106800000Y-68900000D01*
X106800000Y-68900000D02*
X106800000Y-59150000D01*
X106800000Y-59150000D02*
X107050000Y-58900000D01*
D32*
%TO.N,VBUS*%
X143300000Y-65175000D02*
X143300000Y-61150000D01*
X143300000Y-61150000D02*
X144050000Y-60400000D01*
D30*
%TO.N,Net-(F102-Pad1)*%
X145500000Y-93720000D02*
X145500000Y-92700000D01*
X145500000Y-92700000D02*
X149275000Y-88925000D01*
X149275000Y-88925000D02*
X149275000Y-75125000D01*
X149275000Y-75125000D02*
X146275000Y-72125000D01*
X146275000Y-72125000D02*
X143300000Y-72125000D01*
D33*
X143300000Y-72125000D02*
X142550000Y-72875000D01*
D30*
%TO.N,GND*%
X148087500Y-87900000D02*
X148087500Y-86150000D01*
X148087500Y-84437500D02*
X148050000Y-84400000D01*
X148087500Y-86150000D02*
X148087500Y-84437500D01*
D34*
%TO.N,Net-(J102-CC1)*%
X144480000Y-93720000D02*
X144480000Y-85150000D01*
D30*
%TO.N,GND*%
X148300000Y-91400000D02*
X148550000Y-91400000D01*
X146730000Y-92970000D02*
X148300000Y-91400000D01*
X146730000Y-93720000D02*
X146730000Y-92970000D01*
%TO.N,Net-(J102-SHIELD)*%
X146012500Y-90437500D02*
X146012500Y-88900000D01*
X146050000Y-88862500D02*
X146050000Y-84400000D01*
X146012500Y-88900000D02*
X146050000Y-88862500D01*
D34*
%TO.N,Net-(J102-CC2)*%
X143480000Y-79220000D02*
X143480000Y-95220000D01*
X146050000Y-76650000D02*
X143480000Y-79220000D01*
X140460000Y-95560000D02*
X140460000Y-91975256D01*
X142930000Y-95770000D02*
X140670000Y-95770000D01*
X146050000Y-76150000D02*
X146050000Y-76650000D01*
X143480000Y-95220000D02*
X142930000Y-95770000D01*
X140460000Y-91975256D02*
X136050000Y-87565256D01*
X136050000Y-87565256D02*
X136050000Y-85110000D01*
X140670000Y-95770000D02*
X140460000Y-95560000D01*
%TO.N,Net-(J102-CC1)*%
X139050000Y-85110000D02*
X137000000Y-85110000D01*
%TO.N,GND*%
X136125000Y-75900000D02*
X136125000Y-81615000D01*
X136125000Y-81615000D02*
X136050000Y-81690000D01*
D30*
%TO.N,Net-(U103-VDD)*%
X134050000Y-75900000D02*
X134050000Y-73300000D01*
X134050000Y-73300000D02*
X124650000Y-63900000D01*
D34*
%TO.N,Net-(J102-CC1)*%
X144480000Y-85150000D02*
X144480000Y-81720000D01*
D30*
%TO.N,GND*%
X148050000Y-80150000D02*
X148050000Y-76150000D01*
X148050000Y-84400000D02*
X148050000Y-80150000D01*
D32*
%TO.N,VBUS*%
X117987500Y-77042500D02*
X115990000Y-75045000D01*
X115990000Y-75045000D02*
X115990000Y-73000000D01*
X115990000Y-73000000D02*
X115890000Y-72900000D01*
X117987500Y-83600000D02*
X117987500Y-77042500D01*
X115890000Y-72900000D02*
X115890000Y-69560000D01*
X115890000Y-69560000D02*
X121550000Y-63900000D01*
X121550000Y-60900000D02*
X121550000Y-63900000D01*
X144050000Y-58900000D02*
X142550000Y-60400000D01*
X142550000Y-60400000D02*
X118175000Y-60400000D01*
X118175000Y-60400000D02*
X117375000Y-59600000D01*
X117987500Y-83600000D02*
X118525000Y-84137500D01*
X118525000Y-84137500D02*
X118525000Y-87900000D01*
D34*
%TO.N,Net-(J102-CC1)*%
X144480000Y-81720000D02*
X146050000Y-80150000D01*
%TO.N,Net-(U103-CFG)*%
X135100000Y-85110000D02*
X135100000Y-88200000D01*
X135100000Y-88200000D02*
X136800000Y-89900000D01*
%TO.N,Net-(U103-VDD)*%
X134800000Y-89900000D02*
X134475000Y-89575000D01*
X134475000Y-89575000D02*
X134475000Y-82315000D01*
X134475000Y-82315000D02*
X135100000Y-81690000D01*
X135100000Y-81690000D02*
X135100000Y-76950000D01*
X135100000Y-76950000D02*
X134050000Y-75900000D01*
D33*
%TO.N,VBUS*%
X144050000Y-60400000D02*
X144050000Y-58900000D01*
X117787500Y-83800000D02*
X117987500Y-83600000D01*
D35*
%TO.N,GND*%
X112712500Y-83700000D02*
X112587500Y-83700000D01*
D33*
X112587500Y-83700000D02*
X113450000Y-82837500D01*
D31*
X113350000Y-72900000D02*
X113450000Y-73000000D01*
D33*
X115775000Y-84100000D02*
X115912500Y-84237500D01*
D31*
X113450000Y-73000000D02*
X113450000Y-86700000D01*
D33*
X113450000Y-84100000D02*
X115775000Y-84100000D01*
D31*
X113450000Y-81062500D02*
X113450000Y-82837500D01*
D35*
X115450000Y-87900000D02*
X112987500Y-87900000D01*
D31*
%TO.N,+5V*%
X110712500Y-75242500D02*
X109650000Y-76305000D01*
D35*
X110910000Y-75045000D02*
X110712500Y-75242500D01*
D31*
X109650000Y-87637500D02*
X109912500Y-87900000D01*
X109650000Y-76305000D02*
X109650000Y-87637500D01*
D35*
X115350000Y-59600000D02*
X115870097Y-59600000D01*
D32*
X115250000Y-59500000D02*
X107650000Y-59500000D01*
D33*
X107650000Y-59500000D02*
X107050000Y-58900000D01*
X115350000Y-59600000D02*
X115250000Y-59500000D01*
%TD*%
%TA.AperFunction,Conductor*%
%TO.N,GND*%
G36*
X105829588Y-119942330D02*
G01*
X106007670Y-120120412D01*
X106109300Y-120194251D01*
X104897255Y-121406295D01*
X104897256Y-121406296D01*
X104910485Y-121418828D01*
X104910486Y-121418829D01*
X105195367Y-121635388D01*
X105195383Y-121635399D01*
X105413596Y-121766693D01*
X105460891Y-121818122D01*
X105472874Y-121886956D01*
X105445739Y-121951342D01*
X105388102Y-121990836D01*
X105349939Y-121996943D01*
X104074271Y-121999728D01*
X104007188Y-121980190D01*
X103961318Y-121927486D01*
X103950000Y-121875728D01*
X103950000Y-120596528D01*
X103969685Y-120529489D01*
X104022489Y-120483734D01*
X104091647Y-120473790D01*
X104155203Y-120502815D01*
X104183556Y-120538446D01*
X104218220Y-120603831D01*
X104419033Y-120900007D01*
X104546441Y-121050003D01*
X104546442Y-121050004D01*
X105755747Y-119840698D01*
X105829588Y-119942330D01*
G37*
%TD.AperFunction*%
%TA.AperFunction,Conductor*%
G36*
X149626273Y-55799729D02*
G01*
X149693267Y-55819560D01*
X149738907Y-55872464D01*
X149750000Y-55923729D01*
X149750000Y-74451402D01*
X149730315Y-74518441D01*
X149677511Y-74564196D01*
X149608353Y-74574140D01*
X149544797Y-74545115D01*
X149538319Y-74539083D01*
X146762590Y-71763355D01*
X146762588Y-71763352D01*
X146643717Y-71644481D01*
X146643716Y-71644480D01*
X146533568Y-71580886D01*
X146533566Y-71580885D01*
X146506785Y-71565423D01*
X146506784Y-71565422D01*
X146506783Y-71565422D01*
X146450881Y-71550443D01*
X146354057Y-71524499D01*
X146354054Y-71524499D01*
X146349499Y-71524499D01*
X146282460Y-71504814D01*
X146236705Y-71452010D01*
X146225499Y-71400499D01*
X146225499Y-71270741D01*
X146225499Y-71270736D01*
X146222646Y-71240302D01*
X146177793Y-71112118D01*
X146097150Y-71002850D01*
X145987882Y-70922207D01*
X145987881Y-70922206D01*
X145859695Y-70877353D01*
X145859698Y-70877353D01*
X145829268Y-70874500D01*
X140770741Y-70874500D01*
X140740301Y-70877354D01*
X140740300Y-70877354D01*
X140612118Y-70922206D01*
X140502850Y-71002850D01*
X140422206Y-71112118D01*
X140377353Y-71240302D01*
X140374500Y-71270731D01*
X140374500Y-72979258D01*
X140377354Y-73009698D01*
X140377354Y-73009699D01*
X140422206Y-73137881D01*
X140422207Y-73137882D01*
X140502850Y-73247150D01*
X140612118Y-73327793D01*
X140740302Y-73372646D01*
X140740301Y-73372646D01*
X140744271Y-73373018D01*
X140770735Y-73375500D01*
X141735500Y-73375499D01*
X141802539Y-73395183D01*
X141848294Y-73447987D01*
X141859500Y-73499499D01*
X141859500Y-92343549D01*
X141839815Y-92410588D01*
X141787011Y-92456343D01*
X141717853Y-92466287D01*
X141696497Y-92461255D01*
X141602608Y-92430144D01*
X141503322Y-92420000D01*
X141480000Y-92420000D01*
X141480000Y-95019999D01*
X141503308Y-95019999D01*
X141503322Y-95019998D01*
X141602607Y-95009855D01*
X141763481Y-94956547D01*
X141763492Y-94956542D01*
X141907728Y-94867575D01*
X141907732Y-94867572D01*
X142032680Y-94742625D01*
X142034704Y-94744649D01*
X142081007Y-94711815D01*
X142140732Y-94706602D01*
X142228481Y-94720500D01*
X142691518Y-94720499D01*
X142785304Y-94705646D01*
X142898342Y-94648050D01*
X142899991Y-94646401D01*
X142902489Y-94645036D01*
X142906241Y-94642311D01*
X142906592Y-94642795D01*
X142961312Y-94612912D01*
X143031004Y-94617893D01*
X143075358Y-94646396D01*
X143083786Y-94654824D01*
X143083787Y-94654824D01*
X143083789Y-94654826D01*
X143109960Y-94667620D01*
X143161541Y-94714745D01*
X143179500Y-94779020D01*
X143179500Y-95044167D01*
X143159815Y-95111206D01*
X143143181Y-95131848D01*
X142841848Y-95433181D01*
X142780525Y-95466666D01*
X142754167Y-95469500D01*
X140884500Y-95469500D01*
X140817461Y-95449815D01*
X140771706Y-95397011D01*
X140760500Y-95345500D01*
X140760500Y-95137270D01*
X140780185Y-95070231D01*
X140832989Y-95024476D01*
X140897104Y-95013912D01*
X140956685Y-95019999D01*
X140980000Y-95019998D01*
X140980000Y-92419999D01*
X140956693Y-92420000D01*
X140956671Y-92420001D01*
X140897101Y-92426087D01*
X140828408Y-92413317D01*
X140777524Y-92365436D01*
X140760500Y-92302729D01*
X140760500Y-91935695D01*
X140740020Y-91859265D01*
X140740017Y-91859260D01*
X140700464Y-91790751D01*
X140700458Y-91790743D01*
X137786616Y-88876901D01*
X139198000Y-88876901D01*
X140271370Y-89950271D01*
X140700000Y-89950271D01*
X140700000Y-88448271D01*
X139198000Y-88448271D01*
X139198000Y-88876901D01*
X137786616Y-88876901D01*
X136386819Y-87477104D01*
X136353334Y-87415781D01*
X136350500Y-87389423D01*
X136350500Y-86605928D01*
X139198000Y-86605928D01*
X139198000Y-87450271D01*
X140700000Y-87450271D01*
X140700000Y-85948271D01*
X140298664Y-85948271D01*
X140295674Y-85952924D01*
X140290626Y-85960194D01*
X140258520Y-86003083D01*
X140252966Y-86009976D01*
X140112020Y-86172637D01*
X140105988Y-86179115D01*
X140068112Y-86216991D01*
X140061636Y-86223021D01*
X140007744Y-86269721D01*
X140000851Y-86275276D01*
X139957957Y-86307387D01*
X139950684Y-86312437D01*
X139769620Y-86428799D01*
X139762009Y-86433315D01*
X139714997Y-86458986D01*
X139707084Y-86462947D01*
X139642217Y-86492573D01*
X139634036Y-86495962D01*
X139583833Y-86514687D01*
X139575433Y-86517482D01*
X139368914Y-86578120D01*
X139360338Y-86580309D01*
X139307988Y-86591697D01*
X139299277Y-86593269D01*
X139228694Y-86603417D01*
X139219892Y-86604363D01*
X139198000Y-86605928D01*
X136350500Y-86605928D01*
X136350500Y-86361496D01*
X136370185Y-86294457D01*
X136420039Y-86250095D01*
X136426347Y-86247012D01*
X136426349Y-86247010D01*
X136437319Y-86236041D01*
X136498642Y-86202556D01*
X136568334Y-86207540D01*
X136612681Y-86236041D01*
X136623651Y-86247011D01*
X136732488Y-86300219D01*
X136732489Y-86300219D01*
X136732491Y-86300220D01*
X136803051Y-86310500D01*
X137196948Y-86310499D01*
X137196950Y-86310499D01*
X137225172Y-86306387D01*
X137267509Y-86300220D01*
X137376347Y-86247012D01*
X137462012Y-86161347D01*
X137515220Y-86052509D01*
X137525500Y-85981949D01*
X137525500Y-85534500D01*
X137545185Y-85467461D01*
X137597989Y-85421706D01*
X137649500Y-85410500D01*
X138591499Y-85410500D01*
X138658538Y-85430185D01*
X138685211Y-85453296D01*
X138718872Y-85492143D01*
X138839947Y-85569953D01*
X138839950Y-85569954D01*
X138839949Y-85569954D01*
X138978036Y-85610499D01*
X138978038Y-85610500D01*
X138978039Y-85610500D01*
X139121962Y-85610500D01*
X139121962Y-85610499D01*
X139260053Y-85569953D01*
X139381128Y-85492143D01*
X139475377Y-85383373D01*
X139535165Y-85252457D01*
X139555647Y-85110000D01*
X139535165Y-84967543D01*
X139475377Y-84836627D01*
X139381128Y-84727857D01*
X139260053Y-84650047D01*
X139260051Y-84650046D01*
X139260049Y-84650045D01*
X139260050Y-84650045D01*
X139121963Y-84609500D01*
X139121961Y-84609500D01*
X138978039Y-84609500D01*
X138978036Y-84609500D01*
X138839949Y-84650045D01*
X138718873Y-84727856D01*
X138718872Y-84727856D01*
X138718872Y-84727857D01*
X138696827Y-84753299D01*
X138685212Y-84766703D01*
X138626433Y-84804477D01*
X138591499Y-84809500D01*
X137649499Y-84809500D01*
X137582460Y-84789815D01*
X137536705Y-84737011D01*
X137525499Y-84685500D01*
X137525499Y-84238049D01*
X137515220Y-84167493D01*
X137515220Y-84167491D01*
X137462012Y-84058653D01*
X137462010Y-84058651D01*
X137462010Y-84058650D01*
X137376348Y-83972988D01*
X137267511Y-83919780D01*
X137249869Y-83917210D01*
X137196949Y-83909500D01*
X137196943Y-83909500D01*
X136803049Y-83909500D01*
X136732493Y-83919779D01*
X136623650Y-83972989D01*
X136612681Y-83983959D01*
X136551358Y-84017444D01*
X136481666Y-84012460D01*
X136437319Y-83983959D01*
X136426348Y-83972988D01*
X136317511Y-83919780D01*
X136299869Y-83917210D01*
X136246949Y-83909500D01*
X136246943Y-83909500D01*
X135853049Y-83909500D01*
X135782493Y-83919779D01*
X135673650Y-83972989D01*
X135662681Y-83983959D01*
X135601358Y-84017444D01*
X135531666Y-84012460D01*
X135487319Y-83983959D01*
X135476348Y-83972988D01*
X135367511Y-83919780D01*
X135349869Y-83917210D01*
X135296949Y-83909500D01*
X135296943Y-83909500D01*
X134899500Y-83909500D01*
X134832461Y-83889815D01*
X134786706Y-83837011D01*
X134775500Y-83785500D01*
X134775500Y-83614071D01*
X139198000Y-83614071D01*
X139219892Y-83615637D01*
X139228694Y-83616583D01*
X139299277Y-83626731D01*
X139307988Y-83628303D01*
X139360338Y-83639691D01*
X139368914Y-83641880D01*
X139575433Y-83702518D01*
X139583833Y-83705313D01*
X139634036Y-83724038D01*
X139642217Y-83727427D01*
X139707084Y-83757053D01*
X139714997Y-83761014D01*
X139762009Y-83786685D01*
X139769620Y-83791201D01*
X139950684Y-83907563D01*
X139957957Y-83912613D01*
X140000851Y-83944724D01*
X140007744Y-83950279D01*
X140061636Y-83996979D01*
X140068112Y-84003009D01*
X140105988Y-84040885D01*
X140112020Y-84047363D01*
X140252966Y-84210024D01*
X140258520Y-84216917D01*
X140290626Y-84259806D01*
X140295674Y-84267076D01*
X140334226Y-84327064D01*
X140338744Y-84334679D01*
X140364416Y-84381696D01*
X140368377Y-84389609D01*
X140457786Y-84585385D01*
X140461173Y-84593562D01*
X140479892Y-84643748D01*
X140482687Y-84652145D01*
X140502780Y-84720568D01*
X140504970Y-84729146D01*
X140516361Y-84781505D01*
X140517933Y-84790219D01*
X140540944Y-84950271D01*
X140700000Y-84950271D01*
X140700000Y-83448271D01*
X139198000Y-83448271D01*
X139198000Y-83614071D01*
X134775500Y-83614071D01*
X134775500Y-83014499D01*
X134795185Y-82947460D01*
X134847989Y-82901705D01*
X134899500Y-82890499D01*
X134903044Y-82890499D01*
X134903051Y-82890500D01*
X135263726Y-82890499D01*
X135330765Y-82910184D01*
X135356767Y-82933863D01*
X135356857Y-82933774D01*
X135358771Y-82935688D01*
X135361335Y-82938023D01*
X135362163Y-82939080D01*
X135475919Y-83052836D01*
X135613607Y-83136072D01*
X135613606Y-83136072D01*
X135767197Y-83183932D01*
X135767207Y-83183935D01*
X135799999Y-83186914D01*
X135800000Y-83186914D01*
X136300000Y-83186914D01*
X136332792Y-83183935D01*
X136332802Y-83183932D01*
X136486392Y-83136072D01*
X136624078Y-83052837D01*
X136737837Y-82939077D01*
X136738655Y-82938034D01*
X136739448Y-82937467D01*
X136743142Y-82933773D01*
X136743755Y-82934386D01*
X136795492Y-82897397D01*
X136836266Y-82890499D01*
X137196948Y-82890499D01*
X137196950Y-82890499D01*
X137225172Y-82886387D01*
X137267509Y-82880220D01*
X137376347Y-82827012D01*
X137462012Y-82741347D01*
X137515220Y-82632509D01*
X137525500Y-82561949D01*
X137525500Y-82450271D01*
X139198000Y-82450271D01*
X140700000Y-82450271D01*
X140700000Y-82269756D01*
X140470100Y-82231393D01*
X140450247Y-82226365D01*
X140215129Y-82145649D01*
X140196375Y-82137423D01*
X139977749Y-82019109D01*
X139960603Y-82007907D01*
X139764433Y-81855221D01*
X139749366Y-81841351D01*
X139581002Y-81658460D01*
X139568423Y-81642298D01*
X139432459Y-81434189D01*
X139422712Y-81416178D01*
X139322856Y-81188528D01*
X139316206Y-81169158D01*
X139260269Y-80948271D01*
X139198000Y-80948271D01*
X139198000Y-82450271D01*
X137525500Y-82450271D01*
X137525499Y-80818052D01*
X137521658Y-80791688D01*
X137515220Y-80747493D01*
X137515220Y-80747491D01*
X137462012Y-80638653D01*
X137462010Y-80638651D01*
X137462010Y-80638650D01*
X137376348Y-80552988D01*
X137267511Y-80499780D01*
X137249869Y-80497210D01*
X137196949Y-80489500D01*
X137196943Y-80489500D01*
X136836273Y-80489500D01*
X136769234Y-80469815D01*
X136743233Y-80446135D01*
X136743143Y-80446226D01*
X136741216Y-80444299D01*
X136738663Y-80441974D01*
X136737838Y-80440921D01*
X136624080Y-80327163D01*
X136486396Y-80243929D01*
X136332794Y-80196066D01*
X136300000Y-80193085D01*
X136300000Y-83186914D01*
X135800000Y-83186914D01*
X135800000Y-80193085D01*
X135799999Y-80193085D01*
X135767205Y-80196066D01*
X135613602Y-80243930D01*
X135588648Y-80259015D01*
X135521093Y-80276850D01*
X135454620Y-80255331D01*
X135410333Y-80201290D01*
X135400500Y-80152897D01*
X135400500Y-79264535D01*
X136698000Y-79264535D01*
X136812100Y-79300090D01*
X136819181Y-79302534D01*
X136861565Y-79318608D01*
X136868487Y-79321475D01*
X136923501Y-79346236D01*
X136930234Y-79349515D01*
X136970366Y-79370578D01*
X136976890Y-79374257D01*
X137166190Y-79488694D01*
X137170530Y-79491500D01*
X137215010Y-79491500D01*
X137219495Y-79491581D01*
X137246626Y-79492563D01*
X137251109Y-79492807D01*
X137287116Y-79495418D01*
X137291582Y-79495823D01*
X137318532Y-79498760D01*
X137322974Y-79499325D01*
X137449692Y-79517786D01*
X137459141Y-79519539D01*
X137515870Y-79532355D01*
X137525152Y-79534834D01*
X137599123Y-79557690D01*
X137608187Y-79560880D01*
X137662261Y-79582302D01*
X137671051Y-79586185D01*
X137851763Y-79674530D01*
X137860776Y-79679407D01*
X137914066Y-79711161D01*
X137922644Y-79716765D01*
X137989861Y-79764755D01*
X137997949Y-79771051D01*
X138045296Y-79811151D01*
X138052837Y-79818093D01*
X138185015Y-79950271D01*
X138200000Y-79950271D01*
X139198000Y-79950271D01*
X139393565Y-79950271D01*
X139422712Y-79883822D01*
X139432459Y-79865811D01*
X139568423Y-79657702D01*
X139581002Y-79641540D01*
X139749366Y-79458649D01*
X139764433Y-79444779D01*
X139960603Y-79292093D01*
X139977749Y-79280891D01*
X140196375Y-79162577D01*
X140215129Y-79154351D01*
X140450247Y-79073635D01*
X140470100Y-79068607D01*
X140700000Y-79030243D01*
X140700000Y-78448271D01*
X139198000Y-78448271D01*
X139198000Y-79950271D01*
X138200000Y-79950271D01*
X138200000Y-78448271D01*
X136698000Y-78448271D01*
X136698000Y-79264535D01*
X135400500Y-79264535D01*
X135400500Y-77450271D01*
X139198000Y-77450271D01*
X140700000Y-77450271D01*
X140700000Y-75948271D01*
X139198000Y-75948271D01*
X139198000Y-77450271D01*
X135400500Y-77450271D01*
X135400500Y-77208585D01*
X135420185Y-77141546D01*
X135472989Y-77095791D01*
X135542147Y-77085847D01*
X135563504Y-77090879D01*
X135634802Y-77114505D01*
X135634809Y-77114506D01*
X135737519Y-77124999D01*
X135874999Y-77124999D01*
X136375000Y-77124999D01*
X136512472Y-77124999D01*
X136512486Y-77124998D01*
X136615197Y-77114505D01*
X136781619Y-77059358D01*
X136781624Y-77059356D01*
X136930845Y-76967315D01*
X137054815Y-76843345D01*
X137146856Y-76694124D01*
X137146858Y-76694119D01*
X137202005Y-76527697D01*
X137202006Y-76527690D01*
X137212499Y-76424986D01*
X137212500Y-76424973D01*
X137212500Y-76150000D01*
X136375000Y-76150000D01*
X136375000Y-77124999D01*
X135874999Y-77124999D01*
X135875000Y-77124998D01*
X135875000Y-75650000D01*
X136375000Y-75650000D01*
X137212499Y-75650000D01*
X137212499Y-75375028D01*
X137212498Y-75375013D01*
X137202005Y-75272302D01*
X137146858Y-75105880D01*
X137146856Y-75105875D01*
X137054815Y-74956654D01*
X136930845Y-74832684D01*
X136781624Y-74740643D01*
X136781619Y-74740641D01*
X136615197Y-74685494D01*
X136615190Y-74685493D01*
X136512486Y-74675000D01*
X136375000Y-74675000D01*
X136375000Y-75650000D01*
X135875000Y-75650000D01*
X135875000Y-74675000D01*
X135737527Y-74675000D01*
X135737512Y-74675001D01*
X135634802Y-74685494D01*
X135468380Y-74740641D01*
X135468375Y-74740643D01*
X135319154Y-74832684D01*
X135195184Y-74956654D01*
X135103143Y-75105875D01*
X135103141Y-75105880D01*
X135047405Y-75274082D01*
X135007632Y-75331527D01*
X134943117Y-75358350D01*
X134874341Y-75346035D01*
X134823141Y-75298492D01*
X134812658Y-75276033D01*
X134790293Y-75212119D01*
X134790292Y-75212117D01*
X134709650Y-75102850D01*
X134709647Y-75102848D01*
X134709646Y-75102846D01*
X134700863Y-75096364D01*
X134658614Y-75040715D01*
X134650500Y-74996596D01*
X134650500Y-73690758D01*
X136698000Y-73690758D01*
X136743724Y-73695430D01*
X136750433Y-73696301D01*
X136790867Y-73702676D01*
X136797518Y-73703912D01*
X136850767Y-73715314D01*
X136857335Y-73716908D01*
X136896803Y-73727638D01*
X136903276Y-73729589D01*
X137123105Y-73802433D01*
X137129882Y-73804900D01*
X137170434Y-73821010D01*
X137177055Y-73823865D01*
X137229702Y-73848413D01*
X137236149Y-73851651D01*
X137274574Y-73872369D01*
X137280822Y-73875976D01*
X137479493Y-73998517D01*
X137485521Y-74002482D01*
X137521281Y-74027522D01*
X137527067Y-74031830D01*
X137572633Y-74067860D01*
X137578159Y-74072497D01*
X137610757Y-74101508D01*
X137616001Y-74106456D01*
X137781044Y-74271499D01*
X137785992Y-74276743D01*
X137815003Y-74309341D01*
X137819640Y-74314867D01*
X137855670Y-74360433D01*
X137859978Y-74366219D01*
X137885018Y-74401979D01*
X137888983Y-74408007D01*
X138011524Y-74606678D01*
X138015131Y-74612926D01*
X138035849Y-74651351D01*
X138039086Y-74657797D01*
X138063634Y-74710443D01*
X138066491Y-74717067D01*
X138082600Y-74757618D01*
X138085066Y-74764393D01*
X138146661Y-74950271D01*
X138200000Y-74950271D01*
X139198000Y-74950271D01*
X140700000Y-74950271D01*
X140700000Y-74371024D01*
X140692054Y-74370466D01*
X140689171Y-74370229D01*
X140616918Y-74363454D01*
X140609440Y-74362523D01*
X140564393Y-74355518D01*
X140556988Y-74354135D01*
X140497701Y-74341186D01*
X140490393Y-74339356D01*
X140446515Y-74326938D01*
X140439327Y-74324666D01*
X140247238Y-74257451D01*
X140238606Y-74254063D01*
X140187155Y-74231615D01*
X140178798Y-74227590D01*
X140112745Y-74192678D01*
X140104716Y-74188042D01*
X140057200Y-74158185D01*
X140049539Y-74152962D01*
X139880162Y-74027956D01*
X139872913Y-74022175D01*
X139830371Y-73985565D01*
X139823573Y-73979257D01*
X139770743Y-73926427D01*
X139764435Y-73919629D01*
X139727825Y-73877087D01*
X139722044Y-73869838D01*
X139597038Y-73700461D01*
X139591815Y-73692800D01*
X139561958Y-73645284D01*
X139557322Y-73637254D01*
X139522410Y-73571200D01*
X139518386Y-73562845D01*
X139495937Y-73511393D01*
X139492548Y-73502759D01*
X139473482Y-73448271D01*
X139198000Y-73448271D01*
X139198000Y-74950271D01*
X138200000Y-74950271D01*
X138200000Y-73448271D01*
X136698000Y-73448271D01*
X136698000Y-73690758D01*
X134650500Y-73690758D01*
X134650500Y-73220943D01*
X134646713Y-73206812D01*
X134646712Y-73206808D01*
X134612554Y-73079327D01*
X134612553Y-73079321D01*
X134609578Y-73068217D01*
X134530522Y-72931287D01*
X134530521Y-72931286D01*
X134530520Y-72931284D01*
X134418716Y-72819480D01*
X134418715Y-72819479D01*
X134414385Y-72815149D01*
X134414374Y-72815139D01*
X132786616Y-71187381D01*
X134198000Y-71187381D01*
X135107988Y-72097369D01*
X135108059Y-72097437D01*
X135259319Y-72248698D01*
X135264864Y-72254619D01*
X135297234Y-72291529D01*
X135302381Y-72297800D01*
X135342171Y-72349653D01*
X135346898Y-72356250D01*
X135374186Y-72397088D01*
X135378472Y-72403980D01*
X135405198Y-72450271D01*
X135700000Y-72450271D01*
X136698000Y-72450271D01*
X138200000Y-72450271D01*
X138200000Y-70948271D01*
X136698000Y-70948271D01*
X136698000Y-72450271D01*
X135700000Y-72450271D01*
X135700000Y-70948271D01*
X134198000Y-70948271D01*
X134198000Y-71187381D01*
X132786616Y-71187381D01*
X130286616Y-68687381D01*
X131698000Y-68687381D01*
X132960890Y-69950271D01*
X133200000Y-69950271D01*
X134198000Y-69950271D01*
X135700000Y-69950271D01*
X136698000Y-69950271D01*
X138200000Y-69950271D01*
X139198000Y-69950271D01*
X140368064Y-69950271D01*
X146698000Y-69950271D01*
X148200000Y-69950271D01*
X148200000Y-68448271D01*
X146698000Y-68448271D01*
X146698000Y-69950271D01*
X140368064Y-69950271D01*
X140439335Y-69925333D01*
X140446521Y-69923061D01*
X140490402Y-69910642D01*
X140497713Y-69908811D01*
X140557006Y-69895862D01*
X140564411Y-69894479D01*
X140609462Y-69887474D01*
X140616940Y-69886543D01*
X140689189Y-69879770D01*
X140692076Y-69879534D01*
X140700000Y-69878977D01*
X140700000Y-69876500D01*
X141698000Y-69876500D01*
X143200000Y-69876500D01*
X144198000Y-69876500D01*
X145700000Y-69876500D01*
X145700000Y-68448271D01*
X144198000Y-68448271D01*
X144198000Y-69876500D01*
X143200000Y-69876500D01*
X143200000Y-68448271D01*
X141698000Y-68448271D01*
X141698000Y-69876500D01*
X140700000Y-69876500D01*
X140700000Y-68448271D01*
X139198000Y-68448271D01*
X139198000Y-69950271D01*
X138200000Y-69950271D01*
X138200000Y-68448271D01*
X136698000Y-68448271D01*
X136698000Y-69950271D01*
X135700000Y-69950271D01*
X135700000Y-68448271D01*
X134198000Y-68448271D01*
X134198000Y-69950271D01*
X133200000Y-69950271D01*
X133200000Y-68448271D01*
X131698000Y-68448271D01*
X131698000Y-68687381D01*
X130286616Y-68687381D01*
X127786616Y-66187381D01*
X129198000Y-66187381D01*
X130460890Y-67450271D01*
X130700000Y-67450271D01*
X131698000Y-67450271D01*
X133200000Y-67450271D01*
X134198000Y-67450271D01*
X135700000Y-67450271D01*
X136698000Y-67450271D01*
X138200000Y-67450271D01*
X139198000Y-67450271D01*
X140700000Y-67450271D01*
X140700000Y-67421024D01*
X140692054Y-67420466D01*
X140689171Y-67420229D01*
X140616918Y-67413454D01*
X140609440Y-67412523D01*
X140564393Y-67405518D01*
X140556988Y-67404135D01*
X140497701Y-67391186D01*
X140490393Y-67389356D01*
X140446515Y-67376938D01*
X140439327Y-67374666D01*
X140247238Y-67307451D01*
X140238606Y-67304063D01*
X140187155Y-67281615D01*
X140178798Y-67277590D01*
X140112745Y-67242678D01*
X140104716Y-67238042D01*
X140057200Y-67208185D01*
X140049539Y-67202962D01*
X139902000Y-67094073D01*
X146698000Y-67094073D01*
X146698000Y-67450271D01*
X148200000Y-67450271D01*
X148200000Y-65948271D01*
X147223500Y-65948271D01*
X147223500Y-66040931D01*
X147223466Y-66043831D01*
X147223056Y-66061360D01*
X147222955Y-66064253D01*
X147221865Y-66087558D01*
X147221695Y-66090458D01*
X147220466Y-66107946D01*
X147220229Y-66110829D01*
X147213454Y-66183082D01*
X147212523Y-66190560D01*
X147205518Y-66235607D01*
X147204135Y-66243012D01*
X147191186Y-66302299D01*
X147189356Y-66309607D01*
X147176938Y-66353485D01*
X147174666Y-66360673D01*
X147107451Y-66552762D01*
X147104063Y-66561394D01*
X147081615Y-66612845D01*
X147077590Y-66621202D01*
X147042678Y-66687255D01*
X147038042Y-66695284D01*
X147008185Y-66742800D01*
X147002962Y-66750461D01*
X146877956Y-66919838D01*
X146872175Y-66927087D01*
X146835565Y-66969629D01*
X146829257Y-66976427D01*
X146776427Y-67029257D01*
X146769629Y-67035565D01*
X146727087Y-67072175D01*
X146719838Y-67077956D01*
X146698000Y-67094073D01*
X139902000Y-67094073D01*
X139880162Y-67077956D01*
X139872913Y-67072175D01*
X139830371Y-67035565D01*
X139823573Y-67029257D01*
X139770743Y-66976427D01*
X139764435Y-66969629D01*
X139727825Y-66927087D01*
X139722044Y-66919838D01*
X139597038Y-66750461D01*
X139591815Y-66742800D01*
X139561958Y-66695284D01*
X139557322Y-66687254D01*
X139522410Y-66621200D01*
X139518386Y-66612845D01*
X139495937Y-66561393D01*
X139492548Y-66552759D01*
X139425333Y-66360665D01*
X139423061Y-66353479D01*
X139410642Y-66309598D01*
X139408811Y-66302287D01*
X139395862Y-66242994D01*
X139394479Y-66235589D01*
X139387474Y-66190538D01*
X139386543Y-66183060D01*
X139379770Y-66110811D01*
X139379534Y-66107924D01*
X139378307Y-66090452D01*
X139378138Y-66087565D01*
X139377047Y-66064267D01*
X139376945Y-66061366D01*
X139376535Y-66043831D01*
X139376501Y-66040932D01*
X139376501Y-65948271D01*
X139198000Y-65948271D01*
X139198000Y-67450271D01*
X138200000Y-67450271D01*
X138200000Y-65948271D01*
X136698000Y-65948271D01*
X136698000Y-67450271D01*
X135700000Y-67450271D01*
X135700000Y-65948271D01*
X134198000Y-65948271D01*
X134198000Y-67450271D01*
X133200000Y-67450271D01*
X133200000Y-65948271D01*
X131698000Y-65948271D01*
X131698000Y-67450271D01*
X130700000Y-67450271D01*
X130700000Y-65948271D01*
X129198000Y-65948271D01*
X129198000Y-66187381D01*
X127786616Y-66187381D01*
X125536819Y-63937584D01*
X125503334Y-63876261D01*
X125500500Y-63849903D01*
X125500500Y-63687381D01*
X126698000Y-63687381D01*
X127960890Y-64950271D01*
X128200000Y-64950271D01*
X129198000Y-64950271D01*
X130700000Y-64950271D01*
X131698000Y-64950271D01*
X133200000Y-64950271D01*
X134198000Y-64950271D01*
X135700000Y-64950271D01*
X136698000Y-64950271D01*
X138200000Y-64950271D01*
X138200000Y-63448271D01*
X136698000Y-63448271D01*
X136698000Y-64950271D01*
X135700000Y-64950271D01*
X135700000Y-63448271D01*
X134198000Y-63448271D01*
X134198000Y-64950271D01*
X133200000Y-64950271D01*
X133200000Y-63448271D01*
X131698000Y-63448271D01*
X131698000Y-64950271D01*
X130700000Y-64950271D01*
X130700000Y-63448271D01*
X129198000Y-63448271D01*
X129198000Y-64950271D01*
X128200000Y-64950271D01*
X128200000Y-63448271D01*
X126698000Y-63448271D01*
X126698000Y-63687381D01*
X125500500Y-63687381D01*
X125500500Y-62770730D01*
X125497646Y-62740300D01*
X125497646Y-62740298D01*
X125452793Y-62612119D01*
X125452792Y-62612117D01*
X125372150Y-62502850D01*
X125262882Y-62422207D01*
X125262880Y-62422206D01*
X125134700Y-62377353D01*
X125104270Y-62374500D01*
X125104266Y-62374500D01*
X124195734Y-62374500D01*
X124195730Y-62374500D01*
X124165300Y-62377353D01*
X124165298Y-62377353D01*
X124037119Y-62422206D01*
X124037117Y-62422207D01*
X123927850Y-62502850D01*
X123847207Y-62612117D01*
X123847206Y-62612119D01*
X123802353Y-62740298D01*
X123802353Y-62740300D01*
X123799500Y-62770730D01*
X123799500Y-65029269D01*
X123802353Y-65059699D01*
X123802353Y-65059701D01*
X123847206Y-65187880D01*
X123847207Y-65187882D01*
X123927850Y-65297150D01*
X124037118Y-65377793D01*
X124079845Y-65392744D01*
X124165299Y-65422646D01*
X124195730Y-65425500D01*
X124195734Y-65425500D01*
X125104270Y-65425500D01*
X125128612Y-65423216D01*
X125134699Y-65422646D01*
X125200952Y-65399462D01*
X125270730Y-65395900D01*
X125329588Y-65428823D01*
X133413181Y-73512416D01*
X133446666Y-73573739D01*
X133449500Y-73600097D01*
X133449500Y-74996596D01*
X133429815Y-75063635D01*
X133399137Y-75096364D01*
X133390353Y-75102846D01*
X133390350Y-75102850D01*
X133309707Y-75212117D01*
X133309706Y-75212119D01*
X133264853Y-75340298D01*
X133264853Y-75340300D01*
X133262000Y-75370730D01*
X133262000Y-76429269D01*
X133264853Y-76459699D01*
X133264853Y-76459701D01*
X133309706Y-76587880D01*
X133309707Y-76587882D01*
X133390350Y-76697150D01*
X133499618Y-76777793D01*
X133524747Y-76786586D01*
X133627799Y-76822646D01*
X133658230Y-76825500D01*
X133658234Y-76825500D01*
X134441770Y-76825500D01*
X134479713Y-76821942D01*
X134479946Y-76824435D01*
X134537585Y-76828489D01*
X134582070Y-76857041D01*
X134763181Y-77038152D01*
X134796666Y-77099475D01*
X134799500Y-77125833D01*
X134799500Y-80438504D01*
X134779815Y-80505543D01*
X134729963Y-80549903D01*
X134723652Y-80552988D01*
X134723650Y-80552990D01*
X134637988Y-80638651D01*
X134584780Y-80747488D01*
X134580925Y-80773951D01*
X134574500Y-80818051D01*
X134574500Y-80818056D01*
X134574500Y-81739166D01*
X134554815Y-81806205D01*
X134538181Y-81826847D01*
X134290489Y-82074540D01*
X134234541Y-82130487D01*
X134234535Y-82130495D01*
X134194982Y-82199004D01*
X134194979Y-82199009D01*
X134174500Y-82275439D01*
X134174500Y-89030823D01*
X134154815Y-89097862D01*
X134133617Y-89120477D01*
X134134420Y-89121280D01*
X134127851Y-89127848D01*
X134047207Y-89237117D01*
X134047206Y-89237119D01*
X134002353Y-89365298D01*
X134002353Y-89365300D01*
X133999500Y-89395730D01*
X133999500Y-90404269D01*
X134002353Y-90434699D01*
X134002353Y-90434701D01*
X134044303Y-90554584D01*
X134047207Y-90562882D01*
X134127850Y-90672150D01*
X134237118Y-90752793D01*
X134279845Y-90767744D01*
X134365299Y-90797646D01*
X134395730Y-90800500D01*
X134395734Y-90800500D01*
X135204270Y-90800500D01*
X135234699Y-90797646D01*
X135234701Y-90797646D01*
X135298790Y-90775219D01*
X135362882Y-90752793D01*
X135472150Y-90672150D01*
X135552793Y-90562882D01*
X135593255Y-90447248D01*
X135597646Y-90434701D01*
X135597646Y-90434699D01*
X135600500Y-90404269D01*
X135600500Y-89424833D01*
X135620185Y-89357794D01*
X135672989Y-89312039D01*
X135742147Y-89302095D01*
X135805703Y-89331120D01*
X135812181Y-89337152D01*
X135963181Y-89488152D01*
X135996666Y-89549475D01*
X135999500Y-89575833D01*
X135999500Y-90404269D01*
X136002353Y-90434699D01*
X136002353Y-90434701D01*
X136044303Y-90554584D01*
X136047207Y-90562882D01*
X136127850Y-90672150D01*
X136237118Y-90752793D01*
X136279845Y-90767744D01*
X136365299Y-90797646D01*
X136395730Y-90800500D01*
X136395734Y-90800500D01*
X137204270Y-90800500D01*
X137234699Y-90797646D01*
X137234701Y-90797646D01*
X137298790Y-90775219D01*
X137362882Y-90752793D01*
X137472150Y-90672150D01*
X137552793Y-90562882D01*
X137593255Y-90447248D01*
X137597646Y-90434701D01*
X137597646Y-90434699D01*
X137600500Y-90404269D01*
X137600500Y-89840089D01*
X137620185Y-89773050D01*
X137672989Y-89727295D01*
X137742147Y-89717351D01*
X137805703Y-89746376D01*
X137812181Y-89752408D01*
X140123181Y-92063408D01*
X140156666Y-92124731D01*
X140159500Y-92151089D01*
X140159500Y-92813104D01*
X140139815Y-92880143D01*
X140087011Y-92925898D01*
X140017853Y-92935842D01*
X139988048Y-92927665D01*
X139864332Y-92876421D01*
X139864322Y-92876418D01*
X139728995Y-92849500D01*
X139728993Y-92849500D01*
X139591007Y-92849500D01*
X139591005Y-92849500D01*
X139455677Y-92876418D01*
X139455667Y-92876421D01*
X139328195Y-92929221D01*
X139328182Y-92929228D01*
X139213458Y-93005885D01*
X139213454Y-93005888D01*
X139115888Y-93103454D01*
X139115885Y-93103458D01*
X139039228Y-93218182D01*
X139039221Y-93218195D01*
X138986421Y-93345667D01*
X138986418Y-93345677D01*
X138959500Y-93481004D01*
X138959500Y-93481007D01*
X138959500Y-94318993D01*
X138959500Y-94318995D01*
X138959499Y-94318995D01*
X138986418Y-94454322D01*
X138986421Y-94454332D01*
X139039221Y-94581804D01*
X139039228Y-94581817D01*
X139115885Y-94696541D01*
X139115888Y-94696545D01*
X139213454Y-94794111D01*
X139213458Y-94794114D01*
X139328182Y-94870771D01*
X139328195Y-94870778D01*
X139455667Y-94923578D01*
X139455672Y-94923580D01*
X139455676Y-94923580D01*
X139455677Y-94923581D01*
X139591004Y-94950500D01*
X139591007Y-94950500D01*
X139728995Y-94950500D01*
X139820041Y-94932389D01*
X139864328Y-94923580D01*
X139988047Y-94872333D01*
X140057517Y-94864865D01*
X140119996Y-94896140D01*
X140155648Y-94956229D01*
X140159500Y-94986895D01*
X140159500Y-95599562D01*
X140173152Y-95650513D01*
X140179979Y-95675990D01*
X140179980Y-95675991D01*
X140211415Y-95730438D01*
X140211416Y-95730440D01*
X140219537Y-95744507D01*
X140219539Y-95744510D01*
X140219540Y-95744511D01*
X140429540Y-95954511D01*
X140485489Y-96010460D01*
X140485491Y-96010461D01*
X140485495Y-96010464D01*
X140533171Y-96037989D01*
X140554011Y-96050021D01*
X140630438Y-96070500D01*
X140630440Y-96070500D01*
X142969560Y-96070500D01*
X142969562Y-96070500D01*
X143045989Y-96050021D01*
X143114511Y-96010460D01*
X143170460Y-95954511D01*
X143720460Y-95404511D01*
X143737216Y-95375489D01*
X143760021Y-95335989D01*
X143780500Y-95259562D01*
X143780500Y-94779020D01*
X143800185Y-94711981D01*
X143850039Y-94667620D01*
X143876211Y-94654826D01*
X143882992Y-94648045D01*
X143892319Y-94638719D01*
X143953642Y-94605234D01*
X144023334Y-94610218D01*
X144067681Y-94638719D01*
X144083789Y-94654827D01*
X144169118Y-94696541D01*
X144196375Y-94709866D01*
X144269364Y-94720500D01*
X144269370Y-94720500D01*
X144690630Y-94720500D01*
X144690636Y-94720500D01*
X144763625Y-94709866D01*
X144850045Y-94667618D01*
X144876210Y-94654827D01*
X144876210Y-94654826D01*
X144876211Y-94654826D01*
X144884638Y-94646399D01*
X144945960Y-94612912D01*
X145015652Y-94617894D01*
X145053723Y-94642360D01*
X145053759Y-94642311D01*
X145054621Y-94642937D01*
X145060003Y-94646396D01*
X145061652Y-94648045D01*
X145061654Y-94648046D01*
X145061658Y-94648050D01*
X145166787Y-94701616D01*
X145174698Y-94705647D01*
X145262116Y-94719491D01*
X145268468Y-94720498D01*
X145268475Y-94720499D01*
X145268481Y-94720500D01*
X145731518Y-94720499D01*
X145731523Y-94720499D01*
X145731523Y-94720498D01*
X145819268Y-94706602D01*
X145888561Y-94715557D01*
X145925698Y-94744246D01*
X145927320Y-94742625D01*
X146052267Y-94867572D01*
X146052271Y-94867575D01*
X146196507Y-94956542D01*
X146196518Y-94956547D01*
X146357393Y-95009855D01*
X146456683Y-95019999D01*
X146480000Y-95019998D01*
X146480000Y-93844000D01*
X146499685Y-93776961D01*
X146552489Y-93731206D01*
X146604000Y-93720000D01*
X146856000Y-93720000D01*
X146923039Y-93739685D01*
X146968794Y-93792489D01*
X146980000Y-93844000D01*
X146980000Y-95019999D01*
X147003308Y-95019999D01*
X147003322Y-95019998D01*
X147102607Y-95009855D01*
X147263481Y-94956547D01*
X147263492Y-94956542D01*
X147407728Y-94867575D01*
X147407732Y-94867572D01*
X147527573Y-94747731D01*
X147552372Y-94707526D01*
X147604320Y-94660801D01*
X147673282Y-94649578D01*
X147737364Y-94677421D01*
X147753764Y-94693957D01*
X147755887Y-94696544D01*
X147853454Y-94794111D01*
X147853458Y-94794114D01*
X147968182Y-94870771D01*
X147968195Y-94870778D01*
X148095667Y-94923578D01*
X148095672Y-94923580D01*
X148095676Y-94923580D01*
X148095677Y-94923581D01*
X148231004Y-94950500D01*
X148231007Y-94950500D01*
X148368995Y-94950500D01*
X148460041Y-94932389D01*
X148504328Y-94923580D01*
X148631811Y-94870775D01*
X148746542Y-94794114D01*
X148844114Y-94696542D01*
X148920775Y-94581811D01*
X148973580Y-94454328D01*
X148994030Y-94351519D01*
X149000500Y-94318995D01*
X149000500Y-93481004D01*
X148973581Y-93345677D01*
X148973580Y-93345676D01*
X148973580Y-93345672D01*
X148973578Y-93345667D01*
X148920778Y-93218195D01*
X148920771Y-93218182D01*
X148844114Y-93103458D01*
X148844111Y-93103454D01*
X148746545Y-93005888D01*
X148746541Y-93005885D01*
X148631817Y-92929228D01*
X148631804Y-92929221D01*
X148504332Y-92876421D01*
X148504322Y-92876418D01*
X148368995Y-92849500D01*
X148368993Y-92849500D01*
X148231007Y-92849500D01*
X148231005Y-92849500D01*
X148095677Y-92876418D01*
X148095667Y-92876421D01*
X147968195Y-92929221D01*
X147968182Y-92929228D01*
X147853455Y-93005887D01*
X147850893Y-93007990D01*
X147849289Y-93008670D01*
X147848393Y-93009270D01*
X147848279Y-93009099D01*
X147786582Y-93035299D01*
X147717715Y-93023504D01*
X147666158Y-92976349D01*
X147654528Y-92951136D01*
X147616547Y-92836518D01*
X147616542Y-92836507D01*
X147527575Y-92692271D01*
X147527572Y-92692267D01*
X147407732Y-92572427D01*
X147407728Y-92572424D01*
X147263492Y-92483457D01*
X147263481Y-92483452D01*
X147102606Y-92430144D01*
X147003322Y-92420000D01*
X146928596Y-92420000D01*
X146861557Y-92400315D01*
X146815802Y-92347511D01*
X146805858Y-92278353D01*
X146834883Y-92214797D01*
X146840904Y-92208330D01*
X149538319Y-89510914D01*
X149599642Y-89477430D01*
X149669334Y-89482414D01*
X149725267Y-89524286D01*
X149749684Y-89589750D01*
X149750000Y-89598596D01*
X149750000Y-100775582D01*
X149730315Y-100842621D01*
X149677511Y-100888376D01*
X149625999Y-100899582D01*
X134615973Y-100899500D01*
X134615893Y-100899500D01*
X134615891Y-100899500D01*
X134484107Y-100899500D01*
X134356811Y-100933608D01*
X134242685Y-100999500D01*
X134242681Y-100999503D01*
X134196090Y-101046094D01*
X134149504Y-101092682D01*
X134149502Y-101092684D01*
X134148328Y-101093857D01*
X134145435Y-101099724D01*
X134138308Y-101112066D01*
X134138309Y-101112067D01*
X134083610Y-101206807D01*
X134083609Y-101206808D01*
X134049499Y-101334107D01*
X134049500Y-101334109D01*
X134049529Y-121810549D01*
X134029845Y-121877588D01*
X133977041Y-121923343D01*
X133925800Y-121934549D01*
X108762988Y-121989490D01*
X108695905Y-121969952D01*
X108650035Y-121917248D01*
X108639941Y-121848111D01*
X108668827Y-121784492D01*
X108698789Y-121759239D01*
X108904629Y-121635390D01*
X108904632Y-121635388D01*
X109189504Y-121418836D01*
X109202742Y-121406294D01*
X107990698Y-120194251D01*
X108092330Y-120120412D01*
X108270412Y-119942330D01*
X108344251Y-119840698D01*
X109553556Y-121050003D01*
X109680964Y-120900008D01*
X109680975Y-120899994D01*
X109881781Y-120603827D01*
X110049393Y-120287677D01*
X110049402Y-120287659D01*
X110181850Y-119955239D01*
X110181852Y-119955232D01*
X110183229Y-119950271D01*
X111698000Y-119950271D01*
X113200000Y-119950271D01*
X114198000Y-119950271D01*
X115700000Y-119950271D01*
X116698000Y-119950271D01*
X118200000Y-119950271D01*
X119198000Y-119950271D01*
X120700000Y-119950271D01*
X121698000Y-119950271D01*
X123200000Y-119950271D01*
X124198000Y-119950271D01*
X125700000Y-119950271D01*
X126698000Y-119950271D01*
X128200000Y-119950271D01*
X129198000Y-119950271D01*
X130700000Y-119950271D01*
X131698000Y-119950271D01*
X133051526Y-119950271D01*
X133051523Y-118448271D01*
X131698000Y-118448271D01*
X131698000Y-119950271D01*
X130700000Y-119950271D01*
X130700000Y-118448271D01*
X129198000Y-118448271D01*
X129198000Y-119950271D01*
X128200000Y-119950271D01*
X128200000Y-118448271D01*
X126698000Y-118448271D01*
X126698000Y-119950271D01*
X125700000Y-119950271D01*
X125700000Y-118448271D01*
X124198000Y-118448271D01*
X124198000Y-119950271D01*
X123200000Y-119950271D01*
X123200000Y-118448271D01*
X121698000Y-118448271D01*
X121698000Y-119950271D01*
X120700000Y-119950271D01*
X120700000Y-118448271D01*
X119198000Y-118448271D01*
X119198000Y-119950271D01*
X118200000Y-119950271D01*
X118200000Y-118448271D01*
X116698000Y-118448271D01*
X116698000Y-119950271D01*
X115700000Y-119950271D01*
X115700000Y-118448271D01*
X114198000Y-118448271D01*
X114198000Y-119950271D01*
X113200000Y-119950271D01*
X113200000Y-118448271D01*
X111698000Y-118448271D01*
X111698000Y-119950271D01*
X110183229Y-119950271D01*
X110277578Y-119610457D01*
X110277584Y-119610431D01*
X110335472Y-119257331D01*
X110335473Y-119257314D01*
X110354847Y-118900002D01*
X110354847Y-118899997D01*
X110335473Y-118542685D01*
X110335472Y-118542668D01*
X110277584Y-118189568D01*
X110277578Y-118189542D01*
X110181852Y-117844767D01*
X110181850Y-117844760D01*
X110049402Y-117512340D01*
X110049393Y-117512322D01*
X110016496Y-117450271D01*
X111698000Y-117450271D01*
X113200000Y-117450271D01*
X114198000Y-117450271D01*
X115700000Y-117450271D01*
X116698000Y-117450271D01*
X118200000Y-117450271D01*
X119198000Y-117450271D01*
X120700000Y-117450271D01*
X121698000Y-117450271D01*
X123200000Y-117450271D01*
X124198000Y-117450271D01*
X125700000Y-117450271D01*
X126698000Y-117450271D01*
X128200000Y-117450271D01*
X129198000Y-117450271D01*
X130700000Y-117450271D01*
X131698000Y-117450271D01*
X133051522Y-117450271D01*
X133051520Y-115948271D01*
X131698000Y-115948271D01*
X131698000Y-117450271D01*
X130700000Y-117450271D01*
X130700000Y-115948271D01*
X129198000Y-115948271D01*
X129198000Y-117450271D01*
X128200000Y-117450271D01*
X128200000Y-115948271D01*
X126698000Y-115948271D01*
X126698000Y-117450271D01*
X125700000Y-117450271D01*
X125700000Y-115948271D01*
X124198000Y-115948271D01*
X124198000Y-117450271D01*
X123200000Y-117450271D01*
X123200000Y-115948271D01*
X121698000Y-115948271D01*
X121698000Y-117450271D01*
X120700000Y-117450271D01*
X120700000Y-115948271D01*
X119198000Y-115948271D01*
X119198000Y-117450271D01*
X118200000Y-117450271D01*
X118200000Y-115948271D01*
X116698000Y-115948271D01*
X116698000Y-117450271D01*
X115700000Y-117450271D01*
X115700000Y-115948271D01*
X114198000Y-115948271D01*
X114198000Y-117450271D01*
X113200000Y-117450271D01*
X113200000Y-115948271D01*
X111698000Y-115948271D01*
X111698000Y-117450271D01*
X110016496Y-117450271D01*
X109881781Y-117196172D01*
X109680966Y-116899992D01*
X109553557Y-116749995D01*
X109553556Y-116749994D01*
X108344250Y-117959299D01*
X108270412Y-117857670D01*
X108092330Y-117679588D01*
X107990697Y-117605747D01*
X109202743Y-116393703D01*
X109202742Y-116393702D01*
X109189514Y-116381171D01*
X109189513Y-116381170D01*
X108904632Y-116164611D01*
X108904629Y-116164609D01*
X108598009Y-115980123D01*
X108273260Y-115829877D01*
X108273255Y-115829876D01*
X107934144Y-115715616D01*
X107584660Y-115638688D01*
X107228924Y-115600000D01*
X106871075Y-115600000D01*
X106515339Y-115638688D01*
X106165855Y-115715616D01*
X105826744Y-115829876D01*
X105826739Y-115829877D01*
X105501990Y-115980123D01*
X105195370Y-116164609D01*
X105195367Y-116164611D01*
X104910491Y-116381166D01*
X104897256Y-116393703D01*
X104897255Y-116393703D01*
X106109301Y-117605748D01*
X106007670Y-117679588D01*
X105829588Y-117857670D01*
X105755748Y-117959301D01*
X104546442Y-116749994D01*
X104546441Y-116749995D01*
X104419040Y-116899983D01*
X104419033Y-116899993D01*
X104218218Y-117196172D01*
X104183555Y-117261554D01*
X104134762Y-117311564D01*
X104066677Y-117327255D01*
X104000917Y-117303645D01*
X103958360Y-117248231D01*
X103950000Y-117203471D01*
X103950000Y-114950271D01*
X105074000Y-114950271D01*
X105351162Y-114950271D01*
X109198000Y-114950271D01*
X110700000Y-114950271D01*
X111698000Y-114950271D01*
X113200000Y-114950271D01*
X114198000Y-114950271D01*
X115700000Y-114950271D01*
X116698000Y-114950271D01*
X118200000Y-114950271D01*
X119198000Y-114950271D01*
X120700000Y-114950271D01*
X121698000Y-114950271D01*
X123200000Y-114950271D01*
X124198000Y-114950271D01*
X125700000Y-114950271D01*
X126698000Y-114950271D01*
X128200000Y-114950271D01*
X129198000Y-114950271D01*
X130700000Y-114950271D01*
X131698000Y-114950271D01*
X133051519Y-114950271D01*
X133051516Y-113448271D01*
X131698000Y-113448271D01*
X131698000Y-114950271D01*
X130700000Y-114950271D01*
X130700000Y-113448271D01*
X129198000Y-113448271D01*
X129198000Y-114950271D01*
X128200000Y-114950271D01*
X128200000Y-113448271D01*
X126698000Y-113448271D01*
X126698000Y-114950271D01*
X125700000Y-114950271D01*
X125700000Y-113448271D01*
X124198000Y-113448271D01*
X124198000Y-114950271D01*
X123200000Y-114950271D01*
X123200000Y-113448271D01*
X121698000Y-113448271D01*
X121698000Y-114950271D01*
X120700000Y-114950271D01*
X120700000Y-113448271D01*
X119198000Y-113448271D01*
X119198000Y-114950271D01*
X118200000Y-114950271D01*
X118200000Y-113448271D01*
X116698000Y-113448271D01*
X116698000Y-114950271D01*
X115700000Y-114950271D01*
X115700000Y-113448271D01*
X114198000Y-113448271D01*
X114198000Y-114950271D01*
X113200000Y-114950271D01*
X113200000Y-113448271D01*
X111698000Y-113448271D01*
X111698000Y-114950271D01*
X110700000Y-114950271D01*
X110700000Y-113448271D01*
X109198000Y-113448271D01*
X109198000Y-114950271D01*
X105351162Y-114950271D01*
X105419981Y-114918432D01*
X105423056Y-114917059D01*
X105441748Y-114909020D01*
X105444852Y-114907735D01*
X105469964Y-114897732D01*
X105473093Y-114896534D01*
X105492129Y-114889541D01*
X105495293Y-114888427D01*
X105700000Y-114819452D01*
X105700000Y-114614938D01*
X106698000Y-114614938D01*
X106776607Y-114606390D01*
X106779950Y-114606072D01*
X106800178Y-114604425D01*
X106803521Y-114604198D01*
X106830512Y-114602733D01*
X106833871Y-114602597D01*
X106854194Y-114602046D01*
X106857555Y-114602000D01*
X107242445Y-114602000D01*
X107245806Y-114602046D01*
X107266129Y-114602597D01*
X107269488Y-114602733D01*
X107296479Y-114604198D01*
X107299822Y-114604425D01*
X107320050Y-114606072D01*
X107323394Y-114606390D01*
X107706005Y-114648001D01*
X107709338Y-114648409D01*
X107729470Y-114651152D01*
X107732790Y-114651650D01*
X107759466Y-114656023D01*
X107762777Y-114656612D01*
X107782723Y-114660440D01*
X107786008Y-114661117D01*
X108161875Y-114743852D01*
X108165142Y-114744618D01*
X108184843Y-114749517D01*
X108188091Y-114750371D01*
X108200000Y-114753677D01*
X108200000Y-113448271D01*
X106698000Y-113448271D01*
X106698000Y-114614938D01*
X105700000Y-114614938D01*
X105700000Y-113448271D01*
X105074000Y-113448271D01*
X105074000Y-114950271D01*
X103950000Y-114950271D01*
X103950000Y-112450271D01*
X105074000Y-112450271D01*
X105700000Y-112450271D01*
X106698000Y-112450271D01*
X108200000Y-112450271D01*
X109198000Y-112450271D01*
X110700000Y-112450271D01*
X111698000Y-112450271D01*
X113200000Y-112450271D01*
X114198000Y-112450271D01*
X115700000Y-112450271D01*
X116698000Y-112450271D01*
X118200000Y-112450271D01*
X119198000Y-112450271D01*
X120700000Y-112450271D01*
X121698000Y-112450271D01*
X123200000Y-112450271D01*
X124198000Y-112450271D01*
X125700000Y-112450271D01*
X126698000Y-112450271D01*
X128200000Y-112450271D01*
X129198000Y-112450271D01*
X130700000Y-112450271D01*
X131698000Y-112450271D01*
X133051515Y-112450271D01*
X133051513Y-110948271D01*
X131698000Y-110948271D01*
X131698000Y-112450271D01*
X130700000Y-112450271D01*
X130700000Y-110948271D01*
X129198000Y-110948271D01*
X129198000Y-112450271D01*
X128200000Y-112450271D01*
X128200000Y-110948271D01*
X126698000Y-110948271D01*
X126698000Y-112450271D01*
X125700000Y-112450271D01*
X125700000Y-110948271D01*
X124198000Y-110948271D01*
X124198000Y-112450271D01*
X123200000Y-112450271D01*
X123200000Y-110948271D01*
X121698000Y-110948271D01*
X121698000Y-112450271D01*
X120700000Y-112450271D01*
X120700000Y-110948271D01*
X119198000Y-110948271D01*
X119198000Y-112450271D01*
X118200000Y-112450271D01*
X118200000Y-110948271D01*
X116698000Y-110948271D01*
X116698000Y-112450271D01*
X115700000Y-112450271D01*
X115700000Y-110948271D01*
X114198000Y-110948271D01*
X114198000Y-112450271D01*
X113200000Y-112450271D01*
X113200000Y-110948271D01*
X111698000Y-110948271D01*
X111698000Y-112450271D01*
X110700000Y-112450271D01*
X110700000Y-110948271D01*
X109198000Y-110948271D01*
X109198000Y-112450271D01*
X108200000Y-112450271D01*
X108200000Y-110948271D01*
X106698000Y-110948271D01*
X106698000Y-112450271D01*
X105700000Y-112450271D01*
X105700000Y-110948271D01*
X105074000Y-110948271D01*
X105074000Y-112450271D01*
X103950000Y-112450271D01*
X103950000Y-109950271D01*
X105074000Y-109950271D01*
X105700000Y-109950271D01*
X106698000Y-109950271D01*
X108200000Y-109950271D01*
X109198000Y-109950271D01*
X110700000Y-109950271D01*
X111698000Y-109950271D01*
X113200000Y-109950271D01*
X114198000Y-109950271D01*
X115700000Y-109950271D01*
X116698000Y-109950271D01*
X118200000Y-109950271D01*
X119198000Y-109950271D01*
X120700000Y-109950271D01*
X121698000Y-109950271D01*
X123200000Y-109950271D01*
X124198000Y-109950271D01*
X125700000Y-109950271D01*
X126698000Y-109950271D01*
X128200000Y-109950271D01*
X129198000Y-109950271D01*
X130700000Y-109950271D01*
X131698000Y-109950271D01*
X133051512Y-109950271D01*
X133051510Y-108448271D01*
X131698000Y-108448271D01*
X131698000Y-109950271D01*
X130700000Y-109950271D01*
X130700000Y-108448271D01*
X129198000Y-108448271D01*
X129198000Y-109950271D01*
X128200000Y-109950271D01*
X128200000Y-108448271D01*
X126698000Y-108448271D01*
X126698000Y-109950271D01*
X125700000Y-109950271D01*
X125700000Y-108448271D01*
X124198000Y-108448271D01*
X124198000Y-109950271D01*
X123200000Y-109950271D01*
X123200000Y-108448271D01*
X121698000Y-108448271D01*
X121698000Y-109950271D01*
X120700000Y-109950271D01*
X120700000Y-108448271D01*
X119198000Y-108448271D01*
X119198000Y-109950271D01*
X118200000Y-109950271D01*
X118200000Y-108448271D01*
X116698000Y-108448271D01*
X116698000Y-109950271D01*
X115700000Y-109950271D01*
X115700000Y-108448271D01*
X114198000Y-108448271D01*
X114198000Y-109950271D01*
X113200000Y-109950271D01*
X113200000Y-108448271D01*
X111698000Y-108448271D01*
X111698000Y-109950271D01*
X110700000Y-109950271D01*
X110700000Y-108448271D01*
X109198000Y-108448271D01*
X109198000Y-109950271D01*
X108200000Y-109950271D01*
X108200000Y-108448271D01*
X106698000Y-108448271D01*
X106698000Y-109950271D01*
X105700000Y-109950271D01*
X105700000Y-108448271D01*
X105074000Y-108448271D01*
X105074000Y-109950271D01*
X103950000Y-109950271D01*
X103950000Y-107450271D01*
X105074000Y-107450271D01*
X105700000Y-107450271D01*
X106698000Y-107450271D01*
X108200000Y-107450271D01*
X109198000Y-107450271D01*
X110700000Y-107450271D01*
X111698000Y-107450271D01*
X113200000Y-107450271D01*
X114198000Y-107450271D01*
X115700000Y-107450271D01*
X116698000Y-107450271D01*
X118200000Y-107450271D01*
X119198000Y-107450271D01*
X120700000Y-107450271D01*
X121698000Y-107450271D01*
X123200000Y-107450271D01*
X124198000Y-107450271D01*
X125700000Y-107450271D01*
X126698000Y-107450271D01*
X128200000Y-107450271D01*
X129198000Y-107450271D01*
X130700000Y-107450271D01*
X131698000Y-107450271D01*
X133051509Y-107450271D01*
X133051506Y-105948271D01*
X131698000Y-105948271D01*
X131698000Y-107450271D01*
X130700000Y-107450271D01*
X130700000Y-105948271D01*
X129198000Y-105948271D01*
X129198000Y-107450271D01*
X128200000Y-107450271D01*
X128200000Y-105948271D01*
X126698000Y-105948271D01*
X126698000Y-107450271D01*
X125700000Y-107450271D01*
X125700000Y-105948271D01*
X124198000Y-105948271D01*
X124198000Y-107450271D01*
X123200000Y-107450271D01*
X123200000Y-105948271D01*
X121698000Y-105948271D01*
X121698000Y-107450271D01*
X120700000Y-107450271D01*
X120700000Y-105948271D01*
X119198000Y-105948271D01*
X119198000Y-107450271D01*
X118200000Y-107450271D01*
X118200000Y-105948271D01*
X116698000Y-105948271D01*
X116698000Y-107450271D01*
X115700000Y-107450271D01*
X115700000Y-105948271D01*
X114198000Y-105948271D01*
X114198000Y-107450271D01*
X113200000Y-107450271D01*
X113200000Y-105948271D01*
X111698000Y-105948271D01*
X111698000Y-107450271D01*
X110700000Y-107450271D01*
X110700000Y-105948271D01*
X109198000Y-105948271D01*
X109198000Y-107450271D01*
X108200000Y-107450271D01*
X108200000Y-105948271D01*
X106698000Y-105948271D01*
X106698000Y-107450271D01*
X105700000Y-107450271D01*
X105700000Y-105948271D01*
X105074000Y-105948271D01*
X105074000Y-107450271D01*
X103950000Y-107450271D01*
X103950000Y-104950271D01*
X105074000Y-104950271D01*
X105700000Y-104950271D01*
X106698000Y-104950271D01*
X108200000Y-104950271D01*
X109198000Y-104950271D01*
X110700000Y-104950271D01*
X111698000Y-104950271D01*
X113200000Y-104950271D01*
X114198000Y-104950271D01*
X115700000Y-104950271D01*
X116698000Y-104950271D01*
X118200000Y-104950271D01*
X119198000Y-104950271D01*
X120700000Y-104950271D01*
X121698000Y-104950271D01*
X123200000Y-104950271D01*
X131698000Y-104950271D01*
X133051505Y-104950271D01*
X133051503Y-103448271D01*
X131698000Y-103448271D01*
X131698000Y-104950271D01*
X123200000Y-104950271D01*
X123200000Y-104150000D01*
X124300000Y-104150000D01*
X129800000Y-104150000D01*
X129800000Y-102450271D01*
X131698000Y-102450271D01*
X133051502Y-102450271D01*
X133051500Y-101334110D01*
X133051500Y-101301421D01*
X133051765Y-101293311D01*
X133054977Y-101244305D01*
X133055773Y-101236227D01*
X133064306Y-101171425D01*
X133065628Y-101163421D01*
X133075207Y-101115265D01*
X133077049Y-101107363D01*
X133119678Y-100948271D01*
X131698000Y-100948271D01*
X131698000Y-102450271D01*
X129800000Y-102450271D01*
X129800000Y-99950271D01*
X131698000Y-99950271D01*
X133200000Y-99950271D01*
X133200000Y-99942957D01*
X134198000Y-99942957D01*
X134257371Y-99927049D01*
X134265271Y-99925207D01*
X134313425Y-99915628D01*
X134321429Y-99914306D01*
X134386229Y-99905773D01*
X134394308Y-99904977D01*
X134443314Y-99901765D01*
X134449466Y-99901564D01*
X146698000Y-99901564D01*
X148200000Y-99901573D01*
X148200000Y-99748330D01*
X148163652Y-99746545D01*
X148157582Y-99746097D01*
X148108810Y-99741294D01*
X148102769Y-99740549D01*
X148066338Y-99735145D01*
X148060341Y-99734104D01*
X147876934Y-99697622D01*
X147870992Y-99696288D01*
X147835266Y-99687338D01*
X147829402Y-99685715D01*
X147782507Y-99671489D01*
X147776730Y-99669581D01*
X147742068Y-99657179D01*
X147736389Y-99654988D01*
X147563638Y-99583432D01*
X147558076Y-99580967D01*
X147524795Y-99565227D01*
X147519359Y-99562490D01*
X147476138Y-99539389D01*
X147470843Y-99536390D01*
X147439250Y-99517455D01*
X147434105Y-99514197D01*
X147278625Y-99410307D01*
X147273651Y-99406804D01*
X147244078Y-99384872D01*
X147239278Y-99381126D01*
X147201396Y-99350037D01*
X147196789Y-99346063D01*
X147169502Y-99321332D01*
X147165093Y-99317134D01*
X147032866Y-99184907D01*
X147028668Y-99180498D01*
X147003937Y-99153211D01*
X146999963Y-99148604D01*
X146968874Y-99110722D01*
X146965128Y-99105922D01*
X146943196Y-99076349D01*
X146939693Y-99071375D01*
X146835803Y-98915895D01*
X146832545Y-98910750D01*
X146813610Y-98879157D01*
X146810611Y-98873862D01*
X146787510Y-98830641D01*
X146784773Y-98825205D01*
X146769033Y-98791924D01*
X146766568Y-98786362D01*
X146698000Y-98620824D01*
X146698000Y-99901564D01*
X134449466Y-99901564D01*
X134449864Y-99901551D01*
X144198000Y-99901551D01*
X145700000Y-99901559D01*
X145700000Y-98448271D01*
X144198000Y-98448271D01*
X144198000Y-99901551D01*
X134449864Y-99901551D01*
X134450292Y-99901537D01*
X141698000Y-99901537D01*
X143200000Y-99901546D01*
X143200000Y-98448271D01*
X141698000Y-98448271D01*
X141698000Y-99901537D01*
X134450292Y-99901537D01*
X134451118Y-99901510D01*
X136698000Y-99901510D01*
X138200000Y-99901519D01*
X138200000Y-98922175D01*
X138195804Y-98915896D01*
X138192545Y-98910750D01*
X138173610Y-98879157D01*
X138170611Y-98873862D01*
X138147510Y-98830641D01*
X138144773Y-98825205D01*
X138129033Y-98791924D01*
X138126568Y-98786362D01*
X138055012Y-98613611D01*
X138052821Y-98607932D01*
X138040419Y-98573270D01*
X138038511Y-98567493D01*
X138024285Y-98520598D01*
X138022662Y-98514734D01*
X138013712Y-98479008D01*
X138012378Y-98473066D01*
X138007446Y-98448271D01*
X136698000Y-98448271D01*
X136698000Y-99901510D01*
X134451118Y-99901510D01*
X134451424Y-99901500D01*
X134615896Y-99901500D01*
X135700000Y-99901505D01*
X135700000Y-98448271D01*
X134198000Y-98448271D01*
X134198000Y-99942957D01*
X133200000Y-99942957D01*
X133200000Y-98448271D01*
X131698000Y-98448271D01*
X131698000Y-99950271D01*
X129800000Y-99950271D01*
X129800000Y-98400000D01*
X124300000Y-98400000D01*
X124300000Y-104150000D01*
X123200000Y-104150000D01*
X123200000Y-103448271D01*
X121698000Y-103448271D01*
X121698000Y-104950271D01*
X120700000Y-104950271D01*
X120700000Y-103448271D01*
X119198000Y-103448271D01*
X119198000Y-104950271D01*
X118200000Y-104950271D01*
X118200000Y-103448271D01*
X116698000Y-103448271D01*
X116698000Y-104950271D01*
X115700000Y-104950271D01*
X115700000Y-103448271D01*
X114198000Y-103448271D01*
X114198000Y-104950271D01*
X113200000Y-104950271D01*
X113200000Y-103448271D01*
X111698000Y-103448271D01*
X111698000Y-104950271D01*
X110700000Y-104950271D01*
X110700000Y-103448271D01*
X109198000Y-103448271D01*
X109198000Y-104950271D01*
X108200000Y-104950271D01*
X108200000Y-103448271D01*
X106698000Y-103448271D01*
X106698000Y-104950271D01*
X105700000Y-104950271D01*
X105700000Y-103448271D01*
X105074000Y-103448271D01*
X105074000Y-104950271D01*
X103950000Y-104950271D01*
X103950000Y-102450271D01*
X105074000Y-102450271D01*
X105700000Y-102450271D01*
X106698000Y-102450271D01*
X108200000Y-102450271D01*
X109198000Y-102450271D01*
X110700000Y-102450271D01*
X111698000Y-102450271D01*
X113200000Y-102450271D01*
X114198000Y-102450271D01*
X115700000Y-102450271D01*
X116698000Y-102450271D01*
X118200000Y-102450271D01*
X119198000Y-102450271D01*
X120700000Y-102450271D01*
X121698000Y-102450271D01*
X123200000Y-102450271D01*
X123200000Y-100948271D01*
X121698000Y-100948271D01*
X121698000Y-102450271D01*
X120700000Y-102450271D01*
X120700000Y-100948271D01*
X119198000Y-100948271D01*
X119198000Y-102450271D01*
X118200000Y-102450271D01*
X118200000Y-100948271D01*
X116698000Y-100948271D01*
X116698000Y-102450271D01*
X115700000Y-102450271D01*
X115700000Y-100948271D01*
X114198000Y-100948271D01*
X114198000Y-102450271D01*
X113200000Y-102450271D01*
X113200000Y-100948271D01*
X111698000Y-100948271D01*
X111698000Y-102450271D01*
X110700000Y-102450271D01*
X110700000Y-100948271D01*
X109198000Y-100948271D01*
X109198000Y-102450271D01*
X108200000Y-102450271D01*
X108200000Y-100948271D01*
X106698000Y-100948271D01*
X106698000Y-102450271D01*
X105700000Y-102450271D01*
X105700000Y-100948271D01*
X105074000Y-100948271D01*
X105074000Y-102450271D01*
X103950000Y-102450271D01*
X103950000Y-99950271D01*
X105074000Y-99950271D01*
X105700000Y-99950271D01*
X106698000Y-99950271D01*
X108200000Y-99950271D01*
X109198000Y-99950271D01*
X110700000Y-99950271D01*
X111698000Y-99950271D01*
X113200000Y-99950271D01*
X114198000Y-99950271D01*
X115700000Y-99950271D01*
X116698000Y-99950271D01*
X118200000Y-99950271D01*
X119198000Y-99950271D01*
X120700000Y-99950271D01*
X121698000Y-99950271D01*
X123200000Y-99950271D01*
X123200000Y-98448271D01*
X121698000Y-98448271D01*
X121698000Y-99950271D01*
X120700000Y-99950271D01*
X120700000Y-98448271D01*
X119198000Y-98448271D01*
X119198000Y-99950271D01*
X118200000Y-99950271D01*
X118200000Y-98448271D01*
X116698000Y-98448271D01*
X116698000Y-99950271D01*
X115700000Y-99950271D01*
X115700000Y-98448271D01*
X114198000Y-98448271D01*
X114198000Y-99950271D01*
X113200000Y-99950271D01*
X113200000Y-98448271D01*
X111698000Y-98448271D01*
X111698000Y-99950271D01*
X110700000Y-99950271D01*
X110700000Y-98448271D01*
X109198000Y-98448271D01*
X109198000Y-99950271D01*
X108200000Y-99950271D01*
X108200000Y-98448271D01*
X106698000Y-98448271D01*
X106698000Y-99950271D01*
X105700000Y-99950271D01*
X105700000Y-98448271D01*
X105074000Y-98448271D01*
X105074000Y-99950271D01*
X103950000Y-99950271D01*
X103950000Y-98118995D01*
X138959499Y-98118995D01*
X138986418Y-98254322D01*
X138986421Y-98254332D01*
X139039221Y-98381804D01*
X139039228Y-98381817D01*
X139115885Y-98496541D01*
X139115888Y-98496545D01*
X139213454Y-98594111D01*
X139213458Y-98594114D01*
X139328182Y-98670771D01*
X139328195Y-98670778D01*
X139455667Y-98723578D01*
X139455672Y-98723580D01*
X139455676Y-98723580D01*
X139455677Y-98723581D01*
X139591004Y-98750500D01*
X139591007Y-98750500D01*
X139728995Y-98750500D01*
X139820041Y-98732389D01*
X139864328Y-98723580D01*
X139991811Y-98670775D01*
X140106542Y-98594114D01*
X140204114Y-98496542D01*
X140280775Y-98381811D01*
X140333580Y-98254328D01*
X140360500Y-98118995D01*
X147599499Y-98118995D01*
X147626418Y-98254322D01*
X147626421Y-98254332D01*
X147679221Y-98381804D01*
X147679228Y-98381817D01*
X147755885Y-98496541D01*
X147755888Y-98496545D01*
X147853454Y-98594111D01*
X147853458Y-98594114D01*
X147968182Y-98670771D01*
X147968195Y-98670778D01*
X148095667Y-98723578D01*
X148095672Y-98723580D01*
X148095676Y-98723580D01*
X148095677Y-98723581D01*
X148231004Y-98750500D01*
X148231007Y-98750500D01*
X148368995Y-98750500D01*
X148460041Y-98732389D01*
X148504328Y-98723580D01*
X148631811Y-98670775D01*
X148746542Y-98594114D01*
X148844114Y-98496542D01*
X148920775Y-98381811D01*
X148973580Y-98254328D01*
X149000500Y-98118993D01*
X149000500Y-97281007D01*
X149000500Y-97281004D01*
X148973581Y-97145677D01*
X148973580Y-97145676D01*
X148973580Y-97145672D01*
X148961430Y-97116338D01*
X148920778Y-97018195D01*
X148920771Y-97018182D01*
X148844114Y-96903458D01*
X148844111Y-96903454D01*
X148746545Y-96805888D01*
X148746541Y-96805885D01*
X148631817Y-96729228D01*
X148631804Y-96729221D01*
X148504332Y-96676421D01*
X148504322Y-96676418D01*
X148368995Y-96649500D01*
X148368993Y-96649500D01*
X148231007Y-96649500D01*
X148231005Y-96649500D01*
X148095677Y-96676418D01*
X148095667Y-96676421D01*
X147968195Y-96729221D01*
X147968182Y-96729228D01*
X147853458Y-96805885D01*
X147853454Y-96805888D01*
X147755888Y-96903454D01*
X147755885Y-96903458D01*
X147679228Y-97018182D01*
X147679221Y-97018195D01*
X147626421Y-97145667D01*
X147626418Y-97145677D01*
X147599500Y-97281004D01*
X147599500Y-97281007D01*
X147599500Y-98118993D01*
X147599500Y-98118995D01*
X147599499Y-98118995D01*
X140360500Y-98118995D01*
X140360500Y-98118993D01*
X140360500Y-97281007D01*
X140360500Y-97281004D01*
X140333581Y-97145677D01*
X140333580Y-97145676D01*
X140333580Y-97145672D01*
X140321430Y-97116338D01*
X140301615Y-97068500D01*
X141698000Y-97068500D01*
X141698000Y-97450271D01*
X143200000Y-97450271D01*
X143200000Y-97041959D01*
X143196305Y-97042950D01*
X143188405Y-97044792D01*
X143140248Y-97054372D01*
X143132242Y-97055694D01*
X143067440Y-97064227D01*
X143059362Y-97065023D01*
X143010356Y-97068235D01*
X143002246Y-97068500D01*
X141698000Y-97068500D01*
X140301615Y-97068500D01*
X140280778Y-97018195D01*
X140280771Y-97018182D01*
X140204114Y-96903458D01*
X140204111Y-96903454D01*
X140106545Y-96805888D01*
X140106541Y-96805885D01*
X139991817Y-96729228D01*
X139991804Y-96729221D01*
X139864332Y-96676421D01*
X139864322Y-96676418D01*
X139728995Y-96649500D01*
X139728993Y-96649500D01*
X139591007Y-96649500D01*
X139591005Y-96649500D01*
X139455677Y-96676418D01*
X139455667Y-96676421D01*
X139328195Y-96729221D01*
X139328182Y-96729228D01*
X139213458Y-96805885D01*
X139213454Y-96805888D01*
X139115888Y-96903454D01*
X139115885Y-96903458D01*
X139039228Y-97018182D01*
X139039221Y-97018195D01*
X138986421Y-97145667D01*
X138986418Y-97145677D01*
X138959500Y-97281004D01*
X138959500Y-97281007D01*
X138959500Y-98118993D01*
X138959500Y-98118995D01*
X138959499Y-98118995D01*
X103950000Y-98118995D01*
X103950000Y-97450271D01*
X105074000Y-97450271D01*
X105700000Y-97450271D01*
X106698000Y-97450271D01*
X108200000Y-97450271D01*
X109198000Y-97450271D01*
X110700000Y-97450271D01*
X111698000Y-97450271D01*
X113200000Y-97450271D01*
X114198000Y-97450271D01*
X115700000Y-97450271D01*
X116698000Y-97450271D01*
X118200000Y-97450271D01*
X119198000Y-97450271D01*
X120700000Y-97450271D01*
X121698000Y-97450271D01*
X123200000Y-97450271D01*
X123200000Y-97402000D01*
X124198000Y-97402000D01*
X125700000Y-97402000D01*
X126698000Y-97402000D01*
X128200000Y-97402000D01*
X129198000Y-97402000D01*
X130000546Y-97402000D01*
X130047999Y-97411439D01*
X130141747Y-97450271D01*
X130700000Y-97450271D01*
X131698000Y-97450271D01*
X133200000Y-97450271D01*
X134198000Y-97450271D01*
X135700000Y-97450271D01*
X136698000Y-97450271D01*
X137961500Y-97450271D01*
X137961500Y-97256507D01*
X137961649Y-97250424D01*
X137963455Y-97213652D01*
X137963903Y-97207582D01*
X137968706Y-97158810D01*
X137969451Y-97152769D01*
X137974855Y-97116338D01*
X137975896Y-97110341D01*
X138012378Y-96926934D01*
X138013712Y-96920992D01*
X138022662Y-96885266D01*
X138024285Y-96879402D01*
X138038511Y-96832507D01*
X138040419Y-96826730D01*
X138052821Y-96792068D01*
X138055012Y-96786389D01*
X138126568Y-96613638D01*
X138129033Y-96608076D01*
X138144773Y-96574795D01*
X138147510Y-96569359D01*
X138170611Y-96526138D01*
X138173610Y-96520843D01*
X138192545Y-96489250D01*
X138195803Y-96484105D01*
X138200000Y-96477823D01*
X138200000Y-96338355D01*
X144198000Y-96338355D01*
X144198000Y-97450271D01*
X145700000Y-97450271D01*
X145700000Y-95948271D01*
X144557735Y-95948271D01*
X144536841Y-95979541D01*
X144532114Y-95986137D01*
X144492326Y-96037989D01*
X144487178Y-96044263D01*
X144454804Y-96081177D01*
X144449258Y-96087097D01*
X144198000Y-96338355D01*
X138200000Y-96338355D01*
X138200000Y-95948271D01*
X136698000Y-95948271D01*
X136698000Y-97450271D01*
X135700000Y-97450271D01*
X135700000Y-95948271D01*
X134198000Y-95948271D01*
X134198000Y-97450271D01*
X133200000Y-97450271D01*
X133200000Y-95948271D01*
X131698000Y-95948271D01*
X131698000Y-97450271D01*
X130700000Y-97450271D01*
X130700000Y-95948271D01*
X129198000Y-95948271D01*
X129198000Y-97402000D01*
X128200000Y-97402000D01*
X128200000Y-95948271D01*
X126698000Y-95948271D01*
X126698000Y-97402000D01*
X125700000Y-97402000D01*
X125700000Y-95948271D01*
X124198000Y-95948271D01*
X124198000Y-97402000D01*
X123200000Y-97402000D01*
X123200000Y-95948271D01*
X121698000Y-95948271D01*
X121698000Y-97450271D01*
X120700000Y-97450271D01*
X120700000Y-95948271D01*
X119198000Y-95948271D01*
X119198000Y-97450271D01*
X118200000Y-97450271D01*
X118200000Y-95948271D01*
X116698000Y-95948271D01*
X116698000Y-97450271D01*
X115700000Y-97450271D01*
X115700000Y-95948271D01*
X114198000Y-95948271D01*
X114198000Y-97450271D01*
X113200000Y-97450271D01*
X113200000Y-95948271D01*
X111698000Y-95948271D01*
X111698000Y-97450271D01*
X110700000Y-97450271D01*
X110700000Y-95948271D01*
X109198000Y-95948271D01*
X109198000Y-97450271D01*
X108200000Y-97450271D01*
X108200000Y-95948271D01*
X106698000Y-95948271D01*
X106698000Y-97450271D01*
X105700000Y-97450271D01*
X105700000Y-95948271D01*
X105074000Y-95948271D01*
X105074000Y-97450271D01*
X103950000Y-97450271D01*
X103950000Y-94950271D01*
X105074000Y-94950271D01*
X105700000Y-94950271D01*
X106698000Y-94950271D01*
X108200000Y-94950271D01*
X109198000Y-94950271D01*
X110700000Y-94950271D01*
X111698000Y-94950271D01*
X113200000Y-94950271D01*
X114198000Y-94950271D01*
X115700000Y-94950271D01*
X116698000Y-94950271D01*
X118200000Y-94950271D01*
X119198000Y-94950271D01*
X120700000Y-94950271D01*
X121698000Y-94950271D01*
X123200000Y-94950271D01*
X124198000Y-94950271D01*
X125700000Y-94950271D01*
X126698000Y-94950271D01*
X128200000Y-94950271D01*
X129198000Y-94950271D01*
X130700000Y-94950271D01*
X131698000Y-94950271D01*
X133200000Y-94950271D01*
X134198000Y-94950271D01*
X135700000Y-94950271D01*
X136698000Y-94950271D01*
X138111619Y-94950271D01*
X138055012Y-94813611D01*
X138052821Y-94807932D01*
X138040419Y-94773270D01*
X138038511Y-94767493D01*
X138024285Y-94720598D01*
X138022662Y-94714734D01*
X138013712Y-94679008D01*
X138012378Y-94673066D01*
X137975896Y-94489659D01*
X137974855Y-94483662D01*
X137969451Y-94447231D01*
X137968706Y-94441190D01*
X137963903Y-94392418D01*
X137963455Y-94386348D01*
X137961649Y-94349576D01*
X137961500Y-94343493D01*
X137961500Y-93456507D01*
X137961649Y-93450424D01*
X137961755Y-93448271D01*
X136698000Y-93448271D01*
X136698000Y-94950271D01*
X135700000Y-94950271D01*
X135700000Y-93448271D01*
X134198000Y-93448271D01*
X134198000Y-94950271D01*
X133200000Y-94950271D01*
X133200000Y-93448271D01*
X131698000Y-93448271D01*
X131698000Y-94950271D01*
X130700000Y-94950271D01*
X130700000Y-93448271D01*
X129198000Y-93448271D01*
X129198000Y-94950271D01*
X128200000Y-94950271D01*
X128200000Y-93448271D01*
X126698000Y-93448271D01*
X126698000Y-94950271D01*
X125700000Y-94950271D01*
X125700000Y-93448271D01*
X124198000Y-93448271D01*
X124198000Y-94950271D01*
X123200000Y-94950271D01*
X123200000Y-93448271D01*
X121698000Y-93448271D01*
X121698000Y-94950271D01*
X120700000Y-94950271D01*
X120700000Y-93448271D01*
X119198000Y-93448271D01*
X119198000Y-94950271D01*
X118200000Y-94950271D01*
X118200000Y-93448271D01*
X116698000Y-93448271D01*
X116698000Y-94950271D01*
X115700000Y-94950271D01*
X115700000Y-93448271D01*
X114198000Y-93448271D01*
X114198000Y-94950271D01*
X113200000Y-94950271D01*
X113200000Y-93448271D01*
X111698000Y-93448271D01*
X111698000Y-94950271D01*
X110700000Y-94950271D01*
X110700000Y-93448271D01*
X109198000Y-93448271D01*
X109198000Y-94950271D01*
X108200000Y-94950271D01*
X108200000Y-93448271D01*
X106698000Y-93448271D01*
X106698000Y-94950271D01*
X105700000Y-94950271D01*
X105700000Y-93448271D01*
X105074000Y-93448271D01*
X105074000Y-94950271D01*
X103950000Y-94950271D01*
X103950000Y-92450271D01*
X105074000Y-92450271D01*
X105700000Y-92450271D01*
X106698000Y-92450271D01*
X108200000Y-92450271D01*
X109198000Y-92450271D01*
X110700000Y-92450271D01*
X111698000Y-92450271D01*
X113200000Y-92450271D01*
X114198000Y-92450271D01*
X115700000Y-92450271D01*
X116698000Y-92450271D01*
X118200000Y-92450271D01*
X119198000Y-92450271D01*
X120700000Y-92450271D01*
X121698000Y-92450271D01*
X123200000Y-92450271D01*
X124198000Y-92450271D01*
X125700000Y-92450271D01*
X126698000Y-92450271D01*
X128200000Y-92450271D01*
X129198000Y-92450271D01*
X130700000Y-92450271D01*
X131698000Y-92450271D01*
X133200000Y-92450271D01*
X133200000Y-91781856D01*
X134198000Y-91781856D01*
X134198000Y-92450271D01*
X135700000Y-92450271D01*
X135700000Y-91798500D01*
X136698000Y-91798500D01*
X136698000Y-92450271D01*
X138200000Y-92450271D01*
X138200000Y-91551611D01*
X138098458Y-91450069D01*
X138094838Y-91452956D01*
X137925454Y-91577967D01*
X137917790Y-91583192D01*
X137870258Y-91613057D01*
X137862227Y-91617694D01*
X137796174Y-91652602D01*
X137787821Y-91656624D01*
X137736389Y-91679063D01*
X137727758Y-91682450D01*
X137535678Y-91749663D01*
X137528494Y-91751935D01*
X137484614Y-91764355D01*
X137477301Y-91766186D01*
X137418012Y-91779135D01*
X137410608Y-91780518D01*
X137365561Y-91787523D01*
X137358083Y-91788454D01*
X137285830Y-91795229D01*
X137282947Y-91795466D01*
X137265459Y-91796695D01*
X137262559Y-91796865D01*
X137239254Y-91797955D01*
X137236361Y-91798056D01*
X137218832Y-91798466D01*
X137215932Y-91798500D01*
X136698000Y-91798500D01*
X135700000Y-91798500D01*
X135700000Y-91692163D01*
X135535678Y-91749663D01*
X135528494Y-91751935D01*
X135484614Y-91764355D01*
X135477301Y-91766186D01*
X135418012Y-91779135D01*
X135410608Y-91780518D01*
X135365561Y-91787523D01*
X135358083Y-91788454D01*
X135285830Y-91795229D01*
X135282947Y-91795466D01*
X135265459Y-91796695D01*
X135262559Y-91796865D01*
X135239254Y-91797955D01*
X135236361Y-91798056D01*
X135218832Y-91798466D01*
X135215932Y-91798500D01*
X134384068Y-91798500D01*
X134381168Y-91798466D01*
X134363639Y-91798056D01*
X134360746Y-91797955D01*
X134337441Y-91796865D01*
X134334541Y-91796695D01*
X134317053Y-91795466D01*
X134314170Y-91795229D01*
X134241917Y-91788454D01*
X134234439Y-91787523D01*
X134198000Y-91781856D01*
X133200000Y-91781856D01*
X133200000Y-91091039D01*
X133186943Y-91070258D01*
X133182306Y-91062227D01*
X133147398Y-90996174D01*
X133143376Y-90987821D01*
X133126121Y-90948271D01*
X131698000Y-90948271D01*
X131698000Y-92450271D01*
X130700000Y-92450271D01*
X130700000Y-90948271D01*
X129198000Y-90948271D01*
X129198000Y-92450271D01*
X128200000Y-92450271D01*
X128200000Y-90948271D01*
X126698000Y-90948271D01*
X126698000Y-92450271D01*
X125700000Y-92450271D01*
X125700000Y-90948271D01*
X124198000Y-90948271D01*
X124198000Y-92450271D01*
X123200000Y-92450271D01*
X123200000Y-90948271D01*
X121698000Y-90948271D01*
X121698000Y-92450271D01*
X120700000Y-92450271D01*
X120700000Y-90948271D01*
X119198000Y-90948271D01*
X119198000Y-92450271D01*
X118200000Y-92450271D01*
X118200000Y-90948271D01*
X116698000Y-90948271D01*
X116698000Y-92450271D01*
X115700000Y-92450271D01*
X115700000Y-90948271D01*
X114198000Y-90948271D01*
X114198000Y-92450271D01*
X113200000Y-92450271D01*
X113200000Y-90948271D01*
X111698000Y-90948271D01*
X111698000Y-92450271D01*
X110700000Y-92450271D01*
X110700000Y-90948271D01*
X109198000Y-90948271D01*
X109198000Y-92450271D01*
X108200000Y-92450271D01*
X108200000Y-90948271D01*
X106698000Y-90948271D01*
X106698000Y-92450271D01*
X105700000Y-92450271D01*
X105700000Y-90948271D01*
X105074000Y-90948271D01*
X105074000Y-92450271D01*
X103950000Y-92450271D01*
X103950000Y-89950271D01*
X105074000Y-89950271D01*
X105700000Y-89950271D01*
X106698000Y-89950271D01*
X108200000Y-89950271D01*
X119852102Y-89950271D01*
X120700000Y-89950271D01*
X121698000Y-89950271D01*
X123200000Y-89950271D01*
X124198000Y-89950271D01*
X125700000Y-89950271D01*
X126698000Y-89950271D01*
X128200000Y-89950271D01*
X129198000Y-89950271D01*
X130700000Y-89950271D01*
X131698000Y-89950271D01*
X133001500Y-89950271D01*
X133001500Y-89384068D01*
X133001534Y-89381168D01*
X133001944Y-89363639D01*
X133002045Y-89360746D01*
X133003135Y-89337441D01*
X133003305Y-89334541D01*
X133004534Y-89317053D01*
X133004771Y-89314170D01*
X133011546Y-89241917D01*
X133012477Y-89234439D01*
X133019482Y-89189392D01*
X133020865Y-89181988D01*
X133033814Y-89122699D01*
X133035645Y-89115386D01*
X133048065Y-89071506D01*
X133050337Y-89064322D01*
X133117550Y-88872242D01*
X133120937Y-88863611D01*
X133143376Y-88812179D01*
X133147398Y-88803826D01*
X133176500Y-88748759D01*
X133176500Y-88448271D01*
X131698000Y-88448271D01*
X131698000Y-89950271D01*
X130700000Y-89950271D01*
X130700000Y-88448271D01*
X129198000Y-88448271D01*
X129198000Y-89950271D01*
X128200000Y-89950271D01*
X128200000Y-88448271D01*
X126698000Y-88448271D01*
X126698000Y-89950271D01*
X125700000Y-89950271D01*
X125700000Y-88448271D01*
X124198000Y-88448271D01*
X124198000Y-89950271D01*
X123200000Y-89950271D01*
X123200000Y-88448271D01*
X121698000Y-88448271D01*
X121698000Y-89950271D01*
X120700000Y-89950271D01*
X120700000Y-88448271D01*
X120451804Y-88448271D01*
X120450809Y-88452241D01*
X120449186Y-88458105D01*
X120434960Y-88505000D01*
X120433051Y-88510778D01*
X120420649Y-88545439D01*
X120418459Y-88551117D01*
X120386000Y-88629480D01*
X120386000Y-88890932D01*
X120385966Y-88893832D01*
X120385556Y-88911361D01*
X120385455Y-88914254D01*
X120384365Y-88937559D01*
X120384195Y-88940459D01*
X120382966Y-88957947D01*
X120382729Y-88960830D01*
X120375954Y-89033083D01*
X120375023Y-89040561D01*
X120368018Y-89085608D01*
X120366635Y-89093012D01*
X120353686Y-89152301D01*
X120351855Y-89159614D01*
X120339435Y-89203494D01*
X120337163Y-89210678D01*
X120269950Y-89402758D01*
X120266563Y-89411389D01*
X120244124Y-89462821D01*
X120240102Y-89471174D01*
X120205194Y-89537227D01*
X120200557Y-89545258D01*
X120170692Y-89592790D01*
X120165467Y-89600454D01*
X120040456Y-89769838D01*
X120034675Y-89777087D01*
X119998065Y-89819629D01*
X119991757Y-89826427D01*
X119938927Y-89879257D01*
X119932129Y-89885565D01*
X119889587Y-89922175D01*
X119882338Y-89927956D01*
X119852102Y-89950271D01*
X108200000Y-89950271D01*
X108200000Y-89476096D01*
X108197399Y-89471175D01*
X108193376Y-89462821D01*
X108170937Y-89411389D01*
X108167550Y-89402758D01*
X108100337Y-89210678D01*
X108098065Y-89203494D01*
X108094598Y-89191246D01*
X108014760Y-89111408D01*
X108011386Y-89107899D01*
X107991393Y-89086271D01*
X107988158Y-89082631D01*
X107962700Y-89052824D01*
X107959610Y-89049059D01*
X107941372Y-89025924D01*
X107938434Y-89022043D01*
X107804319Y-88837452D01*
X107801534Y-88833456D01*
X107785166Y-88808959D01*
X107782540Y-88804856D01*
X107762059Y-88771432D01*
X107759599Y-88767236D01*
X107745208Y-88741540D01*
X107742912Y-88737243D01*
X107639324Y-88533938D01*
X107637199Y-88529556D01*
X107624856Y-88502781D01*
X107622901Y-88498313D01*
X107607903Y-88462097D01*
X107606131Y-88457567D01*
X107602702Y-88448271D01*
X106698000Y-88448271D01*
X106698000Y-89950271D01*
X105700000Y-89950271D01*
X105700000Y-88448271D01*
X105074000Y-88448271D01*
X105074000Y-89950271D01*
X103950000Y-89950271D01*
X103950000Y-87450271D01*
X105074000Y-87450271D01*
X105700000Y-87450271D01*
X106698000Y-87450271D01*
X107451500Y-87450271D01*
X107451500Y-85948271D01*
X106698000Y-85948271D01*
X106698000Y-87450271D01*
X105700000Y-87450271D01*
X105700000Y-85948271D01*
X105074000Y-85948271D01*
X105074000Y-87450271D01*
X103950000Y-87450271D01*
X103950000Y-84950271D01*
X105074000Y-84950271D01*
X105700000Y-84950271D01*
X106698000Y-84950271D01*
X107451500Y-84950271D01*
X107451500Y-83448271D01*
X106698000Y-83448271D01*
X106698000Y-84950271D01*
X105700000Y-84950271D01*
X105700000Y-83448271D01*
X105074000Y-83448271D01*
X105074000Y-84950271D01*
X103950000Y-84950271D01*
X103950000Y-82450271D01*
X105074000Y-82450271D01*
X105700000Y-82450271D01*
X106698000Y-82450271D01*
X107451500Y-82450271D01*
X107451500Y-80948271D01*
X106698000Y-80948271D01*
X106698000Y-82450271D01*
X105700000Y-82450271D01*
X105700000Y-80948271D01*
X105074000Y-80948271D01*
X105074000Y-82450271D01*
X103950000Y-82450271D01*
X103950000Y-79950271D01*
X105074000Y-79950271D01*
X105700000Y-79950271D01*
X106698000Y-79950271D01*
X107451500Y-79950271D01*
X107451500Y-78448271D01*
X106698000Y-78448271D01*
X106698000Y-79950271D01*
X105700000Y-79950271D01*
X105700000Y-78448271D01*
X105074000Y-78448271D01*
X105074000Y-79950271D01*
X103950000Y-79950271D01*
X103950000Y-77450271D01*
X105074000Y-77450271D01*
X105700000Y-77450271D01*
X106698000Y-77450271D01*
X107451500Y-77450271D01*
X107451500Y-76190929D01*
X107451595Y-76186064D01*
X107452750Y-76156650D01*
X107453037Y-76151791D01*
X107456111Y-76112711D01*
X107456588Y-76107867D01*
X107460051Y-76078595D01*
X107460719Y-76073765D01*
X107480596Y-75948271D01*
X106698000Y-75948271D01*
X106698000Y-77450271D01*
X105700000Y-77450271D01*
X105700000Y-75948271D01*
X105074000Y-75948271D01*
X105074000Y-77450271D01*
X103950000Y-77450271D01*
X103950000Y-74950271D01*
X105074000Y-74950271D01*
X105700000Y-74950271D01*
X106698000Y-74950271D01*
X107916772Y-74950271D01*
X107938436Y-74920452D01*
X107941380Y-74916563D01*
X107959640Y-74893403D01*
X107962730Y-74889638D01*
X107988192Y-74859830D01*
X107991426Y-74856191D01*
X108011400Y-74834586D01*
X108014770Y-74831082D01*
X108200000Y-74645852D01*
X108200000Y-73448271D01*
X106698000Y-73448271D01*
X106698000Y-74950271D01*
X105700000Y-74950271D01*
X105700000Y-73448271D01*
X105074000Y-73448271D01*
X105074000Y-74950271D01*
X103950000Y-74950271D01*
X103950000Y-72450271D01*
X105074000Y-72450271D01*
X105700000Y-72450271D01*
X105700000Y-70948271D01*
X105074000Y-70948271D01*
X105074000Y-72450271D01*
X103950000Y-72450271D01*
X103950000Y-59853697D01*
X103969685Y-59786658D01*
X104022489Y-59740903D01*
X104091647Y-59730959D01*
X104155203Y-59759984D01*
X104192791Y-59818133D01*
X104225674Y-59927972D01*
X104364107Y-60248895D01*
X104364113Y-60248908D01*
X104538870Y-60551597D01*
X104747584Y-60831949D01*
X104747589Y-60831955D01*
X104871463Y-60963253D01*
X104987442Y-61086183D01*
X105043220Y-61132986D01*
X105255184Y-61310846D01*
X105255189Y-61310849D01*
X105543641Y-61500567D01*
X105588833Y-61553850D01*
X105599500Y-61604166D01*
X105599500Y-68994486D01*
X105629059Y-69181118D01*
X105687454Y-69360836D01*
X105773240Y-69529199D01*
X105884310Y-69682074D01*
X107783123Y-71580887D01*
X109673181Y-73470944D01*
X109706666Y-73532267D01*
X109709500Y-73558625D01*
X109709500Y-74496374D01*
X109689815Y-74563413D01*
X109673181Y-74584055D01*
X108734308Y-75522927D01*
X108734306Y-75522929D01*
X108685942Y-75589498D01*
X108678676Y-75599500D01*
X108667198Y-75615298D01*
X108623240Y-75675800D01*
X108537454Y-75844163D01*
X108479059Y-76023881D01*
X108449500Y-76210513D01*
X108449500Y-87731982D01*
X108449499Y-87731984D01*
X108479059Y-87918618D01*
X108537454Y-88098336D01*
X108585095Y-88191835D01*
X108623240Y-88266699D01*
X108734310Y-88419574D01*
X108734312Y-88419576D01*
X109013181Y-88698445D01*
X109046666Y-88759768D01*
X109049500Y-88786126D01*
X109049500Y-88879269D01*
X109052353Y-88909699D01*
X109052353Y-88909701D01*
X109096661Y-89036322D01*
X109097207Y-89037882D01*
X109177850Y-89147150D01*
X109287118Y-89227793D01*
X109327482Y-89241917D01*
X109415299Y-89272646D01*
X109445730Y-89275500D01*
X109445734Y-89275500D01*
X110379270Y-89275500D01*
X110409699Y-89272646D01*
X110409701Y-89272646D01*
X110473790Y-89250219D01*
X110537882Y-89227793D01*
X110647150Y-89147150D01*
X110727793Y-89037882D01*
X110754755Y-88960830D01*
X110772646Y-88909701D01*
X110772646Y-88909699D01*
X110775500Y-88879269D01*
X110775500Y-88874986D01*
X111825001Y-88874986D01*
X111835494Y-88977697D01*
X111890641Y-89144119D01*
X111890643Y-89144124D01*
X111982684Y-89293345D01*
X112106654Y-89417315D01*
X112255875Y-89509356D01*
X112255880Y-89509358D01*
X112422302Y-89564505D01*
X112422309Y-89564506D01*
X112525019Y-89574999D01*
X112737499Y-89574999D01*
X113237500Y-89574999D01*
X113449972Y-89574999D01*
X113449986Y-89574998D01*
X113552697Y-89564505D01*
X113719119Y-89509358D01*
X113719124Y-89509356D01*
X113868345Y-89417315D01*
X113992315Y-89293345D01*
X114084356Y-89144124D01*
X114084356Y-89144122D01*
X114101042Y-89093767D01*
X114140814Y-89036322D01*
X114205329Y-89009497D01*
X114274105Y-89021811D01*
X114325306Y-89069353D01*
X114336454Y-89093764D01*
X114353138Y-89144113D01*
X114353143Y-89144124D01*
X114445184Y-89293345D01*
X114569154Y-89417315D01*
X114718375Y-89509356D01*
X114718380Y-89509358D01*
X114884802Y-89564505D01*
X114884809Y-89564506D01*
X114987519Y-89574999D01*
X115199999Y-89574999D01*
X115700000Y-89574999D01*
X115912472Y-89574999D01*
X115912486Y-89574998D01*
X116015197Y-89564505D01*
X116181619Y-89509358D01*
X116181624Y-89509356D01*
X116330845Y-89417315D01*
X116454815Y-89293345D01*
X116546856Y-89144124D01*
X116546858Y-89144119D01*
X116602005Y-88977697D01*
X116602006Y-88977690D01*
X116612499Y-88874986D01*
X116612500Y-88874973D01*
X116612500Y-88150000D01*
X115700000Y-88150000D01*
X115700000Y-89574999D01*
X115199999Y-89574999D01*
X115200000Y-89574998D01*
X115200000Y-88150000D01*
X114271762Y-88150000D01*
X114245105Y-88164555D01*
X114175413Y-88159569D01*
X114160524Y-88150000D01*
X113237500Y-88150000D01*
X113237500Y-89574999D01*
X112737499Y-89574999D01*
X112737500Y-89574998D01*
X112737500Y-88150000D01*
X111825001Y-88150000D01*
X111825001Y-88874986D01*
X110775500Y-88874986D01*
X110775500Y-88786125D01*
X110795185Y-88719086D01*
X110811819Y-88698444D01*
X110816608Y-88693655D01*
X110828190Y-88682073D01*
X110939260Y-88529199D01*
X111025047Y-88360832D01*
X111083440Y-88181118D01*
X111094411Y-88111848D01*
X111113000Y-87994486D01*
X111113000Y-87805512D01*
X111093293Y-87681094D01*
X111083440Y-87618882D01*
X111025047Y-87439168D01*
X110939260Y-87270801D01*
X110896625Y-87212119D01*
X110874182Y-87181228D01*
X110850702Y-87115422D01*
X110850500Y-87108343D01*
X110850500Y-86925013D01*
X111825000Y-86925013D01*
X111825000Y-87650000D01*
X112737500Y-87650000D01*
X113237500Y-87650000D01*
X114165735Y-87650000D01*
X114192387Y-87635446D01*
X114262079Y-87640428D01*
X114276974Y-87650000D01*
X115200000Y-87650000D01*
X115700000Y-87650000D01*
X116612499Y-87650000D01*
X116612499Y-86925028D01*
X116612498Y-86925013D01*
X116602005Y-86822302D01*
X116546858Y-86655880D01*
X116546856Y-86655875D01*
X116454815Y-86506654D01*
X116330845Y-86382684D01*
X116181624Y-86290643D01*
X116181619Y-86290641D01*
X116015197Y-86235494D01*
X116015190Y-86235493D01*
X115912486Y-86225000D01*
X115700000Y-86225000D01*
X115700000Y-87650000D01*
X115200000Y-87650000D01*
X115200000Y-86225000D01*
X114987529Y-86225000D01*
X114987512Y-86225001D01*
X114884802Y-86235494D01*
X114718380Y-86290641D01*
X114718375Y-86290643D01*
X114569154Y-86382684D01*
X114445184Y-86506654D01*
X114353143Y-86655875D01*
X114353141Y-86655880D01*
X114336456Y-86706234D01*
X114296683Y-86763679D01*
X114232167Y-86790502D01*
X114163392Y-86778187D01*
X114112192Y-86730644D01*
X114101044Y-86706234D01*
X114084358Y-86655880D01*
X114084356Y-86655875D01*
X113992315Y-86506654D01*
X113868345Y-86382684D01*
X113719124Y-86290643D01*
X113719119Y-86290641D01*
X113552697Y-86235494D01*
X113552690Y-86235493D01*
X113449986Y-86225000D01*
X113237500Y-86225000D01*
X113237500Y-87650000D01*
X112737500Y-87650000D01*
X112737500Y-86225000D01*
X112525029Y-86225000D01*
X112525012Y-86225001D01*
X112422302Y-86235494D01*
X112255880Y-86290641D01*
X112255875Y-86290643D01*
X112106654Y-86382684D01*
X111982684Y-86506654D01*
X111890643Y-86655875D01*
X111890641Y-86655880D01*
X111835494Y-86822302D01*
X111835493Y-86822309D01*
X111825000Y-86925013D01*
X110850500Y-86925013D01*
X110850500Y-84740091D01*
X110870185Y-84673052D01*
X110922989Y-84627297D01*
X110933545Y-84623050D01*
X110972268Y-84609500D01*
X111062882Y-84577793D01*
X111172150Y-84497150D01*
X111252793Y-84387882D01*
X111275158Y-84323964D01*
X111315877Y-84267192D01*
X111380830Y-84241444D01*
X111449392Y-84254900D01*
X111499795Y-84303287D01*
X111509904Y-84325917D01*
X111565642Y-84494121D01*
X111565643Y-84494124D01*
X111657684Y-84643345D01*
X111781654Y-84767315D01*
X111930875Y-84859356D01*
X111930880Y-84859358D01*
X112097302Y-84914505D01*
X112097309Y-84914506D01*
X112200019Y-84924999D01*
X112337499Y-84924999D01*
X112837500Y-84924999D01*
X112974972Y-84924999D01*
X112974986Y-84924998D01*
X113077697Y-84914505D01*
X113244119Y-84859358D01*
X113244124Y-84859356D01*
X113393345Y-84767315D01*
X113517315Y-84643345D01*
X113609356Y-84494124D01*
X113609358Y-84494119D01*
X113664505Y-84327697D01*
X113664506Y-84327690D01*
X113664782Y-84324986D01*
X114625001Y-84324986D01*
X114635494Y-84427697D01*
X114690641Y-84594119D01*
X114690643Y-84594124D01*
X114782684Y-84743345D01*
X114906654Y-84867315D01*
X115055875Y-84959356D01*
X115055880Y-84959358D01*
X115222302Y-85014505D01*
X115222309Y-85014506D01*
X115325019Y-85024999D01*
X115462499Y-85024999D01*
X115462500Y-85024998D01*
X115462500Y-84050000D01*
X114625001Y-84050000D01*
X114625001Y-84324986D01*
X113664782Y-84324986D01*
X113674999Y-84224986D01*
X113675000Y-84224973D01*
X113675000Y-83950000D01*
X112837500Y-83950000D01*
X112837500Y-84924999D01*
X112337499Y-84924999D01*
X112337500Y-84924998D01*
X112337500Y-83450000D01*
X112837500Y-83450000D01*
X113674999Y-83450000D01*
X113674999Y-83275013D01*
X114625000Y-83275013D01*
X114625000Y-83550000D01*
X115462500Y-83550000D01*
X115462500Y-82575000D01*
X115325027Y-82575000D01*
X115325012Y-82575001D01*
X115222302Y-82585494D01*
X115055880Y-82640641D01*
X115055875Y-82640643D01*
X114906654Y-82732684D01*
X114782684Y-82856654D01*
X114690643Y-83005875D01*
X114690641Y-83005880D01*
X114635494Y-83172302D01*
X114635493Y-83172309D01*
X114625000Y-83275013D01*
X113674999Y-83275013D01*
X113674999Y-83175028D01*
X113674998Y-83175013D01*
X113664505Y-83072302D01*
X113609358Y-82905880D01*
X113609356Y-82905875D01*
X113517315Y-82756654D01*
X113393345Y-82632684D01*
X113244124Y-82540643D01*
X113244119Y-82540641D01*
X113077697Y-82485494D01*
X113077690Y-82485493D01*
X112974986Y-82475000D01*
X112837500Y-82475000D01*
X112837500Y-83450000D01*
X112337500Y-83450000D01*
X112337500Y-82475000D01*
X112200027Y-82475000D01*
X112200012Y-82475001D01*
X112097302Y-82485494D01*
X111930880Y-82540641D01*
X111930875Y-82540643D01*
X111781654Y-82632684D01*
X111657684Y-82756654D01*
X111565643Y-82905875D01*
X111565641Y-82905880D01*
X111509905Y-83074082D01*
X111470132Y-83131527D01*
X111405617Y-83158350D01*
X111336841Y-83146035D01*
X111285641Y-83098492D01*
X111275158Y-83076033D01*
X111252793Y-83012119D01*
X111252792Y-83012117D01*
X111248189Y-83005880D01*
X111172150Y-82902850D01*
X111062882Y-82822207D01*
X110933544Y-82776949D01*
X110876769Y-82736227D01*
X110851022Y-82671274D01*
X110850500Y-82659908D01*
X110850500Y-82025955D01*
X114198000Y-82025955D01*
X114199999Y-82027954D01*
X114221499Y-82006455D01*
X114226743Y-82001508D01*
X114259341Y-81972497D01*
X114264867Y-81967860D01*
X114310433Y-81931830D01*
X114316219Y-81927522D01*
X114351979Y-81902482D01*
X114358007Y-81898517D01*
X114556678Y-81775976D01*
X114562926Y-81772369D01*
X114601351Y-81751651D01*
X114607797Y-81748414D01*
X114660443Y-81723866D01*
X114667067Y-81721009D01*
X114707618Y-81704900D01*
X114714393Y-81702434D01*
X114934236Y-81629584D01*
X114940713Y-81627632D01*
X114980208Y-81616896D01*
X114986780Y-81615301D01*
X115040033Y-81603902D01*
X115046683Y-81602667D01*
X115087093Y-81596298D01*
X115093796Y-81595428D01*
X115236239Y-81580876D01*
X115239389Y-81580595D01*
X115258435Y-81579139D01*
X115261580Y-81578939D01*
X115286948Y-81577647D01*
X115290102Y-81577526D01*
X115309171Y-81577041D01*
X115312323Y-81577001D01*
X115663041Y-81576999D01*
X115700000Y-81584349D01*
X115700000Y-80948271D01*
X114198000Y-80948271D01*
X114198000Y-82025955D01*
X110850500Y-82025955D01*
X110850500Y-81518719D01*
X111848500Y-81518719D01*
X111855208Y-81516896D01*
X111861780Y-81515301D01*
X111915033Y-81503902D01*
X111921683Y-81502667D01*
X111962093Y-81496298D01*
X111968796Y-81495428D01*
X112111239Y-81480876D01*
X112114389Y-81480595D01*
X112133435Y-81479139D01*
X112136580Y-81478939D01*
X112161948Y-81477647D01*
X112165102Y-81477526D01*
X112184171Y-81477041D01*
X112187323Y-81477001D01*
X112538041Y-81476999D01*
X112585493Y-81486437D01*
X112587499Y-81487267D01*
X112589503Y-81486438D01*
X112636954Y-81477000D01*
X112987674Y-81477000D01*
X112990826Y-81477040D01*
X113009897Y-81477525D01*
X113013051Y-81477645D01*
X113038422Y-81478937D01*
X113041573Y-81479138D01*
X113060622Y-81480595D01*
X113063768Y-81480876D01*
X113200000Y-81494794D01*
X113200000Y-80948271D01*
X111848500Y-80948271D01*
X111848500Y-81518719D01*
X110850500Y-81518719D01*
X110850500Y-79950271D01*
X111848500Y-79950271D01*
X113200000Y-79950271D01*
X114198000Y-79950271D01*
X115700000Y-79950271D01*
X115700000Y-78448271D01*
X114198000Y-78448271D01*
X114198000Y-79950271D01*
X113200000Y-79950271D01*
X113200000Y-78448271D01*
X111848500Y-78448271D01*
X111848500Y-79950271D01*
X110850500Y-79950271D01*
X110850500Y-77215647D01*
X111848500Y-77215647D01*
X111848500Y-77450271D01*
X113200000Y-77450271D01*
X114198000Y-77450271D01*
X115568967Y-77450271D01*
X114679797Y-76561101D01*
X114679788Y-76561093D01*
X114489842Y-76371148D01*
X114485646Y-76366741D01*
X114460914Y-76339454D01*
X114456937Y-76334844D01*
X114425848Y-76296961D01*
X114422103Y-76292162D01*
X114400170Y-76262588D01*
X114396667Y-76257614D01*
X114259946Y-76052997D01*
X114256689Y-76047853D01*
X114237754Y-76016261D01*
X114234754Y-76010965D01*
X114211653Y-75967744D01*
X114208916Y-75962308D01*
X114202277Y-75948271D01*
X114198000Y-75948271D01*
X114198000Y-77450271D01*
X113200000Y-77450271D01*
X113200000Y-75948271D01*
X112917194Y-75948271D01*
X112817088Y-76144743D01*
X112814792Y-76149040D01*
X112800401Y-76174736D01*
X112797940Y-76178934D01*
X112777458Y-76212358D01*
X112774834Y-76216457D01*
X112758466Y-76240955D01*
X112755680Y-76244953D01*
X112621565Y-76429544D01*
X112618625Y-76433427D01*
X112600388Y-76456560D01*
X112597300Y-76460323D01*
X112571842Y-76490130D01*
X112568608Y-76493770D01*
X112548617Y-76515396D01*
X112545243Y-76518905D01*
X112383901Y-76680249D01*
X112380385Y-76683629D01*
X112365175Y-76697687D01*
X112351130Y-76712883D01*
X112347750Y-76716398D01*
X111848500Y-77215647D01*
X110850500Y-77215647D01*
X110850500Y-76853625D01*
X110870185Y-76786586D01*
X110886819Y-76765944D01*
X111628185Y-76024578D01*
X111628190Y-76024573D01*
X111643529Y-76003459D01*
X111670959Y-75976029D01*
X111692073Y-75960690D01*
X111825690Y-75827073D01*
X111936760Y-75674199D01*
X112022547Y-75505832D01*
X112080940Y-75326118D01*
X112110500Y-75139486D01*
X112110500Y-74061507D01*
X112130185Y-73994468D01*
X112182989Y-73948713D01*
X112252147Y-73938769D01*
X112315703Y-73967794D01*
X112322181Y-73973826D01*
X112403757Y-74055402D01*
X112588723Y-74189788D01*
X112792429Y-74293582D01*
X113009871Y-74364234D01*
X113100000Y-74378509D01*
X113100000Y-73390747D01*
X113137708Y-73412518D01*
X113277591Y-73450000D01*
X113422409Y-73450000D01*
X113562292Y-73412518D01*
X113600000Y-73390747D01*
X113600000Y-74378508D01*
X113690128Y-74364234D01*
X113907570Y-74293582D01*
X114111276Y-74189788D01*
X114296242Y-74055402D01*
X114457902Y-73893742D01*
X114457907Y-73893736D01*
X114512682Y-73818346D01*
X114568012Y-73775680D01*
X114637625Y-73769701D01*
X114699420Y-73802307D01*
X114733777Y-73863145D01*
X114737000Y-73891231D01*
X114737000Y-73919752D01*
X114748631Y-73978229D01*
X114748632Y-73978230D01*
X114792947Y-74044552D01*
X114859269Y-74088867D01*
X114859270Y-74088868D01*
X114889691Y-74094919D01*
X114951602Y-74127304D01*
X114986176Y-74188019D01*
X114989500Y-74216536D01*
X114989500Y-75143544D01*
X115027947Y-75336828D01*
X115027950Y-75336840D01*
X115041990Y-75370734D01*
X115103366Y-75518911D01*
X115103371Y-75518920D01*
X115212859Y-75682780D01*
X115212860Y-75682781D01*
X115212861Y-75682782D01*
X115352218Y-75822139D01*
X115352219Y-75822139D01*
X115359286Y-75829206D01*
X115359285Y-75829206D01*
X115359289Y-75829209D01*
X116950681Y-77420601D01*
X116984166Y-77481924D01*
X116987000Y-77508282D01*
X116987000Y-82999877D01*
X116967315Y-83066916D01*
X116914511Y-83112671D01*
X116845353Y-83122615D01*
X116781797Y-83093590D01*
X116745294Y-83038882D01*
X116734357Y-83005878D01*
X116734356Y-83005875D01*
X116642315Y-82856654D01*
X116518345Y-82732684D01*
X116369124Y-82640643D01*
X116369119Y-82640641D01*
X116202697Y-82585494D01*
X116202690Y-82585493D01*
X116099986Y-82575000D01*
X115962500Y-82575000D01*
X115962500Y-85024999D01*
X116099972Y-85024999D01*
X116099986Y-85024998D01*
X116202697Y-85014505D01*
X116369119Y-84959358D01*
X116369124Y-84959356D01*
X116518345Y-84867315D01*
X116642315Y-84743345D01*
X116734356Y-84594124D01*
X116734359Y-84594117D01*
X116790094Y-84425918D01*
X116829866Y-84368473D01*
X116894382Y-84341649D01*
X116963158Y-84353964D01*
X117014358Y-84401506D01*
X117024841Y-84423965D01*
X117026147Y-84427697D01*
X117047207Y-84487882D01*
X117127850Y-84597150D01*
X117237118Y-84677793D01*
X117279845Y-84692744D01*
X117365299Y-84722646D01*
X117395730Y-84725500D01*
X117395734Y-84725500D01*
X117400500Y-84725500D01*
X117467539Y-84745185D01*
X117513294Y-84797989D01*
X117524500Y-84849500D01*
X117524500Y-87998541D01*
X117524500Y-87998543D01*
X117524499Y-87998543D01*
X117562947Y-88191829D01*
X117562950Y-88191839D01*
X117638365Y-88373909D01*
X117638367Y-88373912D01*
X117641101Y-88378004D01*
X117661980Y-88444681D01*
X117662000Y-88446896D01*
X117662000Y-88879269D01*
X117664853Y-88909699D01*
X117664853Y-88909701D01*
X117709161Y-89036322D01*
X117709707Y-89037882D01*
X117790350Y-89147150D01*
X117899618Y-89227793D01*
X117939982Y-89241917D01*
X118027799Y-89272646D01*
X118058230Y-89275500D01*
X118058234Y-89275500D01*
X118991770Y-89275500D01*
X119022199Y-89272646D01*
X119022201Y-89272646D01*
X119086290Y-89250219D01*
X119150382Y-89227793D01*
X119259650Y-89147150D01*
X119340293Y-89037882D01*
X119367255Y-88960830D01*
X119385146Y-88909701D01*
X119385146Y-88909699D01*
X119388000Y-88879269D01*
X119388000Y-88446896D01*
X119407685Y-88379857D01*
X119408899Y-88378004D01*
X119411632Y-88373914D01*
X119487051Y-88191835D01*
X119525500Y-87998541D01*
X119525500Y-87450271D01*
X121698000Y-87450271D01*
X123200000Y-87450271D01*
X124198000Y-87450271D01*
X125700000Y-87450271D01*
X126698000Y-87450271D01*
X128200000Y-87450271D01*
X129198000Y-87450271D01*
X130700000Y-87450271D01*
X131698000Y-87450271D01*
X133176500Y-87450271D01*
X133176500Y-85948271D01*
X131698000Y-85948271D01*
X131698000Y-87450271D01*
X130700000Y-87450271D01*
X130700000Y-85948271D01*
X129198000Y-85948271D01*
X129198000Y-87450271D01*
X128200000Y-87450271D01*
X128200000Y-85948271D01*
X126698000Y-85948271D01*
X126698000Y-87450271D01*
X125700000Y-87450271D01*
X125700000Y-85948271D01*
X124198000Y-85948271D01*
X124198000Y-87450271D01*
X123200000Y-87450271D01*
X123200000Y-85948271D01*
X121698000Y-85948271D01*
X121698000Y-87450271D01*
X119525500Y-87450271D01*
X119525500Y-84950271D01*
X121698000Y-84950271D01*
X123200000Y-84950271D01*
X124198000Y-84950271D01*
X125700000Y-84950271D01*
X126698000Y-84950271D01*
X128200000Y-84950271D01*
X129198000Y-84950271D01*
X130700000Y-84950271D01*
X131698000Y-84950271D01*
X133176500Y-84950271D01*
X133176500Y-83448271D01*
X131698000Y-83448271D01*
X131698000Y-84950271D01*
X130700000Y-84950271D01*
X130700000Y-83448271D01*
X129198000Y-83448271D01*
X129198000Y-84950271D01*
X128200000Y-84950271D01*
X128200000Y-83448271D01*
X126698000Y-83448271D01*
X126698000Y-84950271D01*
X125700000Y-84950271D01*
X125700000Y-83448271D01*
X124198000Y-83448271D01*
X124198000Y-84950271D01*
X123200000Y-84950271D01*
X123200000Y-83448271D01*
X121698000Y-83448271D01*
X121698000Y-84950271D01*
X119525500Y-84950271D01*
X119525500Y-84038959D01*
X119525500Y-84038956D01*
X119501794Y-83919780D01*
X119499749Y-83909500D01*
X119487051Y-83845664D01*
X119464961Y-83792334D01*
X119464492Y-83791201D01*
X119411635Y-83663592D01*
X119411628Y-83663579D01*
X119302139Y-83499718D01*
X119302136Y-83499714D01*
X119159686Y-83357264D01*
X119159655Y-83357235D01*
X119024319Y-83221899D01*
X118990834Y-83160576D01*
X118988000Y-83134218D01*
X118988000Y-82450271D01*
X119986000Y-82450271D01*
X120700000Y-82450271D01*
X121698000Y-82450271D01*
X123200000Y-82450271D01*
X124198000Y-82450271D01*
X125700000Y-82450271D01*
X126698000Y-82450271D01*
X128200000Y-82450271D01*
X129198000Y-82450271D01*
X130700000Y-82450271D01*
X131698000Y-82450271D01*
X133176500Y-82450271D01*
X133176500Y-82242754D01*
X133176765Y-82234644D01*
X133179977Y-82185638D01*
X133180773Y-82177560D01*
X133189306Y-82112758D01*
X133190628Y-82104752D01*
X133200000Y-82057640D01*
X133200000Y-80948271D01*
X131698000Y-80948271D01*
X131698000Y-82450271D01*
X130700000Y-82450271D01*
X130700000Y-80948271D01*
X129198000Y-80948271D01*
X129198000Y-82450271D01*
X128200000Y-82450271D01*
X128200000Y-80948271D01*
X126698000Y-80948271D01*
X126698000Y-82450271D01*
X125700000Y-82450271D01*
X125700000Y-80948271D01*
X124198000Y-80948271D01*
X124198000Y-82450271D01*
X123200000Y-82450271D01*
X123200000Y-80948271D01*
X121698000Y-80948271D01*
X121698000Y-82450271D01*
X120700000Y-82450271D01*
X120700000Y-80948271D01*
X119986000Y-80948271D01*
X119986000Y-82450271D01*
X118988000Y-82450271D01*
X118988000Y-79950271D01*
X119986000Y-79950271D01*
X120700000Y-79950271D01*
X121698000Y-79950271D01*
X123200000Y-79950271D01*
X131698000Y-79950271D01*
X133200000Y-79950271D01*
X133200000Y-78448271D01*
X131698000Y-78448271D01*
X131698000Y-79950271D01*
X123200000Y-79950271D01*
X123200000Y-79650000D01*
X124300000Y-79650000D01*
X129800000Y-79650000D01*
X129800000Y-77450271D01*
X131698000Y-77450271D01*
X132734960Y-77450271D01*
X132717871Y-77435565D01*
X132711073Y-77429257D01*
X132658243Y-77376427D01*
X132651935Y-77369629D01*
X132615325Y-77327087D01*
X132609544Y-77319838D01*
X132484533Y-77150454D01*
X132479308Y-77142790D01*
X132449443Y-77095258D01*
X132444806Y-77087227D01*
X132409898Y-77021174D01*
X132405876Y-77012821D01*
X132383437Y-76961389D01*
X132380050Y-76952758D01*
X132312837Y-76760678D01*
X132310565Y-76753494D01*
X132298145Y-76709614D01*
X132296314Y-76702301D01*
X132283365Y-76643012D01*
X132281982Y-76635608D01*
X132274977Y-76590561D01*
X132274046Y-76583083D01*
X132267271Y-76510830D01*
X132267034Y-76507947D01*
X132265805Y-76490459D01*
X132265635Y-76487559D01*
X132264545Y-76464254D01*
X132264444Y-76461361D01*
X132264034Y-76443832D01*
X132264000Y-76440932D01*
X132264000Y-75948271D01*
X131698000Y-75948271D01*
X131698000Y-77450271D01*
X129800000Y-77450271D01*
X129800000Y-74950271D01*
X131698000Y-74950271D01*
X132343998Y-74950271D01*
X132380050Y-74847242D01*
X132383437Y-74838611D01*
X132405876Y-74787179D01*
X132409898Y-74778826D01*
X132444806Y-74712773D01*
X132449442Y-74704743D01*
X132451500Y-74701467D01*
X132451500Y-73962119D01*
X131937652Y-73448271D01*
X131698000Y-73448271D01*
X131698000Y-74950271D01*
X129800000Y-74950271D01*
X129800000Y-73900000D01*
X124300000Y-73900000D01*
X124300000Y-79650000D01*
X123200000Y-79650000D01*
X123200000Y-78448271D01*
X121698000Y-78448271D01*
X121698000Y-79950271D01*
X120700000Y-79950271D01*
X120700000Y-78448271D01*
X119986000Y-78448271D01*
X119986000Y-79950271D01*
X118988000Y-79950271D01*
X118988000Y-77147175D01*
X118988001Y-77147154D01*
X118988001Y-76943957D01*
X118988000Y-76943955D01*
X118973396Y-76870535D01*
X118949552Y-76750665D01*
X118874132Y-76568586D01*
X118874131Y-76568585D01*
X118874128Y-76568579D01*
X118764640Y-76404719D01*
X118764637Y-76404715D01*
X118308193Y-75948271D01*
X119659936Y-75948271D01*
X119717555Y-76034504D01*
X119720813Y-76039649D01*
X119739747Y-76071240D01*
X119742746Y-76076535D01*
X119765847Y-76119756D01*
X119768582Y-76125190D01*
X119784322Y-76158469D01*
X119786789Y-76164034D01*
X119880959Y-76391382D01*
X119883149Y-76397057D01*
X119895552Y-76431719D01*
X119897461Y-76437500D01*
X119911687Y-76484396D01*
X119913310Y-76490259D01*
X119922260Y-76525985D01*
X119923594Y-76531927D01*
X119971605Y-76773294D01*
X119972646Y-76779291D01*
X119978050Y-76815722D01*
X119978795Y-76821763D01*
X119983598Y-76870535D01*
X119984046Y-76876605D01*
X119985852Y-76913377D01*
X119986001Y-76919460D01*
X119986001Y-77165857D01*
X119986000Y-77165877D01*
X119986000Y-77450271D01*
X120700000Y-77450271D01*
X121698000Y-77450271D01*
X123200000Y-77450271D01*
X123200000Y-75948271D01*
X121698000Y-75948271D01*
X121698000Y-77450271D01*
X120700000Y-77450271D01*
X120700000Y-75948271D01*
X119659936Y-75948271D01*
X118308193Y-75948271D01*
X117310193Y-74950271D01*
X119198000Y-74950271D01*
X120700000Y-74950271D01*
X121698000Y-74950271D01*
X123200000Y-74950271D01*
X123200000Y-73448271D01*
X121698000Y-73448271D01*
X121698000Y-74950271D01*
X120700000Y-74950271D01*
X120700000Y-73448271D01*
X119198000Y-73448271D01*
X119198000Y-74950271D01*
X117310193Y-74950271D01*
X117026819Y-74666897D01*
X116993334Y-74605574D01*
X116990500Y-74579216D01*
X116990500Y-74077006D01*
X117010185Y-74009967D01*
X117011400Y-74008113D01*
X117031367Y-73978231D01*
X117031368Y-73978229D01*
X117042999Y-73919752D01*
X117043000Y-73919750D01*
X117043000Y-72450271D01*
X119198000Y-72450271D01*
X120700000Y-72450271D01*
X121698000Y-72450271D01*
X123200000Y-72450271D01*
X124198000Y-72450271D01*
X125700000Y-72450271D01*
X126698000Y-72450271D01*
X128200000Y-72450271D01*
X129198000Y-72450271D01*
X130700000Y-72450271D01*
X130700000Y-72210619D01*
X129437652Y-70948271D01*
X129198000Y-70948271D01*
X129198000Y-72450271D01*
X128200000Y-72450271D01*
X128200000Y-70948271D01*
X126698000Y-70948271D01*
X126698000Y-72450271D01*
X125700000Y-72450271D01*
X125700000Y-70948271D01*
X124198000Y-70948271D01*
X124198000Y-72450271D01*
X123200000Y-72450271D01*
X123200000Y-70948271D01*
X121698000Y-70948271D01*
X121698000Y-72450271D01*
X120700000Y-72450271D01*
X120700000Y-70948271D01*
X119198000Y-70948271D01*
X119198000Y-72450271D01*
X117043000Y-72450271D01*
X117043000Y-71880249D01*
X117042999Y-71880247D01*
X117031368Y-71821770D01*
X117031367Y-71821769D01*
X116987052Y-71755448D01*
X116945607Y-71727754D01*
X116900803Y-71674141D01*
X116890500Y-71624653D01*
X116890500Y-70025782D01*
X116910185Y-69958743D01*
X116926819Y-69938101D01*
X117786616Y-69078304D01*
X119198000Y-69078304D01*
X119198000Y-69950271D01*
X120700000Y-69950271D01*
X121698000Y-69950271D01*
X123200000Y-69950271D01*
X124198000Y-69950271D01*
X125700000Y-69950271D01*
X126698000Y-69950271D01*
X128200000Y-69950271D01*
X128200000Y-69710619D01*
X126937652Y-68448271D01*
X126698000Y-68448271D01*
X126698000Y-69950271D01*
X125700000Y-69950271D01*
X125700000Y-68448271D01*
X124198000Y-68448271D01*
X124198000Y-69950271D01*
X123200000Y-69950271D01*
X123200000Y-68448271D01*
X121698000Y-68448271D01*
X121698000Y-69950271D01*
X120700000Y-69950271D01*
X120700000Y-68448271D01*
X119828033Y-68448271D01*
X119198000Y-69078304D01*
X117786616Y-69078304D01*
X120286617Y-66578304D01*
X121698000Y-66578304D01*
X121698000Y-67450271D01*
X123200000Y-67450271D01*
X124198000Y-67450271D01*
X125700000Y-67450271D01*
X125700000Y-67210619D01*
X124912881Y-66423500D01*
X124198000Y-66423500D01*
X124198000Y-67450271D01*
X123200000Y-67450271D01*
X123200000Y-65980684D01*
X123195743Y-65976427D01*
X123189435Y-65969629D01*
X123171055Y-65948271D01*
X123028945Y-65948271D01*
X123010565Y-65969629D01*
X123004257Y-65976427D01*
X122951427Y-66029257D01*
X122944629Y-66035565D01*
X122902087Y-66072175D01*
X122894838Y-66077956D01*
X122725454Y-66202967D01*
X122717790Y-66208192D01*
X122670258Y-66238057D01*
X122662227Y-66242694D01*
X122596174Y-66277602D01*
X122587821Y-66281624D01*
X122536389Y-66304063D01*
X122527758Y-66307450D01*
X122335678Y-66374663D01*
X122328494Y-66376935D01*
X122284614Y-66389355D01*
X122277301Y-66391186D01*
X122218012Y-66404135D01*
X122210608Y-66405518D01*
X122165561Y-66412523D01*
X122158083Y-66413454D01*
X122085830Y-66420229D01*
X122082947Y-66420466D01*
X122065459Y-66421695D01*
X122062559Y-66421865D01*
X122039254Y-66422955D01*
X122036361Y-66423056D01*
X122018832Y-66423466D01*
X122015932Y-66423500D01*
X121852805Y-66423500D01*
X121698000Y-66578304D01*
X120286617Y-66578304D01*
X121403102Y-65461819D01*
X121464425Y-65428334D01*
X121490783Y-65425500D01*
X122004270Y-65425500D01*
X122034699Y-65422646D01*
X122034701Y-65422646D01*
X122111135Y-65395900D01*
X122162882Y-65377793D01*
X122272150Y-65297150D01*
X122352793Y-65187882D01*
X122375219Y-65123790D01*
X122397646Y-65059701D01*
X122397646Y-65059699D01*
X122400500Y-65029269D01*
X122400500Y-64465604D01*
X122420185Y-64398565D01*
X122421399Y-64396711D01*
X122436632Y-64373914D01*
X122512051Y-64191835D01*
X122540719Y-64047713D01*
X122550500Y-63998543D01*
X122550500Y-61524500D01*
X122570185Y-61457461D01*
X122622989Y-61411706D01*
X122674500Y-61400500D01*
X142175500Y-61400500D01*
X142242539Y-61420185D01*
X142288294Y-61472989D01*
X142299500Y-61524500D01*
X142299500Y-63800500D01*
X142279815Y-63867539D01*
X142227011Y-63913294D01*
X142175500Y-63924500D01*
X140770741Y-63924500D01*
X140740301Y-63927354D01*
X140740300Y-63927354D01*
X140612118Y-63972206D01*
X140502850Y-64052850D01*
X140422206Y-64162118D01*
X140377353Y-64290302D01*
X140375594Y-64309068D01*
X140374500Y-64320735D01*
X140374501Y-66029264D01*
X140375092Y-66035565D01*
X140377354Y-66059698D01*
X140377354Y-66059699D01*
X140422206Y-66187881D01*
X140422207Y-66187882D01*
X140502850Y-66297150D01*
X140612118Y-66377793D01*
X140740302Y-66422646D01*
X140740301Y-66422646D01*
X140743597Y-66422955D01*
X140770735Y-66425500D01*
X145829264Y-66425499D01*
X145859698Y-66422646D01*
X145987882Y-66377793D01*
X146097150Y-66297150D01*
X146177793Y-66187882D01*
X146222646Y-66059698D01*
X146225500Y-66029265D01*
X146225499Y-64320736D01*
X146222646Y-64290302D01*
X146177793Y-64162118D01*
X146097150Y-64052850D01*
X145987882Y-63972207D01*
X145987881Y-63972206D01*
X145859695Y-63927353D01*
X145859698Y-63927353D01*
X145829269Y-63924500D01*
X145829265Y-63924500D01*
X144424500Y-63924500D01*
X144357461Y-63904815D01*
X144311706Y-63852011D01*
X144300500Y-63800500D01*
X144300500Y-63448271D01*
X146891321Y-63448271D01*
X147002962Y-63599539D01*
X147008185Y-63607200D01*
X147038042Y-63654716D01*
X147042678Y-63662746D01*
X147077590Y-63728800D01*
X147081614Y-63737155D01*
X147104063Y-63788607D01*
X147107452Y-63797241D01*
X147174667Y-63989335D01*
X147176939Y-63996521D01*
X147189358Y-64040402D01*
X147191189Y-64047713D01*
X147204138Y-64107006D01*
X147205521Y-64114411D01*
X147212526Y-64159462D01*
X147213457Y-64166940D01*
X147220230Y-64239189D01*
X147220466Y-64242076D01*
X147221693Y-64259548D01*
X147221862Y-64262435D01*
X147222953Y-64285733D01*
X147223055Y-64288634D01*
X147223465Y-64306169D01*
X147223499Y-64309068D01*
X147223499Y-64950271D01*
X148200000Y-64950271D01*
X148200000Y-63448271D01*
X146891321Y-63448271D01*
X144300500Y-63448271D01*
X144300500Y-62001997D01*
X144320185Y-61934958D01*
X144363144Y-61897734D01*
X146698000Y-61897734D01*
X146698000Y-62450271D01*
X148200000Y-62450271D01*
X148200000Y-60948271D01*
X147484500Y-60948271D01*
X147418169Y-61063161D01*
X147416321Y-61066257D01*
X147404874Y-61084816D01*
X147402939Y-61087854D01*
X147386986Y-61112112D01*
X147384957Y-61115101D01*
X147372434Y-61132986D01*
X147370322Y-61135911D01*
X147144257Y-61439570D01*
X147142056Y-61442438D01*
X147128511Y-61459566D01*
X147126235Y-61462360D01*
X147107571Y-61484601D01*
X147105214Y-61487328D01*
X147090720Y-61503614D01*
X147088285Y-61506271D01*
X146828511Y-61781615D01*
X146825995Y-61784205D01*
X146810563Y-61799636D01*
X146807977Y-61802148D01*
X146786858Y-61822072D01*
X146784202Y-61824506D01*
X146767909Y-61839006D01*
X146765179Y-61841365D01*
X146698000Y-61897734D01*
X144363144Y-61897734D01*
X144372989Y-61889203D01*
X144410099Y-61878836D01*
X144571914Y-61859923D01*
X144912011Y-61779319D01*
X145240451Y-61659777D01*
X145552793Y-61502913D01*
X145844811Y-61310849D01*
X146112558Y-61086183D01*
X146352412Y-60831953D01*
X146561130Y-60551596D01*
X146735889Y-60248904D01*
X146874326Y-59927971D01*
X146974569Y-59593136D01*
X147035262Y-59248927D01*
X147055585Y-58900000D01*
X147055036Y-58890580D01*
X147042490Y-58675179D01*
X147035262Y-58551073D01*
X147032948Y-58537947D01*
X146974571Y-58206872D01*
X146974569Y-58206865D01*
X146974568Y-58206862D01*
X146874326Y-57872029D01*
X146735889Y-57551096D01*
X146561130Y-57248404D01*
X146482261Y-57142464D01*
X146352415Y-56968050D01*
X146352410Y-56968044D01*
X146232473Y-56840919D01*
X146112558Y-56713817D01*
X145964488Y-56589572D01*
X145844813Y-56489152D01*
X145844805Y-56489146D01*
X145552796Y-56297088D01*
X145240458Y-56140226D01*
X145240452Y-56140223D01*
X144937913Y-56030108D01*
X144881649Y-55988682D01*
X144856713Y-55923413D01*
X144871023Y-55855024D01*
X144920035Y-55805229D01*
X144980592Y-55789586D01*
X149626273Y-55799729D01*
G37*
%TD.AperFunction*%
%TA.AperFunction,Conductor*%
G36*
X146354463Y-73061846D02*
G01*
X146384953Y-73084189D01*
X147428068Y-74127304D01*
X148263681Y-74962916D01*
X148297166Y-75024239D01*
X148300000Y-75050597D01*
X148300000Y-77349999D01*
X148449972Y-77349999D01*
X148449984Y-77349998D01*
X148537897Y-77341017D01*
X148606590Y-77353786D01*
X148657475Y-77401667D01*
X148674500Y-77464375D01*
X148674500Y-78835624D01*
X148654815Y-78902663D01*
X148602011Y-78948418D01*
X148537897Y-78958982D01*
X148449986Y-78950000D01*
X148300000Y-78950000D01*
X148300000Y-81349999D01*
X148449972Y-81349999D01*
X148449984Y-81349998D01*
X148537897Y-81341017D01*
X148606590Y-81353786D01*
X148657475Y-81401667D01*
X148674500Y-81464375D01*
X148674500Y-83085624D01*
X148654815Y-83152663D01*
X148602011Y-83198418D01*
X148537897Y-83208982D01*
X148449986Y-83200000D01*
X148300000Y-83200000D01*
X148300000Y-85599999D01*
X148449972Y-85599999D01*
X148449984Y-85599998D01*
X148537897Y-85591017D01*
X148606590Y-85603786D01*
X148657475Y-85651667D01*
X148674500Y-85714375D01*
X148674500Y-86558069D01*
X148654815Y-86625108D01*
X148602011Y-86670863D01*
X148537899Y-86681427D01*
X148474991Y-86675000D01*
X148337500Y-86675000D01*
X148337500Y-87776000D01*
X148317815Y-87843039D01*
X148265011Y-87888794D01*
X148213500Y-87900000D01*
X147961500Y-87900000D01*
X147894461Y-87880315D01*
X147848706Y-87827511D01*
X147837500Y-87776000D01*
X147837500Y-86675000D01*
X147700027Y-86675000D01*
X147700012Y-86675001D01*
X147597302Y-86685494D01*
X147430880Y-86740641D01*
X147430875Y-86740643D01*
X147281654Y-86832684D01*
X147157684Y-86956654D01*
X147065643Y-87105875D01*
X147065641Y-87105880D01*
X147009905Y-87274082D01*
X146970132Y-87331527D01*
X146905617Y-87358350D01*
X146836841Y-87346035D01*
X146785641Y-87298492D01*
X146775158Y-87276033D01*
X146752793Y-87212119D01*
X146752793Y-87212118D01*
X146674729Y-87106344D01*
X146650759Y-87040715D01*
X146650500Y-87032711D01*
X146650500Y-85287628D01*
X146670185Y-85220589D01*
X146700866Y-85187857D01*
X146722150Y-85172150D01*
X146783223Y-85089397D01*
X146838869Y-85047147D01*
X146908525Y-85041688D01*
X146970075Y-85074754D01*
X147000699Y-85124026D01*
X147015642Y-85169121D01*
X147015643Y-85169124D01*
X147107684Y-85318345D01*
X147231654Y-85442315D01*
X147380875Y-85534356D01*
X147380880Y-85534358D01*
X147547302Y-85589505D01*
X147547309Y-85589506D01*
X147650019Y-85599999D01*
X147799999Y-85599999D01*
X147800000Y-85599998D01*
X147800000Y-83200000D01*
X147650027Y-83200000D01*
X147650012Y-83200001D01*
X147547302Y-83210494D01*
X147380880Y-83265641D01*
X147380875Y-83265643D01*
X147231654Y-83357684D01*
X147107684Y-83481654D01*
X147015643Y-83630875D01*
X147015640Y-83630883D01*
X147000698Y-83675974D01*
X146960925Y-83733418D01*
X146896409Y-83760240D01*
X146827633Y-83747924D01*
X146783223Y-83710601D01*
X146722151Y-83627851D01*
X146720633Y-83626731D01*
X146612882Y-83547207D01*
X146612880Y-83547206D01*
X146484700Y-83502353D01*
X146454270Y-83499500D01*
X146454266Y-83499500D01*
X145645734Y-83499500D01*
X145645730Y-83499500D01*
X145615300Y-83502353D01*
X145615298Y-83502353D01*
X145487119Y-83547206D01*
X145487117Y-83547207D01*
X145377850Y-83627850D01*
X145297207Y-83737117D01*
X145297206Y-83737119D01*
X145252353Y-83865298D01*
X145252353Y-83865300D01*
X145249500Y-83895730D01*
X145249500Y-84904269D01*
X145252353Y-84934699D01*
X145252353Y-84934701D01*
X145291701Y-85047147D01*
X145297207Y-85062882D01*
X145342333Y-85124026D01*
X145377848Y-85172148D01*
X145377850Y-85172150D01*
X145399132Y-85187857D01*
X145441384Y-85243503D01*
X145449500Y-85287628D01*
X145449500Y-86968920D01*
X145429815Y-87035959D01*
X145399134Y-87068690D01*
X145352853Y-87102847D01*
X145352850Y-87102850D01*
X145272207Y-87212117D01*
X145272206Y-87212119D01*
X145227353Y-87340298D01*
X145227353Y-87340300D01*
X145224500Y-87370730D01*
X145224500Y-88429269D01*
X145227353Y-88459699D01*
X145227353Y-88459701D01*
X145259342Y-88551117D01*
X145272207Y-88587882D01*
X145352850Y-88697150D01*
X145362762Y-88704465D01*
X145405013Y-88760113D01*
X145411179Y-88812816D01*
X145411999Y-88812816D01*
X145411999Y-88819820D01*
X145412068Y-88820410D01*
X145411999Y-88820934D01*
X145411999Y-88989046D01*
X145412000Y-88989059D01*
X145412000Y-90516557D01*
X145422190Y-90554584D01*
X145452923Y-90669283D01*
X145452926Y-90669290D01*
X145531975Y-90806209D01*
X145531979Y-90806214D01*
X145531980Y-90806216D01*
X145643784Y-90918020D01*
X145643786Y-90918021D01*
X145643790Y-90918024D01*
X145764684Y-90987821D01*
X145780716Y-90997077D01*
X145933443Y-91038000D01*
X145933445Y-91038000D01*
X146013402Y-91038000D01*
X146080441Y-91057685D01*
X146126196Y-91110489D01*
X146136140Y-91179647D01*
X146107115Y-91243203D01*
X146101083Y-91249681D01*
X145019481Y-92331282D01*
X145019477Y-92331287D01*
X145011887Y-92344435D01*
X144961321Y-92392650D01*
X144892714Y-92405874D01*
X144827849Y-92379906D01*
X144787320Y-92322992D01*
X144780500Y-92282435D01*
X144780500Y-85613738D01*
X144800185Y-85546699D01*
X144810787Y-85532535D01*
X144811124Y-85532144D01*
X144811128Y-85532143D01*
X144905377Y-85423373D01*
X144965165Y-85292457D01*
X144985647Y-85150000D01*
X144965165Y-85007543D01*
X144905377Y-84876627D01*
X144905375Y-84876625D01*
X144905374Y-84876622D01*
X144810787Y-84767462D01*
X144781762Y-84703906D01*
X144780500Y-84686260D01*
X144780500Y-81895832D01*
X144800185Y-81828793D01*
X144816815Y-81808155D01*
X145539361Y-81085608D01*
X145600682Y-81052125D01*
X145638617Y-81049833D01*
X145645730Y-81050500D01*
X145645734Y-81050500D01*
X146454270Y-81050500D01*
X146484699Y-81047646D01*
X146484701Y-81047646D01*
X146548790Y-81025219D01*
X146612882Y-81002793D01*
X146722150Y-80922150D01*
X146783225Y-80839395D01*
X146838870Y-80797147D01*
X146908526Y-80791688D01*
X146970075Y-80824755D01*
X147000699Y-80874026D01*
X147015642Y-80919121D01*
X147015643Y-80919124D01*
X147107684Y-81068345D01*
X147231654Y-81192315D01*
X147380875Y-81284356D01*
X147380880Y-81284358D01*
X147547302Y-81339505D01*
X147547309Y-81339506D01*
X147650019Y-81349999D01*
X147799999Y-81349999D01*
X147800000Y-81349998D01*
X147800000Y-78950000D01*
X147650027Y-78950000D01*
X147650012Y-78950001D01*
X147547302Y-78960494D01*
X147380880Y-79015641D01*
X147380875Y-79015643D01*
X147231654Y-79107684D01*
X147107684Y-79231654D01*
X147015643Y-79380875D01*
X147015640Y-79380883D01*
X147000698Y-79425974D01*
X146960925Y-79483418D01*
X146896409Y-79510240D01*
X146827633Y-79497924D01*
X146783223Y-79460601D01*
X146722151Y-79377851D01*
X146717281Y-79374257D01*
X146612882Y-79297207D01*
X146612880Y-79297206D01*
X146484700Y-79252353D01*
X146454270Y-79249500D01*
X146454266Y-79249500D01*
X145645734Y-79249500D01*
X145645730Y-79249500D01*
X145615300Y-79252353D01*
X145615298Y-79252353D01*
X145487119Y-79297206D01*
X145487117Y-79297207D01*
X145377850Y-79377850D01*
X145297207Y-79487117D01*
X145297206Y-79487119D01*
X145252353Y-79615298D01*
X145252353Y-79615300D01*
X145249500Y-79645730D01*
X145249500Y-80474167D01*
X145229815Y-80541206D01*
X145213181Y-80561848D01*
X144239541Y-81535487D01*
X144239535Y-81535495D01*
X144199982Y-81604004D01*
X144199979Y-81604009D01*
X144179500Y-81680439D01*
X144179500Y-84686260D01*
X144159815Y-84753299D01*
X144149213Y-84767462D01*
X144054625Y-84876622D01*
X144054622Y-84876628D01*
X144017294Y-84958365D01*
X143971539Y-85011169D01*
X143904500Y-85030853D01*
X143837460Y-85011168D01*
X143791705Y-84958364D01*
X143780500Y-84906853D01*
X143780500Y-79395833D01*
X143800185Y-79328794D01*
X143816819Y-79308152D01*
X146038152Y-77086819D01*
X146099475Y-77053334D01*
X146125833Y-77050500D01*
X146454270Y-77050500D01*
X146484699Y-77047646D01*
X146484701Y-77047646D01*
X146560352Y-77021174D01*
X146612882Y-77002793D01*
X146722150Y-76922150D01*
X146783225Y-76839395D01*
X146838870Y-76797147D01*
X146908526Y-76791688D01*
X146970075Y-76824755D01*
X147000699Y-76874026D01*
X147015642Y-76919121D01*
X147015643Y-76919124D01*
X147107684Y-77068345D01*
X147231654Y-77192315D01*
X147380875Y-77284356D01*
X147380880Y-77284358D01*
X147547302Y-77339505D01*
X147547309Y-77339506D01*
X147650019Y-77349999D01*
X147799999Y-77349999D01*
X147800000Y-77349998D01*
X147800000Y-74950000D01*
X147650027Y-74950000D01*
X147650012Y-74950001D01*
X147547302Y-74960494D01*
X147380880Y-75015641D01*
X147380875Y-75015643D01*
X147231654Y-75107684D01*
X147107684Y-75231654D01*
X147015643Y-75380875D01*
X147015640Y-75380883D01*
X147000698Y-75425974D01*
X146960925Y-75483418D01*
X146896409Y-75510240D01*
X146827633Y-75497924D01*
X146783223Y-75460601D01*
X146722151Y-75377851D01*
X146712502Y-75370730D01*
X146612882Y-75297207D01*
X146612880Y-75297206D01*
X146484700Y-75252353D01*
X146454270Y-75249500D01*
X146454266Y-75249500D01*
X145645734Y-75249500D01*
X145645730Y-75249500D01*
X145615300Y-75252353D01*
X145615298Y-75252353D01*
X145487119Y-75297206D01*
X145487117Y-75297207D01*
X145377850Y-75377850D01*
X145297207Y-75487117D01*
X145297206Y-75487119D01*
X145252353Y-75615298D01*
X145252353Y-75615300D01*
X145249500Y-75645730D01*
X145249500Y-76654269D01*
X145252353Y-76684699D01*
X145252353Y-76684701D01*
X145297206Y-76812880D01*
X145297209Y-76812886D01*
X145303879Y-76821923D01*
X145327850Y-76887552D01*
X145312534Y-76955722D01*
X145291790Y-76983237D01*
X143295489Y-78979540D01*
X143272181Y-79002848D01*
X143210858Y-79036333D01*
X143141166Y-79031349D01*
X143085233Y-78989477D01*
X143060816Y-78924013D01*
X143060500Y-78915167D01*
X143060500Y-73499499D01*
X143080185Y-73432460D01*
X143132989Y-73386705D01*
X143184500Y-73375499D01*
X145829258Y-73375499D01*
X145829264Y-73375499D01*
X145859698Y-73372646D01*
X145987882Y-73327793D01*
X146097150Y-73247150D01*
X146177793Y-73137882D01*
X146180229Y-73130917D01*
X146220949Y-73074142D01*
X146285901Y-73048393D01*
X146354463Y-73061846D01*
G37*
%TD.AperFunction*%
%TA.AperFunction,Conductor*%
G36*
X115316038Y-60520185D02*
G01*
X115326313Y-60527554D01*
X115331260Y-60531499D01*
X115335837Y-60535149D01*
X115402888Y-60550453D01*
X115424995Y-60555499D01*
X115425000Y-60555500D01*
X116574996Y-60555500D01*
X116575000Y-60555500D01*
X116648085Y-60542065D01*
X116653025Y-60538771D01*
X116719722Y-60517962D01*
X116775612Y-60530225D01*
X116785835Y-60535148D01*
X116785836Y-60535148D01*
X116785837Y-60535149D01*
X116875000Y-60555500D01*
X116875007Y-60555500D01*
X116877609Y-60555794D01*
X116879182Y-60556455D01*
X116881789Y-60557050D01*
X116881684Y-60557506D01*
X116942025Y-60582857D01*
X116951414Y-60591334D01*
X117394735Y-61034655D01*
X117394764Y-61034686D01*
X117537214Y-61177136D01*
X117537218Y-61177139D01*
X117701079Y-61286628D01*
X117701092Y-61286635D01*
X117829833Y-61339961D01*
X117872744Y-61357735D01*
X117883164Y-61362051D01*
X117979812Y-61381275D01*
X118028135Y-61390887D01*
X118076458Y-61400500D01*
X118076459Y-61400500D01*
X118076460Y-61400500D01*
X118273540Y-61400500D01*
X120425500Y-61400500D01*
X120492539Y-61420185D01*
X120538294Y-61472989D01*
X120549500Y-61524500D01*
X120549500Y-63434217D01*
X120529815Y-63501256D01*
X120513181Y-63521898D01*
X115252220Y-68782859D01*
X115252218Y-68782861D01*
X115182538Y-68852540D01*
X115112859Y-68922219D01*
X115003371Y-69086079D01*
X115003364Y-69086092D01*
X114927950Y-69268160D01*
X114927947Y-69268170D01*
X114889500Y-69461456D01*
X114889500Y-71624653D01*
X114869815Y-71691692D01*
X114834393Y-71727754D01*
X114792947Y-71755448D01*
X114748632Y-71821769D01*
X114748631Y-71821770D01*
X114737000Y-71880247D01*
X114737000Y-71908768D01*
X114717315Y-71975807D01*
X114664511Y-72021562D01*
X114595353Y-72031506D01*
X114531797Y-72002481D01*
X114512682Y-71981654D01*
X114457903Y-71906258D01*
X114296242Y-71744597D01*
X114111276Y-71610211D01*
X113907568Y-71506417D01*
X113690124Y-71435765D01*
X113600000Y-71421490D01*
X113600000Y-72409252D01*
X113562292Y-72387482D01*
X113422409Y-72350000D01*
X113277591Y-72350000D01*
X113137708Y-72387482D01*
X113100000Y-72409252D01*
X113100000Y-71421490D01*
X113099999Y-71421490D01*
X113009875Y-71435765D01*
X112792431Y-71506417D01*
X112588723Y-71610211D01*
X112403757Y-71744597D01*
X112242097Y-71906257D01*
X112107711Y-72091223D01*
X112042381Y-72219441D01*
X111994406Y-72270237D01*
X111926585Y-72287032D01*
X111860450Y-72264495D01*
X111831580Y-72236034D01*
X111825690Y-72227927D01*
X111692073Y-72094310D01*
X109548035Y-69950271D01*
X111698000Y-69950271D01*
X113200000Y-69950271D01*
X113200000Y-68448271D01*
X111698000Y-68448271D01*
X111698000Y-69950271D01*
X109548035Y-69950271D01*
X108046035Y-68448271D01*
X109457419Y-68448271D01*
X110700000Y-69690852D01*
X110700000Y-68448271D01*
X109457419Y-68448271D01*
X108046035Y-68448271D01*
X108036819Y-68439055D01*
X108003334Y-68377732D01*
X108000500Y-68351374D01*
X108000500Y-67450271D01*
X109198000Y-67450271D01*
X110700000Y-67450271D01*
X111698000Y-67450271D01*
X113200000Y-67450271D01*
X114198000Y-67450271D01*
X115173424Y-67450271D01*
X115700000Y-66923695D01*
X115700000Y-65948271D01*
X114198000Y-65948271D01*
X114198000Y-67450271D01*
X113200000Y-67450271D01*
X113200000Y-65948271D01*
X111698000Y-65948271D01*
X111698000Y-67450271D01*
X110700000Y-67450271D01*
X110700000Y-65948271D01*
X109198000Y-65948271D01*
X109198000Y-67450271D01*
X108000500Y-67450271D01*
X108000500Y-64950271D01*
X109198000Y-64950271D01*
X110700000Y-64950271D01*
X111698000Y-64950271D01*
X113200000Y-64950271D01*
X114198000Y-64950271D01*
X115700000Y-64950271D01*
X116698000Y-64950271D01*
X117673424Y-64950271D01*
X118200000Y-64423695D01*
X118200000Y-63448271D01*
X116698000Y-63448271D01*
X116698000Y-64950271D01*
X115700000Y-64950271D01*
X115700000Y-63448271D01*
X114198000Y-63448271D01*
X114198000Y-64950271D01*
X113200000Y-64950271D01*
X113200000Y-63448271D01*
X111698000Y-63448271D01*
X111698000Y-64950271D01*
X110700000Y-64950271D01*
X110700000Y-63448271D01*
X109198000Y-63448271D01*
X109198000Y-64950271D01*
X108000500Y-64950271D01*
X108000500Y-62273064D01*
X109198000Y-62273064D01*
X109198000Y-62450271D01*
X110700000Y-62450271D01*
X111698000Y-62450271D01*
X113200000Y-62450271D01*
X114198000Y-62450271D01*
X115700000Y-62450271D01*
X116698000Y-62450271D01*
X118200000Y-62450271D01*
X118200000Y-62398500D01*
X118051959Y-62398500D01*
X118045876Y-62398351D01*
X118009104Y-62396545D01*
X118003035Y-62396097D01*
X117954262Y-62391294D01*
X117948218Y-62390549D01*
X117911783Y-62385144D01*
X117905786Y-62384103D01*
X117762908Y-62355680D01*
X117762908Y-62355681D01*
X117664443Y-62336097D01*
X117664320Y-62336069D01*
X117521907Y-62307740D01*
X117459996Y-62275355D01*
X117450245Y-62264787D01*
X117447969Y-62262014D01*
X117447918Y-62261993D01*
X117296536Y-62199289D01*
X117290973Y-62196824D01*
X117257692Y-62181084D01*
X117252256Y-62178347D01*
X117209035Y-62155246D01*
X117203739Y-62152246D01*
X117172147Y-62133311D01*
X117167003Y-62130054D01*
X116962386Y-61993333D01*
X116957412Y-61989830D01*
X116927838Y-61967897D01*
X116923038Y-61964151D01*
X116885156Y-61933062D01*
X116880549Y-61929088D01*
X116853262Y-61904357D01*
X116848853Y-61900159D01*
X116698000Y-61749306D01*
X116698000Y-62450271D01*
X115700000Y-62450271D01*
X115700000Y-61553500D01*
X115396998Y-61553500D01*
X115390046Y-61553305D01*
X115348037Y-61550946D01*
X115341109Y-61550362D01*
X115285447Y-61544092D01*
X115278559Y-61543119D01*
X115237055Y-61536068D01*
X115230230Y-61534711D01*
X115071582Y-61498500D01*
X114198000Y-61498500D01*
X114198000Y-62450271D01*
X113200000Y-62450271D01*
X113200000Y-61498500D01*
X111698000Y-61498500D01*
X111698000Y-62450271D01*
X110700000Y-62450271D01*
X110700000Y-61498500D01*
X110095271Y-61498500D01*
X110090720Y-61503614D01*
X110088285Y-61506271D01*
X109828511Y-61781615D01*
X109825995Y-61784205D01*
X109810563Y-61799636D01*
X109807977Y-61802148D01*
X109786858Y-61822072D01*
X109784202Y-61824506D01*
X109767909Y-61839006D01*
X109765179Y-61841365D01*
X109475194Y-62084692D01*
X109472395Y-62086972D01*
X109455279Y-62100505D01*
X109452420Y-62102699D01*
X109429131Y-62120037D01*
X109426206Y-62122149D01*
X109408334Y-62134663D01*
X109405350Y-62136688D01*
X109198000Y-62273064D01*
X108000500Y-62273064D01*
X108000500Y-61833937D01*
X108020185Y-61766898D01*
X108072989Y-61721143D01*
X108082090Y-61717415D01*
X108240451Y-61659777D01*
X108552793Y-61502913D01*
X108844811Y-61310849D01*
X109112558Y-61086183D01*
X109352412Y-60831953D01*
X109561130Y-60551596D01*
X109561129Y-60551596D01*
X109561981Y-60550453D01*
X109617803Y-60508433D01*
X109661444Y-60500500D01*
X115248999Y-60500500D01*
X115316038Y-60520185D01*
G37*
%TD.AperFunction*%
%TD*%
M02*
