M48
; DRILL file {KiCad 8.0.8} date 2025-08-11T02:01:29+0900
; FORMAT={-:-/ absolute / inch / decimal}
; #@! TF.CreationDate,2025-08-11T02:01:29+09:00
; #@! TF.GenerationSoftware,Kicad,Pcbnew,8.0.8
; #@! TF.FileFunction,Plated,1,2,PTH
FMAT,2
INCH
; #@! TA.AperFunction,Plated,PTH,ViaDrill
T1C0.0118
; #@! TA.AperFunction,Plated,PTH,ViaDrill
T2C0.0157
; #@! TA.AperFunction,Plated,PTH,ComponentDrill
T3C0.0197
; #@! TA.AperFunction,Plated,PTH,ViaDrill
T4C0.0394
; #@! TA.AperFunction,Plated,PTH,ComponentDrill
T5C0.0433
; #@! TA.AperFunction,Plated,PTH,ComponentDrill
T6C0.1260
%
G90
G05
T1
X5.4744Y-3.3508
X5.6882Y-3.3524
X5.7485Y-3.5605
T2
X5.8302Y-3.3917
X5.8484Y-3.5984
T4
X5.5457Y-3.1752
T5
X4.3626Y-2.8701
X4.4626Y-2.8701
X4.5626Y-2.8701
T6
X4.2146Y-2.3189
X4.2146Y-4.6811
X5.6713Y-2.3189
T3
G00X5.4984Y-3.7106
M15
G01X5.4984Y-3.6831
M16
G05
G00X5.4984Y-3.8602
M15
G01X5.4984Y-3.8327
M16
G05
G00X5.8386Y-3.7106
M15
G01X5.8386Y-3.6831
M16
G05
G00X5.8386Y-3.8602
M15
G01X5.8386Y-3.8327
M16
G05
M30
